<?xml version="1.0" encoding="UTF-8" standalone="no"?>
<!-- Created with Inkscape (http://www.inkscape.org/) -->

<svg
   xmlns:ns0="http://www.iki.fi/pav/software/textext/"
   xmlns:dc="http://purl.org/dc/elements/1.1/"
   xmlns:cc="http://creativecommons.org/ns#"
   xmlns:rdf="http://www.w3.org/1999/02/22-rdf-syntax-ns#"
   xmlns:svg="http://www.w3.org/2000/svg"
   xmlns="http://www.w3.org/2000/svg"
   xmlns:sodipodi="http://sodipodi.sourceforge.net/DTD/sodipodi-0.dtd"
   xmlns:inkscape="http://www.inkscape.org/namespaces/inkscape"
   id="svg6949"
   version="1.1"
   inkscape:version="0.48.3.1 r9886"
   width="531.49603"
   height="354.33069"
   xml:space="preserve"
   sodipodi:docname="ink_ext_XXXXXX.svg1PXPAW"><sodipodi:namedview
     pagecolor="#ffffff"
     bordercolor="#666666"
     borderopacity="1"
     objecttolerance="10"
     gridtolerance="10"
     guidetolerance="10"
     inkscape:pageopacity="0"
     inkscape:pageshadow="2"
     inkscape:window-width="1440"
     inkscape:window-height="871"
     id="namedview6951"
     showgrid="false"
     units="mm"
     inkscape:zoom="4"
     inkscape:cx="117.03822"
     inkscape:cy="169.70272"
     inkscape:window-x="0"
     inkscape:window-y="26"
     inkscape:window-maximized="1"
     inkscape:current-layer="g6957" /><metadata
     id="metadata6955"><rdf:RDF><cc:Work
         rdf:about=""><dc:format>image/svg+xml</dc:format><dc:type
           rdf:resource="http://purl.org/dc/dcmitype/StillImage" /><dc:title /></cc:Work></rdf:RDF></metadata><defs
     id="defs6953"><clipPath
       id="clipPath6961"
       clipPathUnits="userSpaceOnUse"><path
         inkscape:connector-curvature="0"
         id="path6963"
         clip-rule="evenodd"
         d="m 35.28,2.88 0,467.4 470.4,0 0,-467.4" /></clipPath><clipPath
       id="clipPath6969"
       clipPathUnits="userSpaceOnUse"><path
         inkscape:connector-curvature="0"
         id="path6971"
         clip-rule="evenodd"
         d="m 33,1 0,471 475,0 0,-471" /></clipPath><clipPath
       id="clipPath6977"
       clipPathUnits="userSpaceOnUse"><path
         inkscape:connector-curvature="0"
         id="path6979"
         clip-rule="evenodd"
         d="m 35,2 0,468 471,0 0,-468" /></clipPath><clipPath
       id="clipPath6985"
       clipPathUnits="userSpaceOnUse"><path
         inkscape:connector-curvature="0"
         id="path6987"
         clip-rule="evenodd"
         d="m 46,2 0,460 460,0 0,-460" /></clipPath><clipPath
       id="clipPath6993"
       clipPathUnits="userSpaceOnUse"><path
         inkscape:connector-curvature="0"
         id="path6995"
         clip-rule="evenodd"
         d="m 46,2 0,460 460,0 0,-460" /></clipPath><clipPath
       id="clipPath7001"
       clipPathUnits="userSpaceOnUse"><path
         inkscape:connector-curvature="0"
         id="path7003"
         clip-rule="evenodd"
         d="m 46,2 0,460 460,0 0,-460" /></clipPath><clipPath
       id="clipPath7017"
       clipPathUnits="userSpaceOnUse"><path
         inkscape:connector-curvature="0"
         id="path7019"
         clip-rule="evenodd"
         d="m 96,267 0,6 5,0 0,-6" /></clipPath><clipPath
       id="clipPath7029"
       clipPathUnits="userSpaceOnUse"><path
         inkscape:connector-curvature="0"
         id="path7031"
         clip-rule="evenodd"
         d="m -2.174,-1.688 0,8 7,0 0,-8" /></clipPath><clipPath
       id="clipPath7043"
       clipPathUnits="userSpaceOnUse"><path
         inkscape:connector-curvature="0"
         id="path7045"
         clip-rule="evenodd"
         d="m 122,196 0,6 5,0 0,-6" /></clipPath><clipPath
       id="clipPath7055"
       clipPathUnits="userSpaceOnUse"><path
         inkscape:connector-curvature="0"
         id="path7057"
         clip-rule="evenodd"
         d="m -1.563,-1.788 0,8 7,0 0,-8" /></clipPath><clipPath
       id="clipPath7069"
       clipPathUnits="userSpaceOnUse"><path
         inkscape:connector-curvature="0"
         id="path7071"
         clip-rule="evenodd"
         d="m 274,206 0,7 5,0 0,-7" /></clipPath><clipPath
       id="clipPath7081"
       clipPathUnits="userSpaceOnUse"><path
         inkscape:connector-curvature="0"
         id="path7083"
         clip-rule="evenodd"
         d="m -1.899,-2.189 0,9 7,0 0,-9" /></clipPath><clipPath
       id="clipPath7095"
       clipPathUnits="userSpaceOnUse"><path
         inkscape:connector-curvature="0"
         id="path7097"
         clip-rule="evenodd"
         d="m 309,248 0,6 5,0 0,-6" /></clipPath><clipPath
       id="clipPath7107"
       clipPathUnits="userSpaceOnUse"><path
         inkscape:connector-curvature="0"
         id="path7109"
         clip-rule="evenodd"
         d="m -2.444,-1.824 0,8 7,0 0,-8" /></clipPath><clipPath
       id="clipPath7121"
       clipPathUnits="userSpaceOnUse"><path
         inkscape:connector-curvature="0"
         id="path7123"
         clip-rule="evenodd"
         d="m 413,206 0,7 5,0 0,-7" /></clipPath><clipPath
       id="clipPath7133"
       clipPathUnits="userSpaceOnUse"><path
         inkscape:connector-curvature="0"
         id="path7135"
         clip-rule="evenodd"
         d="m -2.457,-2.097 0,9 7,0 0,-9" /></clipPath><clipPath
       id="clipPath7147"
       clipPathUnits="userSpaceOnUse"><path
         inkscape:connector-curvature="0"
         id="path7149"
         clip-rule="evenodd"
         d="m 480,409 0,7 5,0 0,-7" /></clipPath><clipPath
       id="clipPath7159"
       clipPathUnits="userSpaceOnUse"><path
         inkscape:connector-curvature="0"
         id="path7161"
         clip-rule="evenodd"
         d="m -2.263,-2.221 0,9 7,0 0,-9" /></clipPath><clipPath
       id="clipPath7193"
       clipPathUnits="userSpaceOnUse"><path
         inkscape:connector-curvature="0"
         id="path7195"
         clip-rule="evenodd"
         d="m 69,463 0,8 9,0 0,-8" /></clipPath><clipPath
       id="clipPath7205"
       clipPathUnits="userSpaceOnUse"><path
         inkscape:connector-curvature="0"
         id="path7207"
         clip-rule="evenodd"
         d="m -1.91,-1.53 0,10 11,0 0,-10" /></clipPath><clipPath
       id="clipPath7243"
       clipPathUnits="userSpaceOnUse"><path
         inkscape:connector-curvature="0"
         id="path7245"
         clip-rule="evenodd"
         d="m 154,463 0,8 8,0 0,-8" /></clipPath><clipPath
       id="clipPath7255"
       clipPathUnits="userSpaceOnUse"><path
         inkscape:connector-curvature="0"
         id="path7257"
         clip-rule="evenodd"
         d="m -1.541,-1.53 0,10 10,0 0,-10" /></clipPath><clipPath
       id="clipPath7293"
       clipPathUnits="userSpaceOnUse"><path
         inkscape:connector-curvature="0"
         id="path7295"
         clip-rule="evenodd"
         d="m 240,463 0,8 5,0 0,-8" /></clipPath><clipPath
       id="clipPath7305"
       clipPathUnits="userSpaceOnUse"><path
         inkscape:connector-curvature="0"
         id="path7307"
         clip-rule="evenodd"
         d="m -2.047,-1.53 0,10 7,0 0,-10" /></clipPath><clipPath
       id="clipPath7339"
       clipPathUnits="userSpaceOnUse"><path
         inkscape:connector-curvature="0"
         id="path7341"
         clip-rule="evenodd"
         d="m 325,463 0,8 5,0 0,-8" /></clipPath><clipPath
       id="clipPath7351"
       clipPathUnits="userSpaceOnUse"><path
         inkscape:connector-curvature="0"
         id="path7353"
         clip-rule="evenodd"
         d="m -1.678,-1.53 0,10 7,0 0,-10" /></clipPath><clipPath
       id="clipPath7385"
       clipPathUnits="userSpaceOnUse"><path
         inkscape:connector-curvature="0"
         id="path7387"
         clip-rule="evenodd"
         d="m 409,463 0,8 5,0 0,-8" /></clipPath><clipPath
       id="clipPath7397"
       clipPathUnits="userSpaceOnUse"><path
         inkscape:connector-curvature="0"
         id="path7399"
         clip-rule="evenodd"
         d="m -2.309,-1.53 0,10 7,0 0,-10" /></clipPath><clipPath
       id="clipPath7431"
       clipPathUnits="userSpaceOnUse"><path
         inkscape:connector-curvature="0"
         id="path7433"
         clip-rule="evenodd"
         d="m 494,463 0,8 5,0 0,-8" /></clipPath><clipPath
       id="clipPath7443"
       clipPathUnits="userSpaceOnUse"><path
         inkscape:connector-curvature="0"
         id="path7445"
         clip-rule="evenodd"
         d="m -1.94,-1.53 0,10 7,0 0,-10" /></clipPath><clipPath
       id="clipPath7465"
       clipPathUnits="userSpaceOnUse"><path
         inkscape:connector-curvature="0"
         id="path7467"
         clip-rule="evenodd"
         d="m 34,428 0,9 12,0 0,-9" /></clipPath><clipPath
       id="clipPath7477"
       clipPathUnits="userSpaceOnUse"><path
         inkscape:connector-curvature="0"
         id="path7479"
         clip-rule="evenodd"
         d="m -2.28,-1.823 0,11 14,0 0,-11" /></clipPath><clipPath
       id="clipPath7515"
       clipPathUnits="userSpaceOnUse"><path
         inkscape:connector-curvature="0"
         id="path7517"
         clip-rule="evenodd"
         d="m 37,328 0,9 9,0 0,-9" /></clipPath><clipPath
       id="clipPath7527"
       clipPathUnits="userSpaceOnUse"><path
         inkscape:connector-curvature="0"
         id="path7529"
         clip-rule="evenodd"
         d="m -2.28,-1.804 0,11 11,0 0,-11" /></clipPath><clipPath
       id="clipPath7565"
       clipPathUnits="userSpaceOnUse"><path
         inkscape:connector-curvature="0"
         id="path7567"
         clip-rule="evenodd"
         d="m 41,228 0,9 5,0 0,-9" /></clipPath><clipPath
       id="clipPath7577"
       clipPathUnits="userSpaceOnUse"><path
         inkscape:connector-curvature="0"
         id="path7579"
         clip-rule="evenodd"
         d="m -2.03,-1.786 0,11 7,0 0,-11" /></clipPath><clipPath
       id="clipPath7611"
       clipPathUnits="userSpaceOnUse"><path
         inkscape:connector-curvature="0"
         id="path7613"
         clip-rule="evenodd"
         d="m 41,128 0,9 5,0 0,-9" /></clipPath><clipPath
       id="clipPath7623"
       clipPathUnits="userSpaceOnUse"><path
         inkscape:connector-curvature="0"
         id="path7625"
         clip-rule="evenodd"
         d="m -2.03,-1.768 0,11 7,0 0,-11" /></clipPath><clipPath
       id="clipPath7657"
       clipPathUnits="userSpaceOnUse"><path
         inkscape:connector-curvature="0"
         id="path7659"
         clip-rule="evenodd"
         d="m 38,28 0,8 8,0 0,-8" /></clipPath><clipPath
       id="clipPath7669"
       clipPathUnits="userSpaceOnUse"><path
         inkscape:connector-curvature="0"
         id="path7671"
         clip-rule="evenodd"
         d="m -2.03,-1.749 0,10 10,0 0,-10" /></clipPath><clipPath
       id="clipPath7887"
       clipPathUnits="userSpaceOnUse"><path
         inkscape:connector-curvature="0"
         id="path7889"
         clip-rule="evenodd"
         d="m 46,2 0,460 460,0 0,-460" /></clipPath></defs><g
     transform="matrix(1.25,0,0,1.25,-44.1,-233.51919)"
     inkscape:label="output_addition_general"
     inkscape:groupmode="layer"
     id="g6957"><g
   transform="translate(-3.2,2.4)"
   style="stroke:#000000;stroke-width:0.80000001;stroke-miterlimit:4;stroke-opacity:1;stroke-dasharray:none"
   id="g11205"><path
     inkscape:connector-curvature="0"
     id="path7005"
     style="fill:none;stroke:#000000;stroke-width:0.80000001;stroke-linecap:square;stroke-linejoin:miter;stroke-miterlimit:4;stroke-opacity:1;stroke-dasharray:none"
     d="m 447.76689,455.56952 -0.30015,-0.57508 -0.10155,-0.19622 -0.20668,-0.39831 -0.19771,-0.38299 -0.19321,-0.37533 -0.08,-0.1532 -0.23454,-0.4484 -0.32711,-0.62694 -0.12401,-0.23392 -0.0575,-0.11549 -0.17523,-0.33998 -0.3352,-0.6346 -0.12042,-0.21978 -0.23095,-0.45016 -0.15906,-0.30463 -0.30105,-0.55505 -0.21208,-0.41835 -0.38192,-0.72239 -0.089,-0.16852 -0.0422,-0.0819 -0.12581,-0.23981 -0.39091,-0.73181 -0.14198,-0.25632 -0.27499,-0.5303 -0.0979,-0.18502 -0.32711,-0.59393 -0.19231,-0.37534 -0.46011,-0.86144 -0.0395,-0.073 -0.018,-0.0354 -0.0539,-0.10252 -0.4682,-0.86499 -0.17254,-0.30698 -0.33609,-0.64049 -0.0117,-0.0212 -0.0108,-0.0194 -0.34238,-0.62811 -0.17164,-0.3176 -0.48437,-0.8962 -0.0387,-0.0707 -0.0153,-0.0253 -0.0288,-0.0542 -0.48347,-0.88384 -0.21118,-0.3718 -0.31543,-0.59276 -0.10604,-0.19327 -0.29476,-0.52322 -0.1285,-0.24571 -0.37564,-0.68703 -0.15367,-0.27576 -0.0593,-0.10135 -0.11772,-0.21742 -0.35586,-0.64167 -0.24803,-0.45017 -0.0638,-0.11725 -0.22016,-0.39302 -0.25522,-0.45664 -0.19051,-0.34293 -0.089,-0.15968 -0.24353,-0.44192 -0.29206,-0.51675 -0.11323,-0.19149 -0.22736,-0.41423 -0.19591,-0.35177 -0.31632,-0.54326 -0.22376,-0.41305 -0.43315,-0.76834 -0.0737,-0.12846 -0.0315,-0.0595 -0.0908,-0.16204 -0.45202,-0.79133 -0.17613,-0.29696 -0.35856,-0.64697 -0.006,-0.0112 -0.005,-0.009 -0.36935,-0.64167 -0.17164,-0.3005 -0.45741,-0.80371 -0.0872,-0.14848 -0.0342,-0.0572 -0.0719,-0.12668 -0.44213,-0.76658 -0.24983,-0.41658 -0.29835,-0.53325 -0.22826,-0.39183 -0.22735,-0.38418 -0.0953,-0.17264 -0.2633,-0.45841 -0.28847,-0.48965 -0.11592,-0.18914 -0.24264,-0.42424 -0.19411,-0.33351 -0.33429,-0.5515 -0.22197,-0.3942 -0.49785,-0.84848 -0.0386,-0.0672 -0.018,-0.03 -0.0458,-0.079 -0.51312,-0.8638 -0.20849,-0.33704 -0.34957,-0.6069 -0.0944,-0.15732 -0.3325,-0.54503 -0.1357,-0.23864 -0.36305,-0.61515 -0.1986,-0.32584 -0.0818,-0.13022 -0.17613,-0.29933 -0.30644,-0.51027 -0.23635,-0.39654 -0.0629,-0.10371 -0.266,-0.43838 -0.43225,-0.71532 -0.0935,-0.15555 -0.0404,-0.0678 -0.10334,-0.17382 -0.4664,-0.76246 -0.19501,-0.3058 -0.37384,-0.63106 -0.0494,-0.0801 -0.37474,-0.59865 -0.14917,-0.25455 -0.38912,-0.64048 -0.18332,-0.29403 -0.0782,-0.12019 -0.17254,-0.2846 -0.32442,-0.52736 -0.31902,-0.49789 -0.25791,-0.43367 -0.461,-0.74478 -0.0818,-0.13081 -0.0342,-0.0559 -0.0845,-0.13905 -0.49606,-0.78957 -0.21297,-0.32525 -0.36665,-0.60395 -0.10964,-0.17324 -0.34238,-0.53265 -0.1321,-0.22096 -0.3379,-0.54209 -0.24622,-0.38476 -0.10874,-0.16145 -0.24264,-0.39183 -0.23454,-0.3724 -0.16625,-0.26514 -0.18063,-0.28048 -0.24174,-0.37828 -0.57603,-0.90799 -0.0108,-0.0165 -0.005,-0.007 -0.0108,-0.0171 -0.57693,-0.89679 -0.2651,-0.39537 -0.32621,-0.52618 -0.29026,-0.44722 -0.22107,-0.33645 -0.0827,-0.1367 -0.20848,-0.3276 -0.38822,-0.591 -0.17344,-0.25395 -0.399,-0.63047 -0.0225,-0.0348 -0.0153,-0.0242 -0.40888,-0.62046 -0.17704,-0.27104 -0.41338,-0.63813 -0.18602,-0.2787 -0.0854,-0.12198 -0.1986,-0.30816 -0.31812,-0.48434 -0.35317,-0.51675 -0.25072,-0.39714 -0.6003,-0.90917 -0.002,-0.003 -9e-4,-8.6e-4 -0.002,-0.003 -0.60749,-0.9074 -0.27678,-0.39832 -0.3307,-0.51321 -0.33879,-0.50497 -0.19501,-0.29107 -0.0755,-0.11373 -0.17343,-0.26456 -0.43854,-0.64401 -0.204,-0.28755 -0.40708,-0.62163 -0.0827,-0.12079 -0.39361,-0.56742 -0.13929,-0.21743 -0.3325,-0.49671 -0.28307,-0.40951 -0.1339,-0.18561 -0.32441,-0.48611 -0.15816,-0.23392 -0.0988,-0.14731 -0.30644,-0.4425 -0.21478,-0.31288 -0.47718,-0.70354 -0.14109,-0.20033 -0.0683,-0.0925 -0.16715,-0.24688 -0.38731,-0.56272 -0.35856,-0.50025 -0.2642,-0.40066 -0.61109,-0.8862 -0.0108,-0.0153 -0.005,-0.008 -0.0144,-0.0194 -0.60838,-0.87146 -0.28937,-0.41835 -0.0701,-0.10311 -0.266,-0.3771 -0.45112,-0.64461 -0.12851,-0.18502 -0.0476,-0.0689 -0.10604,-0.15496 -0.52481,-0.74124 -0.25432,-0.3447 -0.37473,-0.5527 -0.2696,-0.38064 -0.27049,-0.37592 -0.0917,-0.13906 -0.21118,-0.30698 -0.42147,-0.58746 -0.20669,-0.27635 -0.42506,-0.61927 -0.0952,-0.13375 -0.39721,-0.55623 -0.14288,-0.20269 -0.30914,-0.44427 -0.32621,-0.44899 -0.16175,-0.21389 -0.40529,-0.58569 -0.0665,-0.0949 -0.4628,-0.62929 -0.17524,-0.26162 -0.399,-0.56919 -0.23724,-0.32348 -0.11863,-0.15496 -0.30104,-0.43014 -0.21747,-0.30699 -0.12492,-0.17853 -0.28667,-0.39419 -0.22735,-0.31759 -0.48437,-0.68704 -0.15188,-0.20564 -0.0773,-0.0996 -0.19411,-0.27752 -0.36664,-0.5138 -0.38642,-0.51793 -0.25252,-0.37298 -0.56885,-0.80252 -0.0665,-0.0901 -0.035,-0.0442 -0.0863,-0.12315 -0.51763,-0.72357 -0.34687,-0.46313 -0.29027,-0.42896 -0.5976,-0.84317 -0.0261,-0.0371 -0.01,-0.0142 -0.0207,-0.0306 -0.61647,-0.86085 -0.30195,-0.40421 -0.3307,-0.49083 -0.43225,-0.61161 -0.14918,-0.20682 -0.0494,-0.0772 -0.11772,-0.17324 -0.51403,-0.72239 -0.25162,-0.33704 -0.37474,-0.56152 -0.24263,-0.34529 -0.28038,-0.40303 -0.10335,-0.15084 -0.23095,-0.34528 -0.39181,-0.55623 -0.19051,-0.25691 -0.42596,-0.64814 -0.0171,-0.0248 -0.44933,-0.63696 -0.15187,-0.24335 -0.37024,-0.56447 -0.23994,-0.3447 -0.11413,-0.15732 -0.25791,-0.40067 -0.23275,-0.35471 -0.15457,-0.23982 -0.21118,-0.31406 -0.23545,-0.36178 -0.55177,-0.86203 -0.0404,-0.0595 -0.0189,-0.0265 -0.0404,-0.0653 -0.5293,-0.83141 -0.27678,-0.41303 -0.30105,-0.51794 -0.28128,-0.45783 -0.21028,-0.33349 -0.0782,-0.14495 -0.22107,-0.38536 -0.33879,-0.55681 -0.14288,-0.22273 -0.2705,-0.49377 -0.133,-0.2351 -0.34777,-0.58038 -0.18872,-0.37711 -0.46011,-0.85732 -0.0395,-0.0754 -0.0189,-0.0371 -0.0566,-0.11549 -0.45023,-0.86203 -0.16445,-0.2952 -0.2615,-0.57449 -0.0584,-0.12256 -0.31003,-0.6122 -0.15816,-0.39007 -0.32441,-0.74242 -0.0809,-0.17736 -0.036,-0.10076 -0.15367,-0.39832 -0.2633,-0.63754 -0.0782,-0.17322 -0.0971,-0.28755 -0.21298,-0.59453 -0.16714,-0.42718 -0.18423,-0.65227 -0.003,-0.007 -0.19681,-0.6505 -0.12042,-0.44191 -0.1321,-0.51204 -0.0989,-0.35531 -0.0449,-0.26161 -0.18063,-0.90564 -0.027,-0.14259 -0.018,-0.11372 -0.17074,-1.19436 0,-0.002 0,-8.6e-4 -0.002,-0.023 -0.11233,-1.21203 -0.009,-0.073 0,-0.0795 -0.0351,-1.12835 -0.005,-0.10195 0.005,-0.10193 0.0351,-1.12837 0,-0.0795 0.009,-0.073 0.11233,-1.21204 0.002,-0.023 0,-8.7e-4 0,-0.002 0.17074,-1.19436 0.018,-0.11372 0.027,-0.14259 0.18063,-0.90564 0.0449,-0.26162 0.0989,-0.35529 0.1321,-0.51204 0.12042,-0.44192 0.19681,-0.6505 0.003,-0.007 0.18423,-0.65227 0.16714,-0.42719 0.21298,-0.59453 0.0971,-0.28753 0.0782,-0.17324 0.2633,-0.63754 0.15367,-0.39831 0.036,-0.10076 0.0809,-0.17735 0.32441,-0.74243 0.15816,-0.39006 0.31003,-0.61221 0.0584,-0.12255 0.27588,-0.5745 0.15007,-0.2952 0.18153,-0.36002 0.2687,-0.50555 0.0566,-0.11195 0.0189,-0.0371 0.0395,-0.0755 0.46011,-0.85732 0.18872,-0.3771 0.34777,-0.58039 0.133,-0.2351 0.2705,-0.49376 0.14288,-0.22274 0.33879,-0.55681 0.22107,-0.38536 0.0782,-0.14494 0.21028,-0.33351 0.28128,-0.45782 0.30105,-0.51793 0.27678,-0.41305 0.5293,-0.83139 0.0422,-0.0654 0.0171,-0.0265 0.0404,-0.0607 0.35946,-0.56742 0.19231,-0.29343 0.23545,-0.36178 0.21118,-0.31406 0.15457,-0.23982 0.23275,-0.35471 0.25791,-0.40067 0.11413,-0.15733 0.23994,-0.34469 0.37024,-0.56448 0.15187,-0.24335 0.44933,-0.63694 0.0171,-0.0248 0.01,-0.0148 0.42776,-0.63342 0.17883,-0.2569 0.27499,-0.39773 0.11682,-0.16498 0.23095,-0.3388 0.10335,-0.15085 0.28038,-0.40303 0.24263,-0.34528 0.37474,-0.56153 0.25162,-0.33703 0.51403,-0.72239 0.11772,-0.17324 0.0494,-0.0772 0.14918,-0.20681 0.43225,-0.61162 0.24982,-0.34882 0.0989,-0.142 0.28398,-0.40421 0.17703,-0.25101 0.43944,-0.61043 0.0207,-0.03 0.01,-0.0142 0.0261,-0.0371 0.5976,-0.84318 0.29027,-0.42895 0.34687,-0.46313 0.51763,-0.72357 0.0863,-0.12315 0.035,-0.0442 0.0665,-0.0901 0.56885,-0.80252 0.25252,-0.37298 0.38642,-0.51793 0.36664,-0.5138 0.19411,-0.27752 0.0773,-0.0996 0.15188,-0.20564 0.48437,-0.68703 0.21477,-0.31759 0.42417,-0.57273 0.21747,-0.30698 0.30104,-0.43014 0.11863,-0.15496 0.23724,-0.32349 0.399,-0.56919 0.17524,-0.26161 0.4628,-0.62929 0.0665,-0.0949 0.40529,-0.58568 0.16175,-0.2139 0.32621,-0.44898 0.30914,-0.44428 0.1348,-0.20269 0.40529,-0.55623 0.0952,-0.13375 0.42506,-0.61928 0.20669,-0.27635 0.42147,-0.58744 0.21118,-0.307 0.0917,-0.13905 0.27049,-0.37593 0.2696,-0.38064 0.37473,-0.55269 0.25432,-0.34469 0.52481,-0.74125 0.10604,-0.15497 0.0449,-0.0689 0.13121,-0.18501 0.45112,-0.64462 0.266,-0.3771 0.0701,-0.10311 0.28937,-0.41835 0.60838,-0.87147 0.0144,-0.0194 0.005,-0.008 0.0108,-0.0153 0.61109,-0.88619 0.2642,-0.40068 0.35856,-0.50024 0.38731,-0.56272 0.17075,-0.24688 0.0647,-0.0925 0.14109,-0.2021 0.24353,-0.36002 0.23365,-0.34174 0.21478,-0.31289 0.30644,-0.4425 0.0988,-0.14731 0.15816,-0.23392 0.32441,-0.48611 0.1339,-0.1856 0.28307,-0.40952 0.3325,-0.49671 0.13929,-0.21742 0.39361,-0.56743 0.0827,-0.12079 0.0512,-0.0742 0.36575,-0.54738 0.19411,-0.28754 0.24802,-0.36709 0.19052,-0.27929 0.17343,-0.26221 0.0755,-0.11372 0.19501,-0.29108 0.33879,-0.50496 0.3307,-0.51322 0.27678,-0.39831 0.60749,-0.90741 0.002,-0.003 9e-4,-8.6e-4 0.002,-0.003 0.6003,-0.90918 0.25072,-0.39713 0.35317,-0.51675 0.31812,-0.48434 0.1986,-0.30817 0.0854,-0.12196 0.18602,-0.27871 0.41338,-0.63813 0.16895,-0.27104 0.43225,-0.64461 0.0225,-0.0348 0.399,-0.63047 0.17344,-0.25396 0.38822,-0.59099 0.20848,-0.32761 0.0827,-0.1367 0.22107,-0.33644 0.29026,-0.44723 0.32621,-0.52618 0.2651,-0.39536 0.57693,-0.8968 0.0117,-0.0171 0.005,-0.007 0.0108,-0.0165 0.399,-0.63165 0.17703,-0.27634 0.24174,-0.37829 0.18063,-0.28046 0.16625,-0.26516 0.23454,-0.37239 0.24264,-0.39183 0.10874,-0.16145 0.24622,-0.38477 0.3379,-0.54208 0.1321,-0.22096 0.34238,-0.53266 0.10964,-0.17323 0.0764,-0.12079 0.29925,-0.48317 0.20399,-0.32525 0.20579,-0.32937 0.29027,-0.46077 0.0845,-0.13847 0.0342,-0.056 0.0818,-0.1308 0.461,-0.74479 0.25791,-0.43366 0.31902,-0.49789 0.32442,-0.52737 0.17254,-0.28459 0.0782,-0.1202 0.18332,-0.29402 0.38912,-0.64049 0.14917,-0.25455 0.37474,-0.59864 0.0494,-0.0801 0.37384,-0.63106 0.19501,-0.30581 0.4664,-0.76245 0.10334,-0.17383 0.0386,-0.0678 0.0953,-0.15556 0.43225,-0.71531 0.266,-0.43838 0.0629,-0.10371 0.23635,-0.39654 0.30644,-0.51027 0.17613,-0.29933 0.0818,-0.13022 0.1986,-0.32584 0.36305,-0.61515 0.1357,-0.23863 0.3325,-0.54504 0.0944,-0.15732 0.0728,-0.12079 0.28577,-0.48611 0.1995,-0.33703 0.18781,-0.31819 0.32531,-0.5462 0.0458,-0.0784 0.018,-0.03 0.0386,-0.0672 0.49785,-0.84849 0.22197,-0.39419 0.33429,-0.55151 0.19411,-0.33349 0.24264,-0.42425 0.11592,-0.18914 0.28847,-0.48965 0.2633,-0.45841 0.0953,-0.17264 0.22735,-0.38418 0.22826,-0.39183 0.29835,-0.53325 0.24983,-0.41658 0.44213,-0.76658 0.0728,-0.12668 0.0333,-0.0572 0.0872,-0.14907 0.25432,-0.4484 0.20309,-0.35471 0.17164,-0.30051 0.36935,-0.64166 0.005,-0.009 0.006,-0.0112 0.35856,-0.64698 0.17613,-0.29696 0.45202,-0.79133 0.0908,-0.16204 0.0315,-0.0595 0.0737,-0.12845 0.43315,-0.76835 0.22376,-0.41305 0.31632,-0.54326 0.19591,-0.35177 0.22736,-0.41422 0.11323,-0.19149 0.29206,-0.51675 0.24353,-0.44193 0.0845,-0.15967 0.19501,-0.34293 0.25522,-0.45665 0.22016,-0.39301 0.0638,-0.11726 0.24803,-0.45017 0.35586,-0.64166 0.11772,-0.21742 0.0593,-0.10135 0.15367,-0.27576 0.37564,-0.68703 0.1285,-0.24571 0.29476,-0.52323 0.10604,-0.19327 0.31543,-0.59276 0.21118,-0.37179 0.48347,-0.88385 0.0288,-0.0542 0.0153,-0.0253 0.0387,-0.0707 0.48437,-0.8962 0.16445,-0.3176 0.36036,-0.64755 0.0117,-0.0212 0.33609,-0.64048 0.17254,-0.30699 0.4682,-0.86499 0.0539,-0.10252 0.018,-0.0353 0.0395,-0.073 0.46011,-0.86144 0.19231,-0.37534 0.32711,-0.59393 0.0979,-0.18502 0.28038,-0.5303 0.13659,-0.25632 0.21208,-0.3989 0.17883,-0.3335 0.12581,-0.23922 0.0422,-0.0819 0.089,-0.16853 0.38192,-0.72238 0.21208,-0.41835 0.30105,-0.55505 0.15906,-0.30463 0.23095,-0.45017 0.12042,-0.21978 0.3352,-0.63459 0.17523,-0.33999 0.0575,-0.11548 0.12401,-0.23393 0.32711,-0.62693 0.23454,-0.4484 0.08,-0.1532 0.19321,-0.37533 0.19771,-0.383 0.20668,-0.39831 0.10155,-0.19621 0.23814,-0.45842 0.062,-0.11784" /><path
     inkscape:connector-curvature="0"
     id="path7007"
     style="fill:none;stroke:#000000;stroke-width:0.80000001;stroke-linecap:square;stroke-linejoin:miter;stroke-miterlimit:4;stroke-opacity:1;stroke-dasharray:none"
     d="m 81.81789,346.754 -0.353168,-0.14023 -0.213879,-0.0855 -0.982221,-0.42954 -0.0099,-0.004 -0.0072,-0.003 -0.04583,-0.023 -1.081972,-0.53973 -0.868992,-0.48611 -0.204892,-0.11902 -0.222864,-0.13435 -0.57154,-0.35706 -0.223763,-0.15143 -0.774634,-0.54209 -0.186919,-0.13612 -0.150973,-0.12314 -0.758458,-0.5904 -0.594905,-0.51852 -0.226459,-0.20033 -0.03505,-0.0294 -0.04493,-0.0424 -0.754864,-0.74301 -0.444831,-0.49495 -0.307337,-0.32171 -0.489763,-0.5798 -0.216574,-0.26574 -0.101547,-0.1426 -0.325311,-0.42188 -0.231851,-0.31406 -0.367546,-0.57331 -0.236345,-0.33998 -0.518519,-0.85673 -0.04763,-0.0819 -0.01618,-0.0313 -0.03595,-0.0654 -0.453817,-0.88089 -0.178831,-0.36355 -0.266,-0.58039 -0.02516,-0.0577 -0.01887,-0.0448 -0.230054,-0.62634 -0.157263,-0.37181 -0.256115,-0.73417 -0.0692,-0.20387 -0.04044,-0.13257 -0.202195,-0.70766 -0.109635,-0.39773 -0.01438,-0.0713 -0.02606,-0.099 -0.209384,-0.97516 -0.03505,-0.23569 -0.06111,-0.29873 -0.09885,-0.64697 -0.03325,-0.36414 -0.06201,-0.42601 -0.03954,-0.43131 -0.01438,-0.45194 -0.04224,-0.48906 -0.0099,-0.32525 0.01348,-0.49554 -0.01348,-0.49554 0.0099,-0.32524 0.04224,-0.48906 0.01438,-0.45194 0.03954,-0.43131 0.06201,-0.42601 0.03325,-0.36413 0.09885,-0.64697 0.06111,-0.29874 0.03505,-0.23569 0.209384,-0.97517 0.02247,-0.099 0.01797,-0.0713 0.109635,-0.42542 0.04314,-0.15791 0.15906,-0.52205 0.04044,-0.13258 0.0692,-0.20387 0.256115,-0.73417 0.157263,-0.3718 0.230054,-0.62635 0.01887,-0.0448 0.02516,-0.0578 0.266,-0.58038 0.178831,-0.36355 0.453817,-0.88089 0.03595,-0.0654 0.01618,-0.0312 0.04763,-0.0819 0.518519,-0.85674 0.236345,-0.33998 0.367546,-0.57332 0.231851,-0.31405 0.325311,-0.42188 0.101547,-0.1426 0.216574,-0.26573 0.489763,-0.5798 0.307337,-0.32172 0.444831,-0.49495 0.754864,-0.74301 0.04493,-0.0424 0.03505,-0.0294 0.226459,-0.20034 0.594905,-0.51851 0.758458,-0.5904 0.150973,-0.12316 0.186919,-0.1361 0.774634,-0.54209 0.811478,-0.5085 0.206689,-0.13434 0.204892,-0.11903 0.868992,-0.4861 1.081972,-0.53974 0.04583,-0.023 0.0072,-0.003 0.01078,-0.004 1.195201,-0.51498 0.353168,-0.14023 0.431351,-0.16617 0.487067,-0.1691 0.993904,-0.31937 0.344182,-0.11312 0.171641,-0.0495 0.427757,-0.11784 0.571539,-0.15379 0.247128,-0.0584 0.68477,-0.16204 0.0665,-0.0153 0.03415,-0.008 0.709932,-0.14436 0.254317,-0.0489 0.453817,-0.0813 0.07279,-0.0124 0.106041,-0.0177 0.366648,-0.0595 0.333398,-0.0495 0.421466,-0.059 0.243533,-0.033 0.163554,-0.0194 0.336094,-0.0407 0.08627,-0.01 0.390912,-0.0419 0.02157,-0.003 0.01708,-0.002 0.113229,-0.0106 0.369344,-0.0348 0.06111,-0.005 0.335196,-0.0271 0.103344,-0.009 0.129405,-0.009 0.216575,-0.0154 0.15277,-0.009 0.18602,-0.0117 0.117722,-0.007 0.195906,-0.01 0.229155,-0.0117 0.03864,-0.002 0.231852,-0.009 0.240837,-0.009 0.257912,-0.008 0.282175,-0.008 0.423263,-0.008 0.293858,-0.003 0.299249,-5.9e-4 0.402594,0.002 0.296554,0.003 0.283973,0.005 0.447526,0.0112 0.266898,0.009 0.240838,0.009 0.555364,0.0248 0.203094,0.0112 0.172541,0.009 0.723411,0.0459 0.102446,0.008 0.08088,0.007 0.664999,0.053 0.25252,0.0212 0.03684,0.003 0.804283,0.0795 0.15816,0.0171 0.22017,0.0236 0.47449,0.0548 0.30374,0.0383 0.44573,0.0548 0.089,0.0118 0.4637,0.0654 0.72611,0.10665 0.27229,0.0401 0.16984,0.0277 0.69016,0.11136 0.13929,0.023 0.75576,0.13611 0.68118,0.12786 0.55986,0.11195 0.30194,0.0578 0.9301,0.19797 0.57603,0.12433 0.18962,0.0448 0.3954,0.0896 0.88607,0.21094 0.71622,0.18502 0.72431,0.17971 0.92831,0.24924 0.34418,0.0955 0.14198,0.0377 0.3316,0.0931 0.52571,0.15203 0.52751,0.15673 0.47089,0.13964 0.67668,0.20623 0.21747,0.0684 0.40889,0.1314 0.69465,0.22744 0.70005,0.22745 0.85282,0.29107 0.44393,0.16145 0.85641,0.29579 0.64703,0.23745 0.49425,0.18443 0.13839,0.0489 0.24354,0.0907 0.61647,0.23804 0.399,0.15556 0.60029,0.23392 0.0692,0.0271 0.57244,0.23392 1.02715,0.4207 0.1986,0.0849 0.12941,0.0589 0.61917,0.26279 0.45831,0.1968 0.92021,0.41717 0.2678,0.11372 0.39091,0.17559 0.77913,0.3665 0.55896,0.27753 0.5949,0.27634 0.79441,0.38948 0.34058,0.17558 0.2678,0.14613 0.84832,0.43132 1.03614,0.55622 0.0602,0.0348 0.053,0.0294 0.68927,0.38831 0.3325,0.18678 0.97503,0.5792 0.0764,0.0413 0.0854,0.0501 0.94089,0.58628 0.89505,0.58981 0.10604,0.0642 0.10784,0.0695 0.8627,0.60336 0.92111,0.68232 0.0171,0.0117 0.0162,0.0118 0.15547,0.12374 0.72701,0.58509 0.70184,0.60101 0.15277,0.14849 0.22646,0.23509 0.57693,0.54739 0.36305,0.37828 0.0593,0.0695 0.32172,0.37416 0.6668,0.86027 0.004,0.006 0.002,0.003 0.004,0.006 0.56705,0.92979 0.20399,0.3718 0.25432,0.63754 0.0153,0.0448 0.1959,0.62693 0.0728,0.45135 0.0512,0.44073 0.0315,0.41776 -0.0315,0.41776 -0.0512,0.44074 -0.0728,0.45135 -0.1959,0.62694 -0.0153,0.0448 -0.25432,0.63754 -0.20399,0.3718 -0.56705,0.9298 -0.004,0.006 -0.002,0.003 -0.004,0.006 -0.6668,0.86027 -0.37204,0.44368 -0.37204,0.37828 -0.57693,0.54739 -0.22646,0.23511 -0.15277,0.14848 -0.70184,0.60101 -0.72701,0.5851 -0.15547,0.12374 -0.0162,0.0117 -0.0171,0.0117 -0.92111,0.68233 -0.8627,0.60336 -0.10784,0.0695 -0.10604,0.0642 -0.89505,0.58981 -0.94089,0.58628 -0.0854,0.0501 -0.0764,0.0413 -0.97503,0.57921 -0.3325,0.18678 -0.68927,0.38654 -0.053,0.0312 -0.0602,0.0348 -1.03614,0.55622 -0.84832,0.43132 -0.2678,0.14613 -0.34058,0.17558 -0.79441,0.38948 -0.5949,0.27635 -0.55896,0.27752 -0.77913,0.3665 -0.39091,0.17558 -0.2678,0.11372 -0.92021,0.41718 -0.45831,0.19679 -0.61917,0.2628 -0.12941,0.059 -0.1986,0.0849 -1.02715,0.4207 -0.57244,0.23392 -0.0692,0.0271 -0.60029,0.23392 -1.01727,0.39361 -0.24174,0.0907 -0.13839,0.0513 -0.49425,0.18207 -0.64703,0.23746 -0.85641,0.29579 -0.44393,0.16145 -0.85281,0.29108 -0.4646,0.15437 -0.23545,0.073 -0.69465,0.22745 -0.40889,0.13139 -0.21748,0.0684 -0.67668,0.20624 -0.47089,0.13964 -1.05951,0.30876 -0.32531,0.0931 -0.14198,0.0395 -0.34418,0.0937 -0.92831,0.24924 -0.72431,0.17971 -0.71622,0.18502 -0.88607,0.21095 -0.3954,0.0896 -0.18962,0.0448 -0.57603,0.12432 -0.9301,0.19798 -0.30194,0.0577 -0.55986,0.11195 -0.68118,0.12786 -0.75576,0.13612 -0.13929,0.023 -0.69016,0.11136 -0.16984,0.0277 -0.27229,0.0401 -0.72611,0.10665 -0.4637,0.0654 -0.089,0.0117 -0.44573,0.0548 -0.30374,0.0383 -0.47449,0.0548 -0.22017,0.0236 -0.15816,0.0171 -0.804283,0.0795 -0.03684,0.003 -0.02786,0.003 -0.224662,0.0183 -0.664999,0.053 -0.08088,0.006 -0.102446,0.008 -0.723411,0.0459 -0.172541,0.009 -0.203094,0.0112 -0.555364,0.0248 -0.240838,0.009 -0.266898,0.009 -0.447526,0.0112 -0.283973,0.005 -0.296554,0.003 -0.402594,0.002 -0.299249,-5.9e-4 -0.293858,-0.003 -0.423263,-0.008 -0.282175,-0.007 -0.257912,-0.009 -0.513128,-0.0206 -0.227357,-0.01 -0.194108,-0.0112 -0.675783,-0.043 -0.128507,-0.009 -0.103344,-0.009 -0.335196,-0.0271 -0.06111,-0.005 -0.04673,-0.004 -0.203095,-0.0188 -0.124013,-0.0117 -0.108736,-0.0106 -0.01708,-0.002 -0.02157,-0.003 -0.390912,-0.0419 -0.08627,-0.01 -0.123115,-0.0142 -0.214776,-0.0259 -0.161757,-0.02 -0.243533,-0.033 -0.256115,-0.0348 -0.165351,-0.0242 -0.333398,-0.0495 -0.366648,-0.0595 -0.106041,-0.0177 -0.07279,-0.0123 -0.453817,-0.0813 -0.254317,-0.0489 -0.709932,-0.14435 -0.03415,-0.008 -0.0665,-0.0153 -0.68477,-0.16204 -0.247128,-0.0584 -0.571539,-0.15378 -0.427757,-0.11785 -0.171641,-0.0495 -0.344182,-0.11313 -0.993904,-0.31936 -0.487067,-0.16911 -0.431351,-0.16615" /><path
     inkscape:connector-curvature="0"
     id="path7009"
     style="fill:none;stroke:#000000;stroke-width:0.80000001;stroke-linecap:square;stroke-linejoin:miter;stroke-miterlimit:4;stroke-opacity:1;stroke-dasharray:none"
     d="m 242.03774,338.54965 -0.35587,-0.0749 -0.64253,-0.13551 -0.45022,-0.0978 -0.40619,-0.0937 -0.14199,-0.0365 -0.30284,-0.0684 -1.01817,-0.24511 -0.67668,-0.18502 -0.75936,-0.18324 -0.82316,-0.22568 -0.41427,-0.11961 -0.16805,-0.0424 -0.38193,-0.11018 -0.98941,-0.3005 -0.45831,-0.15556 -0.88966,-0.27046 -0.45651,-0.15614 -0.65152,-0.22332 -0.2022,-0.0707 -0.37563,-0.13316 -0.90134,-0.33939 -0.51762,-0.21801 -0.72881,-0.27458 -1.1305,-0.47727 -0.13839,-0.066 -0.3316,-0.15144 -0.78002,-0.36355 -0.88607,-0.46136 -0.23814,-0.11136 -0.29835,-0.15614 -0.77913,-0.44663 -0.68118,-0.44074 -0.34238,-0.19799 -0.34418,-0.2239 -0.61737,-0.45488 -0.69376,-0.58215 -0.19411,-0.14555 -0.14917,-0.12727 -0.63175,-0.6399 -0.018,-0.0183 -0.005,-0.007 -0.52031,-0.64461 -0.13929,-0.22213 -0.33879,-0.66642 -0.17524,-0.30639 -0.0512,-0.11432 -0.0485,-0.1803 -0.16086,-0.84436 -0.0261,-0.28518 0.0261,-0.28518 0.16086,-0.84436 0.0485,-0.1803 0.0512,-0.11432 0.17524,-0.30639 0.33879,-0.66641 0.13929,-0.22214 0.52571,-0.65168 0.018,-0.0183 0.63175,-0.6399 0.14917,-0.12727 0.19411,-0.14554 0.69376,-0.58215 0.61737,-0.45489 0.34418,-0.2239 0.34238,-0.19798 0.68118,-0.44074 0.77913,-0.44663 0.29835,-0.15614 0.23814,-0.11136 0.88607,-0.46137 0.78002,-0.36355 0.3316,-0.15143 0.0566,-0.0288 0.0818,-0.0371 1.1305,-0.47727 0.72881,-0.27458 0.51762,-0.21802 0.90134,-0.33938 0.37563,-0.13317 0.2022,-0.0636 0.65152,-0.23038 0.45651,-0.15615 0.88966,-0.27045 0.45831,-0.15556 0.98941,-0.3005 0.38193,-0.11019 0.16805,-0.0424 0.41427,-0.11961 0.82316,-0.22567 0.75936,-0.18325 0.67668,-0.18502 1.01817,-0.24512 0.30284,-0.0719 0.14199,-0.033 0.41607,-0.0937 1.08287,-0.23333 0.35587,-0.0749 0.67938,-0.1367 0.49066,-0.0978 0.82765,-0.14142 0.7333,-0.14436 0.71532,-0.12137 0.54907,-0.0843 0.32981,-0.059 1.42975,-0.21624 0.1941,-0.0283 0.0431,-0.005 0.0665,-0.009 1.56095,-0.19974 0.37024,-0.0389 0.5302,-0.0666 0.8034,-0.0872 0.6641,-0.0684 0.89415,-0.083 0.18332,-0.0159 0.91932,-0.0601 0.87259,-0.0749 0.27948,-0.0177 0.84562,-0.0495 0.71712,-0.0348 0.6021,-0.0259 0.67848,-0.0253 0.38102,-0.0142 0.22646,-0.006 0.39091,-0.007 0.41788,-0.0112 0.15906,-0.003 0.42146,-0.003 0.43585,-0.007 0.12581,-5.9e-4 0.43674,0.003 0.43674,-0.002 0.12761,5.9e-4 0.43494,0.007 0.41967,0.003 0.16356,0.003 0.41517,0.0118 0.38732,0.007 0.23544,0.007 0.37564,0.0148 0.33879,0.01 0.34328,0.0142 0.31723,0.0159 0.27498,0.0112 0.48797,0.0259 0.23544,0.0148 0.1977,0.0106 0.6695,0.043 0.1312,0.01 0.10604,0.007 0.89146,0.0684 0.002,5.8e-4 0.0108,5.9e-4 0.8663,0.0795 0.28487,0.0283 0.83484,0.0866 0.5967,0.0695 0.99301,0.12373 0.40798,0.0578 1.44952,0.20977 0.44393,0.0684 0.10425,0.0188 0.17703,0.0294 1.28776,0.23215 0.532,0.11255 0.99121,0.18855 0.0117,0.003 0.9948,0.23687 0.48078,0.10488 1.2608,0.31523 0.18333,0.0478 0.0719,0.0194 0.18063,0.0513 1.13768,0.32703 0.67938,0.22155 0.67129,0.20268 1.28507,0.44016 0.027,0.009 0.0144,0.006 0.0548,0.0206 1.18622,0.4596 0.75576,0.3282 0.45741,0.1862 0.65601,0.29991 0.51133,0.24452 0.37294,0.20034 0.74498,0.37592 0.86091,0.48847 0.20489,0.12256 0.18692,0.12669 0.82046,0.52264 0.74857,0.53796 0.19681,0.15143 0.23095,0.20269 0.64613,0.53207 0.45022,0.42306 0.35137,0.36119 0.54997,0.64992 0.16805,0.18856 0.0854,0.11018 0.20669,0.30168 0.31812,0.49731 0.2705,0.51085 0.21298,0.48199 0.15456,0.44663 0.10874,0.38064 0.0548,0.27399 0.0952,0.82432 0.009,0.21153 -0.009,0.21154 -0.0952,0.82432 -0.0548,0.27399 -0.10874,0.38063 -0.15456,0.44664 -0.21298,0.48199 -0.2705,0.51085 -0.31812,0.49731 -0.20669,0.30168 -0.0854,0.11018 -0.16805,0.18856 -0.54997,0.64991 -0.35137,0.36119 -0.45022,0.42306 -0.64613,0.53208 -0.23095,0.20269 -0.19681,0.15143 -0.74857,0.53797 -0.82046,0.52263 -0.18692,0.12669 -0.20489,0.12256 -0.86091,0.48846 -0.74498,0.37593 -0.37294,0.20033 -0.51133,0.24453 -0.65601,0.29991 -0.45741,0.1862 -0.75576,0.3282 -1.18622,0.4596 -0.0548,0.0206 -0.0144,0.006 -0.027,0.009 -1.28507,0.44015 -0.67129,0.20269 -0.67938,0.22155 -1.13768,0.32702 -0.18063,0.0495 -0.0719,0.0212 -0.18333,0.0477 -1.2608,0.31523 -0.48078,0.10489 -0.9948,0.23686 -0.0117,0.003 -0.99121,0.20034 -0.532,0.10075 -1.28776,0.23216 -0.17703,0.0294 -0.10425,0.0188 -0.44393,0.0684 -1.17992,0.17677 -0.2696,0.033 -0.40798,0.0577 -0.99301,0.12374 -0.5967,0.0584 -0.83484,0.0978 -0.28487,0.0283 -0.8663,0.0795 -0.0108,5.9e-4 -0.89416,0.0678 -0.10514,0.008 -0.12851,0.009 -0.86989,0.0554 -0.7279,0.0377 -0.27049,0.0142 -0.31184,0.0124 -0.68746,0.0277 -0.61737,0.0183 -0.38103,0.0106 -0.40798,0.007 -0.59042,0.0106 -0.56974,0.003 -0.42955,0.003 -0.42955,-0.003 -0.56885,-0.003 -0.58771,-0.009 -0.41069,-0.007 -0.38552,-0.0106 -0.61287,-0.0165 -0.67848,-0.0253 -0.32082,-0.0123 -0.28128,-0.0136 -0.71712,-0.0348 -0.84562,-0.0495 -0.27948,-0.0177 -0.87259,-0.0749 -0.91932,-0.0601 -0.18332,-0.0159 -0.89415,-0.0955 -0.6641,-0.0559 -0.8034,-0.0872 -0.5302,-0.0666 -0.37024,-0.0389 -1.56095,-0.19975 -0.0665,-0.009 -0.0431,-0.005 -0.1941,-0.0283 -1.42975,-0.21624 -0.32981,-0.0589 -0.54907,-0.0843 -0.71532,-0.12139 -0.7333,-0.12845 -0.24802,-0.0454 -0.57963,-0.11195 -0.49066,-0.0978 -0.67938,-0.1367" /></g><path
   sodipodi:nodetypes="ccccccccccccccccccccccccccccccccccccccccccccccccccccccccccccccccccccccccccccccccccccccccccccccccccccccccccccccccccccccccccccccccccccccccccccccccccccccccccccccccccccccccccccccccccccccccccccccccccccccccccccccccccccccccccccccccccccccccccccccccccccccccccccccccccccccccccccccccccccccccccccccccccccccccccccccccccccccccccccccccccccccccccccccccccccccccccccccccccccccccccccccccccccccccccccccccccccccccccccccccccccccccccccccccccccccccccccccccccccccccccccc"
   d="m 50.058875,462.01514 0.970539,-3.6638 1.94018,-7.19737 3.882157,-13.88035 8.414934,-27.79782 7.858672,-23.21601 7.703206,-20.30466 8.357421,-19.39961 7.798466,-15.7582 0.1321,-0.24807 0.1321,-0.24747 0.2642,-0.49259 0.52841,-0.9787 1.0568,-1.92735 2.11272,-3.73804 4.22634,-7.01766 0.12941,-0.20564 0.1294,-0.20564 0.25971,-0.40833 0.51852,-0.81077 1.03704,-1.59503 2.07408,-3.08341 4.14906,-5.75082 0.12131,-0.1591 0.12042,-0.15908 0.24264,-0.31642 0.48347,-0.62752 0.96784,-1.23324 1.93479,-2.37929 3.86958,-4.41741 0.1312,-0.14142 0.1312,-0.14141 0.26241,-0.28106 0.52481,-0.55623 1.04872,-1.08771 2.09834,-2.07996 0.1312,-0.1255 0.1312,-0.1255 0.26241,-0.24866 0.52481,-0.49259 1.04872,-0.96102 2.09834,-1.82896 0.12222,-0.10311 0.12311,-0.10252 0.24444,-0.20388 0.48976,-0.40244 0.97952,-0.78544 1.95906,-1.49309 0.12221,-0.0896 0.12222,-0.0896 0.24533,-0.17794 0.48976,-0.3506 0.97953,-0.68232 1.95815,-1.28863 0.12042,-0.076 0.12042,-0.0755 0.23994,-0.14907 0.47987,-0.2952 0.95976,-0.57155 1.92041,-1.07356 0.12042,-0.0636 0.11952,-0.0636 0.23994,-0.1261 0.48077,-0.24865 0.95976,-0.47904 1.92041,-0.8909 0.1303,-0.0571 0.13031,-0.0566 0.2606,-0.11196 0.52032,-0.21978 1.04243,-0.42012 0.1303,-0.0507 0.12941,-0.0507 0.26061,-0.099 0.52121,-0.19444 1.04154,-0.36886 0.1303,-0.0442 0.1303,-0.0442 0.26061,-0.0866 0.52032,-0.16911 1.04243,-0.31936 0.1303,-0.0377 0.13031,-0.0377 0.25971,-0.0749 0.52121,-0.14436 1.04153,-0.26986 0.12222,-0.0301 0.12132,-0.0294 0.24263,-0.0584 0.48617,-0.11313 0.97234,-0.20977 0.12131,-0.0248 0.12132,-0.0242 0.24353,-0.0484 0.48527,-0.0919 0.97234,-0.16912 0.12132,-0.0194 0.12221,-0.0194 0.24264,-0.0383 0.48617,-0.0719 0.12131,-0.0171 0.12132,-0.0171 0.24354,-0.033 0.48616,-0.0619 0.12132,-0.0148 0.12132,-0.0148 0.24263,-0.0277 0.48617,-0.0524 0.12132,-0.0123 0.12222,-0.0117 0.24263,-0.023 0.48617,-0.043 0.1321,-0.0106 0.1312,-0.0106 0.26331,-0.0194 0.1321,-0.009 0.1312,-0.009 0.2633,-0.0171 0.1321,-0.008 0.13211,-0.008 0.2633,-0.0141 0.1312,-0.006 0.1321,-0.006 0.26331,-0.0117 0.1321,-0.005 0.1312,-0.005 0.1321,-0.004 0.1312,-0.004 0.13211,-0.004 0.1312,-0.003 0.1321,-0.003 0.1321,-0.003 0.1312,-0.003 0.1321,-0.002 0.13121,-0.002 0.1321,-8.6e-4 0.1312,-8.7e-4 0.1321,-5.8e-4 0.1321,-5.9e-4 0.1312,0 0.13211,0 0.1312,5.9e-4 0.1321,8.6e-4 0.1312,8.6e-4 0.1321,0.002 0.13121,0.002 0.1321,0.003 0.1321,0.003 0.1312,0.003 0.1321,0.003 0.1312,0.003 0.13211,0.004 0.1312,0.004 0.1321,0.004 0.2633,0.01 0.1321,0.006 0.13121,0.006 0.2633,0.0123 0.1321,0.007 0.1321,0.007 0.26331,0.0153 0.1312,0.009 0.1321,0.009 0.2633,0.0177 0.52661,0.0395 0.12941,0.0106 0.1294,0.0112 0.25881,0.0224 0.51672,0.0489 0.12941,0.013 0.1294,0.0135 0.25882,0.0271 0.51672,0.0584 0.1294,0.0159 0.12941,0.0153 0.25881,0.0324 0.51672,0.0678 1.03524,0.15026 0.12851,0.02 0.1294,0.0206 0.25881,0.0419 0.51763,0.0866 1.03434,0.18737 0.1294,0.0242 0.12941,0.0254 0.25791,0.0507 0.51762,0.10487 1.03435,0.22332 0.12041,0.0271 0.12042,0.0271 0.24174,0.0553 0.48167,0.11431 0.96515,0.23863 1.9294,0.52265 0.12042,0.0342 0.12041,0.0354 0.24174,0.0701 0.48257,0.14317 0.96425,0.29697 1.9294,0.63636 0.1312,0.0453 0.13031,0.0453 0.2615,0.0913 0.52301,0.1862 1.04693,0.38358 2.09205,0.81314 4.1859,1.8042 0.12222,0.0559 0.12221,0.0565 0.24354,0.11313 0.48886,0.22804 0.97593,0.46548 1.95366,0.96515 3.90642,2.06405 8.46616,5.02195 8.31159,5.54931 7.75443,5.61118 8.40684,6.42785 7.84969,6.20453 7.69512,6.1621 8.34753,6.64998 7.79038,6.05487 8.44369,6.26757 8.28912,5.72313 7.73196,4.83459 0.13121,0.0772 0.1312,0.0772 0.26151,0.1532 0.52391,0.30463 1.04872,0.60041 2.09564,1.16668 4.19219,2.18719 0.12222,0.0607 0.12222,0.0607 0.24533,0.1208 0.48886,0.23863 0.97863,0.46961 1.95635,0.90269 0.12222,0.0548 0.12222,0.0542 0.24443,0.10901 0.48976,0.21506 0.97773,0.42012 1.95725,0.80252 0.11952,0.0477 0.12042,0.0471 0.23904,0.0943 0.47988,0.18561 0.95886,0.36119 1.91861,0.6835 0.11952,0.0413 0.12042,0.0407 0.23994,0.0807 0.47898,0.1591 0.95885,0.30816 1.91862,0.5739 0.1303,0.0365 0.1294,0.0371 0.26061,0.0724 0.52032,0.14141 1.04063,0.27045 0.13031,0.0324 0.1303,0.0324 0.25971,0.0642 0.52032,0.12433 1.04063,0.23569 0.1303,0.0277 0.13031,0.0283 0.25971,0.0548 0.52031,0.10664 1.04064,0.19916 0.1303,0.0242 0.13031,0.023 0.2606,0.0459 0.52032,0.0884 1.04063,0.16204 0.12132,0.0177 0.12132,0.0177 0.24263,0.0342 0.48527,0.0654 0.12132,0.0153 0.12132,0.0154 0.24263,0.03 0.48617,0.0565 0.12132,0.0136 0.12132,0.0136 0.24263,0.0259 0.48527,0.0483 0.12132,0.0112 0.12131,0.0112 0.24264,0.0212 0.48617,0.0401 0.12131,0.009 0.12132,0.009 0.24264,0.0177 0.12131,0.008 0.12132,0.009 0.24264,0.0148 0.12131,0.007 0.12132,0.007 0.24264,0.0124 0.12221,0.006 0.12132,0.006 0.24263,0.0106 0.12132,0.004 0.12132,0.004 0.12132,0.004 0.12131,0.004 0.12132,0.003 0.12132,0.003 0.12132,0.003 0.12131,0.003 0.12132,0.003 0.12132,0.003 0.12132,0.002 0.12131,0.002 0.12222,0.002 0.12132,8.6e-4 0.12131,8.7e-4 0.12132,5.9e-4 0.1312,0 0.13211,0 0.1312,0 0.1312,-5.9e-4 0.1321,-8.7e-4 0.1312,-8.6e-4 0.13211,-0.002 0.1312,-0.002 0.1321,-0.003 0.1312,-0.003 0.1312,-0.003 0.13211,-0.003 0.1312,-0.004 0.1321,-0.004 0.2624,-0.009 0.13211,-0.004 0.1312,-0.006 0.2633,-0.0118 0.1321,-0.007 0.13121,-0.007 0.2633,-0.0148 0.1312,-0.008 0.1321,-0.009 0.26241,-0.0171 0.5266,-0.0389 0.13211,-0.0106 0.1312,-0.0112 0.2633,-0.023 0.52571,-0.0501 0.1321,-0.0136 0.1312,-0.0136 0.26331,-0.0288 0.52661,-0.0619 0.1312,-0.0159 0.1321,-0.0165 0.2624,-0.0348 0.52661,-0.073 1.05232,-0.1638 0.12311,-0.0206 0.12312,-0.0212 0.24533,-0.0424 0.49156,-0.0901 0.98312,-0.19444 0.12311,-0.0259 0.12222,-0.0265 0.24623,-0.053 0.49156,-0.11078 0.98312,-0.23746 0.12222,-0.0306 0.12311,-0.0319 0.24533,-0.0636 0.49156,-0.13258 0.98312,-0.27988 1.96624,-0.62634 0.12042,-0.0413 0.12042,-0.0419 0.24084,-0.0843 0.48167,-0.17265 0.96335,-0.36119 1.9276,-0.78838 0.12042,-0.0519 0.12042,-0.0524 0.24084,-0.10665 0.48167,-0.21625 0.96425,-0.45016 1.9267,-0.9681 0.1312,-0.069 0.13031,-0.0695 0.2615,-0.14023 0.52212,-0.28518 1.04512,-0.59159 2.09116,-1.26565 0.1303,-0.0831 0.1312,-0.0831 0.26061,-0.16793 0.52301,-0.34116 1.04513,-0.70412 2.09025,-1.49427 0.12222,-0.0907 0.12222,-0.0913 0.24353,-0.18326 0.48796,-0.37179 0.97504,-0.76364 1.95186,-1.60445 0.12132,-0.10371 0.12221,-0.10429 0.24354,-0.20976 0.48796,-0.42425 0.97593,-0.86851 1.95097,-1.81776 0.1321,-0.12668 0.1321,-0.12786 0.2642,-0.25632 0.52841,-0.5191 1.0577,-1.06296 2.11452,-2.22373 4.22814,-4.84696 0.1303,-0.15732 0.12941,-0.15791 0.25971,-0.31701 0.51851,-0.64107 1.03794,-1.30572 2.07588,-2.71337 4.15175,-5.83745 0.12042,-0.17853 0.12132,-0.17913 0.24263,-0.35942 0.48347,-0.72416 0.96874,-1.47247 1.93569,-3.03804 3.87317,-6.45377 8.39876,-15.78708 7.8407,-17.05213 7.68613,-18.99541 8.33945,-23.28495 7.78229,-24.35616 0.13569,-0.4484 0.1357,-0.4484 0.27139,-0.90033 0.54278,-1.8101 1.08647,-3.65849 2.17113,-7.47431 0.13569,-0.47432 0.1357,-0.47492 0.27139,-0.95218"
   style="fill:none;stroke:#000000;stroke-width:0.40000001;stroke-linecap:square;stroke-linejoin:round;stroke-miterlimit:3.25;stroke-opacity:1;stroke-dasharray:none"
   id="path7011"
   inkscape:connector-curvature="0" /><text
   style="font-size:8.73204803px"
   transform="scale(1.2349645,0.80973986)"
   y="434.70453"
   x="69.449387"
   id="text7033"><tspan
     style="font-size:3.14353728px;font-variant:normal;font-weight:normal;writing-mode:lr-tb;fill:#000000;fill-opacity:1;fill-rule:nonzero;stroke:none;font-family:Mathematica3;-inkscape-font-specification:Mathematica3"
     x="69.449387"
     y="434.70453"
     id="tspan7035" /></text>

<text
   style="font-size:8.73204803px"
   transform="scale(1.2349645,0.80973986)"
   y="383.11267"
   x="87.92421"
   id="text7059"><tspan
     style="font-size:3.14353728px;font-variant:normal;font-weight:normal;writing-mode:lr-tb;fill:#000000;fill-opacity:1;fill-rule:nonzero;stroke:none;font-family:Mathematica3;-inkscape-font-specification:Mathematica3"
     x="87.92421"
     y="383.11267"
     id="tspan7061" /></text>

<text
   style="font-size:8.73204803px"
   transform="scale(1.2349645,0.80973986)"
   y="390.68118"
   x="198.77464"
   id="text7085"><tspan
     style="font-size:3.14353728px;font-variant:normal;font-weight:normal;writing-mode:lr-tb;fill:#000000;fill-opacity:1;fill-rule:nonzero;stroke:none;font-family:Mathematica3;-inkscape-font-specification:Mathematica3"
     x="198.77464"
     y="390.68118"
     id="tspan7087" /></text>

<text
   style="font-size:8.73204803px"
   transform="scale(1.2349645,0.80973986)"
   y="420.97775"
   x="224.63972"
   id="text7111"><tspan
     style="font-size:3.14353728px;font-variant:normal;font-weight:normal;writing-mode:lr-tb;fill:#000000;fill-opacity:1;fill-rule:nonzero;stroke:none;font-family:Mathematica3;-inkscape-font-specification:Mathematica3"
     x="224.63972"
     y="420.97775"
     id="tspan7113" /></text>

<text
   style="font-size:8.73204803px"
   transform="scale(1.2349645,0.80973986)"
   y="390.61426"
   x="300.3269"
   id="text7137"><tspan
     style="font-size:3.14353728px;font-variant:normal;font-weight:normal;writing-mode:lr-tb;fill:#0000ff;fill-opacity:1;fill-rule:nonzero;stroke:none;font-family:Mathematica3;-inkscape-font-specification:Mathematica3"
     x="300.3269"
     y="390.61426"
     id="tspan7139" /></text>

<text
   style="font-size:8.73204803px"
   transform="scale(1.2349645,0.80973986)"
   y="538.42163"
   x="348.9397"
   id="text7163"><tspan
     style="font-size:3.14353728px;font-variant:normal;font-weight:normal;writing-mode:lr-tb;fill:#0000ff;fill-opacity:1;fill-rule:nonzero;stroke:none;font-family:Mathematica3;-inkscape-font-specification:Mathematica3"
     x="348.9397"
     y="538.42163"
     id="tspan7165" /></text>

<path
   d="m 372.24105,458.50807 0,-1.11775 0,-7.02591 0,-1.11776 0,-1.11717 0,-7.0259 0,-1.11776 0,-1.11776 0,-7.02532 0,-1.11775 0,-1.11777 0,-7.02531 0,-1.11775 0,-1.11777 0,-7.02531 0,-1.11776 0,-1.11776 0,-7.0259 0,-1.11717 0,-1.11776 0,-7.0259 0,-1.11777 0,-1.11775 0,-7.02532 0,-1.11776 0,-1.11776 0,-7.02531 0,-1.11776 0,-1.11776 0,-7.02532 0,-1.11775 0,-1.11776 0,-7.02591 0,-1.11716 0,-1.11777 0,-7.0259 0,-1.11776 0,-1.11775 0,-7.02532 0,-1.11776 0,-1.11776 0,-7.02531 0,-1.11777 0,-1.11775 0,-7.02532 0,-1.11776 0,-1.11775 0,-7.02532 0,-1.11776 0,-1.11776 0,-7.02591 0,-1.11775 0,-1.11717 0,-7.02591 0,-1.11775 0,-1.11776 0,-7.02532 0,-1.11776 0,-1.11775 0,-7.02532 0,-1.11776 0,-1.11776 0,-7.02531 0,-1.11777 0,-1.11775 0,-7.02591 0,-1.11775 0,-1.11717 0,-7.02591 0,-1.11775 0,-1.11777 0,-7.02531 0,-1.11776 0,-1.11776 0,-7.02532 0,-1.11775 0,-1.11776 0,-7.02532 0,-1.11776 0,-1.11775 0,-7.02591 0,-1.11717 0,-1.11775 0,-7.02591 0,-1.11776"
   style="fill:none;stroke:#000000;stroke-width:0.36000001;stroke-linecap:square;stroke-linejoin:miter;stroke-miterlimit:3.25110006;stroke-opacity:1;stroke-dasharray:2.88000011, 1.44000006;stroke-dashoffset:0"
   id="path7169"
   inkscape:connector-curvature="0" /><path
   d="m 432.27609,458.50807 0,-1.2026 0,-2.2255 0,-1.20261 0,-1.2026 0,-1.11246 0,-1.11304 0,-1.20261 0,-1.20201 0,-2.2255 0,-1.20261 0,-1.20261 0,-2.22549 0,-1.20261 0,-1.20261 0,-6.85562 0,-1.2026 0,-1.20261 0,-6.85562 0,-1.2026 0,-1.20261 0,-6.85562 0,-1.20261 0,-1.2026 0,-6.85622 0,-1.20201 0,-1.20261 0,-6.8562 0,-1.20262 0,-1.2026 0,-6.85562 0,-1.20261 0,-1.20261 0,-6.85561 0,-1.20261 0,-1.20261 0,-6.85562 0,-1.2026 0,-1.20261 0,-6.85621 0,-1.20201 0,-1.20262 0,-6.85621 0,-1.2026 0,-1.2026 0,-6.85563 0,-1.2026 0,-1.20261 0,-6.85561 0,-1.20262 0,-1.2026 0,-6.85562 0,-1.20261 0,-1.2026 0,-6.85562 0,-1.20261 0,-1.20261 0,-6.85621 0,-1.2026 0,-1.20202 0,-6.85621 0,-1.2026 0,-1.20261 0,-6.85562 0,-1.20261 0,-1.2026 0,-6.85563 0,-1.2026 0,-1.2026 0,-6.85563 0,-1.2026 0,-1.20261 0,-6.85621 0,-1.2026 0,-1.20202 0,-6.85621 0,-1.2026 0,-1.20261 0,-6.85562 0,-1.20261 0,-1.2026 0,-6.85563 0,-1.2026 0,-1.2026 0,-6.85563 0,-1.2026 0,-1.20261 0,-2.2255 0,-1.20261 0,-1.2026 0,-2.2255 0,-1.20202 0,-1.2026 0,-2.2255 0,-1.20261 0,-1.20261 0,-2.22549 0,-1.20261"
   style="fill:none;stroke:#000000;stroke-width:0.36000001;stroke-linecap:square;stroke-linejoin:miter;stroke-miterlimit:3.25110006;stroke-opacity:1;stroke-dasharray:2.88000011, 1.44000006;stroke-dashoffset:0"
   id="path7171"
   inkscape:connector-curvature="0" /><path
   d="m 452.80569,463.91008 -411.956154,0"
   style="fill:none;stroke:#000000;stroke-width:0.14399999;stroke-linecap:square;stroke-linejoin:miter;stroke-miterlimit:3.25;stroke-opacity:1;stroke-dasharray:none"
   id="path7173"
   inkscape:connector-curvature="0" /><path
   d="m 40.849536,463.91008 0,-270.11086"
   style="fill:none;stroke:#000000;stroke-width:0.14399999;stroke-linecap:square;stroke-linejoin:miter;stroke-miterlimit:3.25;stroke-opacity:1;stroke-dasharray:none"
   id="path7175"
   inkscape:connector-curvature="0" /><path
   d="m 40.849536,193.79922 411.956154,0"
   style="fill:none;stroke:#000000;stroke-width:0.14399999;stroke-linecap:square;stroke-linejoin:miter;stroke-miterlimit:3.25;stroke-opacity:1;stroke-dasharray:none"
   id="path7177"
   inkscape:connector-curvature="0" /><path
   d="m 452.80569,193.79922 0,270.11086"
   style="fill:none;stroke:#000000;stroke-width:0.14399999;stroke-linecap:square;stroke-linejoin:miter;stroke-miterlimit:3.25;stroke-opacity:1;stroke-dasharray:none"
   id="path7179"
   inkscape:connector-curvature="0" /><text
   style="font-size:8.73204803px"
   transform="scale(1.2349645,0.80973986)"
   y="578.85028"
   x="49.610176"
   id="text7209"><tspan
     style="font-size:4.71530581px;font-variant:normal;font-weight:normal;writing-mode:lr-tb;fill:#000000;fill-opacity:1;fill-rule:nonzero;stroke:none;font-family:Mathematica1;-inkscape-font-specification:Mathematica1"
     x="49.610176"
     y="578.85028"
     id="tspan7211" /></text>

<text
   style="font-size:8.73204803px"
   transform="scale(1.2349645,0.80973986)"
   y="578.85028"
   x="111.19367"
   id="text7259"><tspan
     style="font-size:4.71530581px;font-variant:normal;font-weight:normal;writing-mode:lr-tb;fill:#000000;fill-opacity:1;fill-rule:nonzero;stroke:none;font-family:Mathematica1;-inkscape-font-specification:Mathematica1"
     x="111.19367"
     y="578.85028"
     id="tspan7261" /></text>

<text
   style="font-size:8.73204803px"
   transform="scale(1.2349645,0.80973986)"
   y="553.59503"
   x="24.410942"
   id="text7481"><tspan
     style="font-size:4.71530581px;font-variant:normal;font-weight:normal;writing-mode:lr-tb;fill:#000000;fill-opacity:1;fill-rule:nonzero;stroke:none;font-family:Mathematica1;-inkscape-font-specification:Mathematica1"
     x="24.410942"
     y="553.59503"
     id="tspan7483" /></text>

<text
   style="font-size:8.73204803px"
   transform="scale(1.2349645,0.80973986)"
   y="480.81409"
   x="26.593952"
   id="text7531"><tspan
     style="font-size:4.71530581px;font-variant:normal;font-weight:normal;writing-mode:lr-tb;fill:#000000;fill-opacity:1;fill-rule:nonzero;stroke:none;font-family:Mathematica1;-inkscape-font-specification:Mathematica1"
     x="26.593952"
     y="480.81409"
     id="tspan7533" /></text>

<path
   transform="matrix(0.07779417,0,0,0.07779417,102.63574,303.97602)"
   d="m 113.13709,69.720207 c 0,10.739418 -8.70602,19.445437 -19.44544,19.445437 -10.739418,0 -19.445436,-8.706019 -19.445436,-19.445437 0,-10.739418 8.706018,-19.445436 19.445436,-19.445436 10.73942,0 19.44544,8.706018 19.44544,19.445436 z"
   sodipodi:ry="19.445436"
   sodipodi:rx="19.445436"
   sodipodi:cy="69.720207"
   sodipodi:cx="93.69165"
   id="path11210"
   style="color:#000000;fill:#000000;fill-opacity:1;fill-rule:evenodd;stroke:none;stroke-width:3.4375;marker:none;visibility:visible;display:inline;overflow:visible;enable-background:accumulate"
   sodipodi:type="arc" /><path
   transform="matrix(0.07779417,0,0,0.07779417,80.016376,345.59835)"
   d="m 113.13709,69.720207 c 0,10.739418 -8.70602,19.445437 -19.44544,19.445437 -10.739418,0 -19.445436,-8.706019 -19.445436,-19.445437 0,-10.739418 8.706018,-19.445436 19.445436,-19.445436 10.73942,0 19.44544,8.706018 19.44544,19.445436 z"
   sodipodi:ry="19.445436"
   sodipodi:rx="19.445436"
   sodipodi:cy="69.720207"
   sodipodi:cx="93.69165"
   id="path11210-9"
   style="color:#000000;fill:#000000;fill-opacity:1;fill-rule:evenodd;stroke:none;stroke-width:3.4375;marker:none;visibility:visible;display:inline;overflow:visible;enable-background:accumulate"
   sodipodi:type="arc" /><path
   transform="matrix(0.07779417,0,0,0.07779417,239.53276,310.05608)"
   d="m 113.13709,69.720207 c 0,10.739418 -8.70602,19.445437 -19.44544,19.445437 -10.739418,0 -19.445436,-8.706019 -19.445436,-19.445437 0,-10.739418 8.706018,-19.445436 19.445436,-19.445436 10.73942,0 19.44544,8.706018 19.44544,19.445436 z"
   sodipodi:ry="19.445436"
   sodipodi:rx="19.445436"
   sodipodi:cy="69.720207"
   sodipodi:cx="93.69165"
   id="path11210-96"
   style="color:#000000;fill:#000000;fill-opacity:1;fill-rule:evenodd;stroke:none;stroke-width:3.4375;marker:none;visibility:visible;display:inline;overflow:visible;enable-background:accumulate"
   sodipodi:type="arc" /><path
   transform="matrix(0.07779417,0,0,0.07779417,271.59134,334.35608)"
   d="m 113.13709,69.720207 c 0,10.739418 -8.70602,19.445437 -19.44544,19.445437 -10.739418,0 -19.445436,-8.706019 -19.445436,-19.445437 0,-10.739418 8.706018,-19.445436 19.445436,-19.445436 10.73942,0 19.44544,8.706018 19.44544,19.445436 z"
   sodipodi:ry="19.445436"
   sodipodi:rx="19.445436"
   sodipodi:cy="69.720207"
   sodipodi:cx="93.69165"
   id="path11210-6"
   style="color:#000000;fill:#000000;fill-opacity:1;fill-rule:evenodd;stroke:none;stroke-width:3.4375;marker:none;visibility:visible;display:inline;overflow:visible;enable-background:accumulate"
   sodipodi:type="arc" /><path
   transform="matrix(0.07779417,0,0,0.07779417,425.13276,429.78537)"
   d="m 113.13709,69.720207 c 0,10.739418 -8.70602,19.445437 -19.44544,19.445437 -10.739418,0 -19.445436,-8.706019 -19.445436,-19.445437 0,-10.739418 8.706018,-19.445436 19.445436,-19.445436 10.73942,0 19.44544,8.706018 19.44544,19.445436 z"
   sodipodi:ry="19.445436"
   sodipodi:rx="19.445436"
   sodipodi:cy="69.720207"
   sodipodi:cx="93.69165"
   id="path11210-60"
   style="color:#000000;fill:#000000;fill-opacity:1;fill-rule:evenodd;stroke:none;stroke-width:3.4375;marker:none;visibility:visible;display:inline;overflow:visible;enable-background:accumulate"
   sodipodi:type="arc" /><path
   transform="matrix(0.07779417,0,0,0.07779417,365.05112,310.06624)"
   d="m 113.13709,69.720207 c 0,10.739418 -8.70602,19.445437 -19.44544,19.445437 -10.739418,0 -19.445436,-8.706019 -19.445436,-19.445437 0,-10.739418 8.706018,-19.445436 19.445436,-19.445436 10.73942,0 19.44544,8.706018 19.44544,19.445436 z"
   sodipodi:ry="19.445436"
   sodipodi:rx="19.445436"
   sodipodi:cy="69.720207"
   sodipodi:cx="93.69165"
   id="path11210-1"
   style="color:#000000;fill:#000000;fill-opacity:1;fill-rule:evenodd;stroke:none;stroke-width:3.4375;marker:none;visibility:visible;display:inline;overflow:visible;enable-background:accumulate"
   sodipodi:type="arc" /><path
   transform="matrix(0.07779417,0,0,0.07779417,364.89134,336.75608)"
   d="m 113.13709,69.720207 c 0,10.739418 -8.70602,19.445437 -19.44544,19.445437 -10.739418,0 -19.445436,-8.706019 -19.445436,-19.445437 0,-10.739418 8.706018,-19.445436 19.445436,-19.445436 10.73942,0 19.44544,8.706018 19.44544,19.445436 z"
   sodipodi:ry="19.445436"
   sodipodi:rx="19.445436"
   sodipodi:cy="69.720207"
   sodipodi:cx="93.69165"
   id="path11210-7"
   style="color:#000000;fill:#000000;fill-opacity:1;fill-rule:evenodd;stroke:none;stroke-width:3.4375;marker:none;visibility:visible;display:inline;overflow:visible;enable-background:accumulate"
   sodipodi:type="arc" /><path
   transform="matrix(0.07779417,0,0,0.07779417,425.09134,217.05608)"
   d="m 113.13709,69.720207 c 0,10.739418 -8.70602,19.445437 -19.44544,19.445437 -10.739418,0 -19.445436,-8.706019 -19.445436,-19.445437 0,-10.739418 8.706018,-19.445436 19.445436,-19.445436 10.73942,0 19.44544,8.706018 19.44544,19.445436 z"
   sodipodi:ry="19.445436"
   sodipodi:rx="19.445436"
   sodipodi:cy="69.720207"
   sodipodi:cx="93.69165"
   id="path11210-91"
   style="color:#000000;fill:#000000;fill-opacity:1;fill-rule:evenodd;stroke:none;stroke-width:3.4375;marker:none;visibility:visible;display:inline;overflow:visible;enable-background:accumulate"
   sodipodi:type="arc" /><g
   ns0:preamble="/home/juri/uni/Masterarbeit/LaTeX/Graphics/preamble.tex"
   ns0:text="\\begin{minipage}{8cm}\n\ntest\n\n$\\sum x_i$\n\n$\\q$\n\n\\end{minipage}"
   word-spacing="normal"
   letter-spacing="normal"
   font-size-adjust="none"
   font-stretch="normal"
   font-weight="normal"
   font-variant="normal"
   font-style="normal"
   stroke-miterlimit="10.433"
   xml:space="preserve"
   transform="matrix(0.8,0,0,-0.8,-84.464,852.2319)"
   id="content"
   style="font-style:normal;font-variant:normal;font-weight:normal;font-stretch:normal;letter-spacing:normal;word-spacing:normal;text-anchor:start;fill:none;stroke:#000000;stroke-linecap:butt;stroke-linejoin:miter;stroke-miterlimit:10.43299961;stroke-opacity:1;stroke-dasharray:none;stroke-dashoffset:0">
<path
   id="path3075"
   d="m 225.15,714.93 h 1.43 v 0.31 h -1.43 v 1.83 h -0.25 c 0,-0.81 -0.3,-1.88 -1.28,-1.92 v -0.22 h 0.85 v -2.74 c 0,-1.22 0.92,-1.34 1.28,-1.34 0.71,0 0.99,0.71 0.99,1.34 v 0.57 h -0.25 v -0.55 c 0,-0.73 -0.3,-1.11 -0.67,-1.11 -0.67,0 -0.67,0.9 -0.67,1.07 z"
   inkscape:connector-curvature="0"
   style="fill:#000000;stroke-width:0" />
<path
   id="path3077"
   d="m 228.41,713.26 0.01,0.2 c 0.06,1.48 0.9,1.73 1.23,1.73 1.03,0 1.13,-1.34 1.13,-1.73 h -2.36 l -0.01,-0.2 h 2.78 c 0.22,0 0.24,0 0.24,0.2 0,0.99 -0.53,1.95 -1.78,1.95 -1.15,0 -2.06,-1.02 -2.06,-2.26 0,-1.34 1.04,-2.3 2.18,-2.3 1.22,0 1.66,1.1 1.66,1.29 0,0.1 -0.07,0.12 -0.12,0.12 -0.09,0 -0.11,-0.06 -0.13,-0.14 -0.35,-1.02 -1.25,-1.02 -1.35,-1.02 -0.49,0 -0.89,0.3 -1.12,0.67 -0.3,0.47 -0.3,1.13 -0.3,1.49 z"
   inkscape:connector-curvature="0"
   style="fill:#000000;stroke-width:0" />
<path
   id="path3079"
   d="m 233.8,712.89 0.03,-0.01 0.02,0 0.03,-0.01 0.03,0 0.03,-0.01 0.04,-0.01 0.04,-0.01 0.04,-0.01 0.04,-0.01 0.04,-0.02 0.04,-0.01 0.05,-0.02 0.04,-0.02 0.04,-0.02 0.05,-0.02 0.04,-0.03 0.05,-0.02 0.04,-0.03 0.04,-0.03 0.04,-0.03 0.04,-0.04 0.03,-0.04 0.04,-0.04 0.03,-0.04 0.03,-0.04 0.01,-0.03 0.01,-0.02 0.01,-0.03 0.01,-0.02 0.01,-0.03 0.01,-0.02 0.01,-0.03 0.01,-0.03 0,-0.03 0.01,-0.03 0,-0.03 0.01,-0.03 0,-0.03 0,-0.04 c 0,-0.5 -0.35,-0.9 -1.13,-0.9 -0.83,0 -1.19,0.57 -1.38,1.41 -0.03,0.13 -0.04,0.17 -0.14,0.17 -0.13,0 -0.13,-0.07 -0.13,-0.25 v -1.31 c 0,-0.17 0,-0.24 0.11,-0.24 0.05,0 0.06,0.01 0.25,0.2 0.02,0.02 0.02,0.04 0.2,0.23 0.44,-0.42 0.89,-0.43 1.09,-0.43 1.15,0 1.61,0.67 1.61,1.38 0,0.53 -0.3,0.83 -0.42,0.94 -0.33,0.32 -0.72,0.4 -1.14,0.48 -0.55,0.11 -1.22,0.24 -1.22,0.82 0,0.34 0.26,0.75 1.11,0.75 1.1,0 1.15,-0.89 1.17,-1.2 0.01,-0.09 0.1,-0.09 0.12,-0.09 0.13,0 0.13,0.05 0.13,0.24 v 1 c 0,0.17 0,0.24 -0.11,0.24 -0.05,0 -0.07,0 -0.2,-0.12 -0.03,-0.04 -0.13,-0.13 -0.17,-0.16 -0.38,0.28 -0.79,0.28 -0.94,0.28 -1.21,0 -1.59,-0.67 -1.59,-1.22 0,-0.35 0.16,-0.63 0.43,-0.85 0.32,-0.25 0.6,-0.31 1.31,-0.45 z"
   inkscape:connector-curvature="0"
   style="fill:#000000;stroke-width:0" />
<path
   id="path3081"
   d="m 237.38,714.93 h 1.43 v 0.31 h -1.43 v 1.83 h -0.24 c -0.01,-0.81 -0.31,-1.88 -1.29,-1.92 v -0.22 h 0.85 v -2.74 c 0,-1.22 0.92,-1.34 1.28,-1.34 0.71,0 0.99,0.71 0.99,1.34 v 0.57 h -0.25 v -0.55 c 0,-0.73 -0.3,-1.11 -0.67,-1.11 -0.67,0 -0.67,0.9 -0.67,1.07 z"
   inkscape:connector-curvature="0"
   style="fill:#000000;stroke-width:0" />
<path
   id="path3083"
   d="m 227.62,701.17 -3.53,-4.36 c -0.08,-0.1 -0.09,-0.12 -0.09,-0.16 0,-0.11 0.09,-0.11 0.27,-0.11 h 8.25 l 0.85,2.48 h -0.25 c -0.25,-0.75 -0.91,-1.35 -1.76,-1.64 -0.16,-0.05 -0.84,-0.29 -2.31,-0.29 h -4.23 l 3.46,4.26 c 0.07,0.09 0.09,0.12 0.09,0.16 0,0.04 -0.01,0.05 -0.07,0.14 l -3.24,4.43 H 229 c 1.14,0 3.43,-0.07 4.12,-1.93 h 0.25 l -0.85,2.33 h -8.25 c -0.27,0 -0.28,-0.01 -0.28,-0.32 z"
   inkscape:connector-curvature="0"
   style="fill:#000000;stroke-width:0" />
<path
   id="path3085"
   d="m 238.93,702.01 0.01,0.02 0.01,0.03 0,0.03 0.01,0.04 0.01,0.04 0.02,0.04 0.01,0.04 0.01,0.05 0.02,0.04 0.02,0.05 0.02,0.05 0.02,0.05 0.02,0.05 0.02,0.05 0.03,0.05 0.03,0.05 0.03,0.05 0.03,0.04 0.03,0.05 0.04,0.04 0.03,0.05 0.04,0.04 0.04,0.04 0.05,0.03 0.04,0.03 0.05,0.03 0.03,0.01 0.02,0.02 0.03,0.01 0.03,0.01 0.02,0.01 0.03,0 0.03,0.01 0.03,0.01 0.03,0 0.03,0 0.03,0.01 0.04,0 c 0.05,0 0.29,0 0.49,-0.13 -0.27,-0.05 -0.47,-0.3 -0.47,-0.54 0,-0.16 0.11,-0.35 0.38,-0.35 0.21,0 0.53,0.18 0.53,0.58 0,0.52 -0.59,0.66 -0.92,0.66 -0.58,0 -0.93,-0.53 -1.05,-0.76 -0.25,0.66 -0.78,0.76 -1.07,0.76 -1.04,0 -1.6,-1.29 -1.6,-1.53 0,-0.1 0.09,-0.1 0.11,-0.1 0.08,0 0.11,0.02 0.14,0.11 0.33,1.05 0.99,1.3 1.33,1.3 0.19,0 0.53,-0.09 0.53,-0.67 0,-0.31 -0.16,-0.97 -0.53,-2.36 -0.16,-0.62 -0.51,-1.04 -0.95,-1.04 -0.06,0 -0.29,0 -0.49,0.13 0.24,0.05 0.46,0.26 0.46,0.54 0,0.27 -0.22,0.35 -0.36,0.35 -0.3,0 -0.55,-0.26 -0.55,-0.58 0,-0.46 0.5,-0.65 0.93,-0.65 0.66,0 1.02,0.69 1.05,0.75 0.12,-0.37 0.47,-0.75 1.07,-0.75 1.03,0 1.59,1.28 1.59,1.53 0,0.1 -0.09,0.1 -0.12,0.1 -0.08,0 -0.1,-0.05 -0.13,-0.11 -0.32,-1.07 -1,-1.31 -1.32,-1.31 -0.39,0 -0.54,0.32 -0.54,0.66 0,0.22 0.05,0.44 0.16,0.87 z"
   inkscape:connector-curvature="0"
   style="fill:#000000;stroke-width:0" />
<path
   id="path3087"
   d="m 243.56,701.86 0,0.01 0,0.01 0,0.01 0,0.01 -0.01,0.01 0,0.01 0,0.01 -0.01,0.01 0,0.02 -0.01,0.01 0,0.01 -0.01,0.01 0,0.01 -0.01,0.01 -0.01,0.01 -0.01,0.01 -0.01,0.01 0,0.01 -0.01,0.01 -0.02,0.01 -0.01,0 -0.01,0.01 -0.01,0.01 -0.01,0 -0.02,0.01 -0.01,0.01 -0.02,0 -0.01,0 -0.02,0.01 -0.01,0 -0.02,0 -0.02,0 c -0.19,0 -0.39,-0.18 -0.39,-0.38 0,-0.12 0.09,-0.27 0.28,-0.27 0.2,0 0.39,0.2 0.39,0.39 z"
   inkscape:connector-curvature="0"
   style="fill:#000000;stroke-width:0" />
<path
   id="path3089"
   d="m 242.14,698.32 -0.01,-0.01 0,-0.02 -0.01,-0.03 -0.01,-0.02 0,-0.02 -0.01,-0.01 0,-0.02 -0.01,-0.02 0,-0.02 -0.01,-0.02 0,-0.02 0,-0.01 0,-0.01 0,-0.01 0,-0.01 0,-0.01 0,-0.01 0,-0.01 0,-0.01 c 0,-0.32 0.27,-0.59 0.66,-0.59 0.69,0 1,0.96 1,1.06 0,0.09 -0.09,0.09 -0.11,0.09 -0.1,0 -0.11,-0.04 -0.13,-0.11 -0.16,-0.56 -0.47,-0.84 -0.74,-0.84 -0.14,0 -0.18,0.09 -0.18,0.24 0,0.16 0.05,0.29 0.12,0.44 0.07,0.19 0.14,0.38 0.22,0.56 0.06,0.17 0.31,0.8 0.34,0.88 0.02,0.07 0.04,0.16 0.04,0.23 0,0.32 -0.28,0.59 -0.66,0.59 -0.69,0 -1.01,-0.95 -1.01,-1.07 0,-0.09 0.1,-0.09 0.12,-0.09 0.1,0 0.1,0.04 0.12,0.11 0.18,0.6 0.49,0.85 0.75,0.85 0.11,0 0.17,-0.05 0.17,-0.24 0,-0.16 -0.04,-0.27 -0.21,-0.7 z"
   inkscape:connector-curvature="0"
   style="fill:#000000;stroke-width:0" />
<path
   id="path3091"
   d="m 226.29,688.9 -0.06,0.01 -0.06,0.02 -0.06,0.02 -0.06,0.01 -0.06,0.02 -0.06,0.02 -0.05,0.02 -0.06,0.03 -0.05,0.02 -0.06,0.03 -0.05,0.03 -0.05,0.03 -0.03,0.01 -0.02,0.02 -0.02,0.02 -0.03,0.02 -0.02,0.01 -0.02,0.02 -0.03,0.02 -0.02,0.02 c -0.46,0.46 -0.6,1.11 -0.6,1.73 0,0.45 0.05,0.86 0.18,1.27 0.11,0.35 0.28,0.66 0.54,0.91 0.36,0.36 0.88,0.47 1.36,0.47 0.42,0 0.86,-0.14 1.16,-0.44 0.23,-0.23 0.38,-0.51 0.46,-0.82 0.11,-0.42 0.13,-0.82 0.13,-1.26 0,-0.53 -0.03,-1.07 -0.18,-1.59 -0.1,-0.36 -0.24,-0.73 -0.52,-1.01 -0.33,-0.33 -0.76,-0.55 -1.22,-0.55 -0.19,0 -0.43,0.03 -0.64,0.06 -0.13,0.02 -0.31,0.02 -0.46,0.02 -0.33,0 -0.67,-0.07 -0.89,-0.3 -0.21,-0.2 -0.38,-0.57 -0.49,-0.89 l 0.21,-0.09 c 0.07,0.18 0.19,0.42 0.28,0.51 0.16,0.15 0.42,0.16 0.64,0.16 0.21,0 0.42,-0.03 0.63,-0.07 l 1.91,-0.42 c 0.19,-0.05 0.39,-0.05 0.6,-0.05 0.22,0 0.42,0.15 0.57,0.32 0.26,0.29 0.37,0.63 0.47,0.96 l -0.19,0.08 c -0.09,-0.23 -0.19,-0.44 -0.38,-0.61 -0.11,-0.11 -0.23,-0.22 -0.38,-0.22 -0.13,0 -0.93,0.19 -1.05,0.23 -0.16,0.06 -0.24,0.08 -0.31,0.14 0.43,0.12 0.81,0.36 1.13,0.68 0.69,0.7 0.98,1.67 0.98,2.64 0,0.46 -0.05,0.87 -0.18,1.3 -0.09,0.33 -0.24,0.63 -0.48,0.87 -0.45,0.45 -1.08,0.61 -1.71,0.61 -0.73,0 -1.49,-0.12 -2.02,-0.65 -0.58,-0.59 -0.82,-1.35 -0.82,-2.18 0,-0.72 0.27,-1.42 0.78,-1.93 0.33,-0.34 0.8,-0.49 1.27,-0.49 z"
   inkscape:connector-curvature="0"
   style="fill:#000000;stroke-width:0" />
</g><g
   ns0:preamble="/home/juri/uni/Masterarbeit/LaTeX/Graphics/preamble.tex"
   ns0:text="\\begin{minipage}{8cm}\n\ntest\n\n$\\sum x_i$\n\n$\\q$\n\n\\end{minipage}"
   text-anchor="start"
   word-spacing="normal"
   letter-spacing="normal"
   font-size-adjust="none"
   font-stretch="normal"
   font-weight="normal"
   font-variant="normal"
   font-style="normal"
   fill-opacity="1"
   fill-rule="evenodd"
   fill="none"
   stroke-opacity="1"
   stroke-dashoffset="0"
   stroke-dasharray="none"
   stroke-miterlimit="10.433"
   stroke-linejoin="miter"
   stroke-linecap="butt"
   stroke="black"
   xml:space="preserve"
   transform="matrix(1.000000,0,0,-1.000000,-200.000000,750.000000)"
   id="g11865">
<path
   id="path11867"
   fill="black"
   stroke-width="0"
   d="M225.16,714.95 H226.58 V715.26 H225.16 V717.09 H224.91 C224.9,716.27,224.6,715.21,223.62,715.17 V714.95 H224.47 V712.2 C224.47,710.97,225.4,710.85,225.75,710.85 C226.46,710.85,226.74,711.56,226.74,712.2 V712.77 H226.49 V712.22 C226.49,711.48,226.19,711.1,225.82,711.1 C225.16,711.1,225.16,712.01,225.16,712.18 Z " />
<path
   id="path11869"
   fill="black"
   stroke-width="0"
   d="M228.42,713.26 L228.43,713.47 C228.49,714.96,229.32,715.21,229.66,715.21 C230.69,715.21,230.79,713.86,230.79,713.47 H228.43 L228.42,713.26 H231.2 C231.41,713.26,231.45,713.26,231.45,713.47 C231.45,714.46,230.91,715.43,229.66,715.43 C228.51,715.43,227.59,714.4,227.59,713.15 C227.59,711.82,228.63,710.85,229.78,710.85 C231,710.85,231.45,711.96,231.45,712.15 C231.45,712.25,231.37,712.27,231.32,712.27 C231.23,712.27,231.21,712.21,231.18,712.13 C230.84,711.1,229.94,711.1,229.84,711.1 C229.34,711.1,228.94,711.4,228.71,711.77 C228.42,712.25,228.42,712.91,228.42,713.26 Z " />
<path
   id="path11871"
   fill="black"
   stroke-width="0"
   d="M233.81,712.9 L233.83,712.89 L233.85,712.89 L233.88,712.88 L233.91,712.87 L233.95,712.87 L233.98,712.86 L234.02,712.85 L234.06,712.84 L234.1,712.82 L234.14,712.81 L234.19,712.79 L234.23,712.78 L234.28,712.76 L234.32,712.74 L234.36,712.72 L234.41,712.69 L234.45,712.66 L234.49,712.64 L234.53,712.61 L234.57,712.57 L234.61,712.54 L234.65,712.5 L234.68,712.46 L234.71,712.42 L234.74,712.37 L234.75,712.35 L234.77,712.33 L234.78,712.3 L234.79,712.28 L234.8,712.25 L234.81,712.22 L234.82,712.19 L234.82,712.17 L234.83,712.14 L234.83,712.11 L234.84,712.08 L234.84,712.04 L234.84,712.01 L234.84,711.98 C234.84,711.47,234.49,711.07,233.72,711.07 C232.88,711.07,232.52,711.64,232.33,712.49 C232.3,712.62,232.29,712.66,232.19,712.66 C232.06,712.66,232.06,712.59,232.06,712.41 V711.09 C232.06,710.92,232.06,710.85,232.17,710.85 C232.22,710.85,232.23,710.86,232.42,711.05 C232.44,711.07,232.44,711.09,232.62,711.28 C233.06,710.86,233.51,710.85,233.72,710.85 C234.86,710.85,235.32,711.52,235.32,712.24 C235.32,712.77,235.02,713.07,234.9,713.18 C234.57,713.5,234.19,713.58,233.77,713.66 C233.21,713.77,232.54,713.9,232.54,714.48 C232.54,714.83,232.8,715.24,233.66,715.24 C234.75,715.24,234.8,714.34,234.82,714.03 C234.83,713.94,234.92,713.94,234.94,713.94 C235.07,713.94,235.07,713.99,235.07,714.18 V715.19 C235.07,715.36,235.07,715.43,234.96,715.43 C234.91,715.43,234.89,715.43,234.76,715.31 C234.73,715.27,234.63,715.18,234.59,715.15 C234.22,715.43,233.81,715.43,233.66,715.43 C232.44,715.43,232.06,714.76,232.06,714.2 C232.06,713.85,232.22,713.57,232.49,713.35 C232.81,713.09,233.09,713.03,233.81,712.9 Z " />
<path
   id="path11873"
   fill="black"
   stroke-width="0"
   d="M237.39,714.95 H238.81 V715.26 H237.39 V717.09 H237.14 C237.13,716.27,236.83,715.21,235.85,715.17 V714.95 H236.7 V712.2 C236.7,710.97,237.63,710.85,237.99,710.85 C238.69,710.85,238.97,711.56,238.97,712.2 V712.77 H238.72 V712.22 C238.72,711.48,238.43,711.1,238.06,711.1 C237.39,711.1,237.39,712.01,237.39,712.18 Z " />
<path
   id="path11875"
   fill="black"
   stroke-width="0"
   d="M227.63,701.16 L224.09,696.78 C224.01,696.68,224,696.66,224,696.62 C224,696.52,224.09,696.52,224.27,696.52 H232.53 L233.38,699 H233.14 C232.89,698.25,232.22,697.64,231.37,697.35 C231.21,697.3,230.53,697.06,229.06,697.06 H224.83 L228.28,701.34 C228.35,701.43,228.37,701.46,228.37,701.5 C228.37,701.54,228.36,701.55,228.3,701.64 L225.07,706.08 H229.01 C230.15,706.08,232.44,706.01,233.14,704.15 H233.38 L232.53,706.48 H224.27 C224,706.48,223.99,706.47,223.99,706.16 Z " />
<path
   id="path11877"
   fill="black"
   stroke-width="0"
   d="M238.94,702.02 L238.95,702.04 L238.95,702.07 L238.96,702.1 L238.97,702.14 L238.98,702.18 L238.99,702.22 L239.01,702.26 L239.02,702.31 L239.04,702.36 L239.05,702.4 L239.07,702.45 L239.09,702.5 L239.12,702.55 L239.14,702.6 L239.17,702.65 L239.19,702.7 L239.22,702.75 L239.25,702.8 L239.29,702.84 L239.32,702.89 L239.36,702.93 L239.4,702.97 L239.44,703.01 L239.49,703.04 L239.53,703.08 L239.58,703.11 L239.61,703.12 L239.63,703.13 L239.66,703.14 L239.69,703.15 L239.71,703.16 L239.74,703.17 L239.77,703.18 L239.8,703.18 L239.83,703.19 L239.86,703.19 L239.89,703.19 L239.93,703.19 C239.98,703.19,240.21,703.19,240.42,703.06 C240.15,703.01,239.95,702.76,239.95,702.52 C239.95,702.36,240.06,702.18,240.32,702.18 C240.54,702.18,240.86,702.35,240.86,702.75 C240.86,703.27,240.27,703.41,239.94,703.41 C239.36,703.41,239.01,702.88,238.89,702.65 C238.64,703.31,238.1,703.41,237.81,703.41 C236.78,703.41,236.21,702.13,236.21,701.88 C236.21,701.78,236.31,701.78,236.33,701.78 C236.41,701.78,236.44,701.8,236.46,701.89 C236.8,702.94,237.46,703.19,237.79,703.19 C237.98,703.19,238.33,703.1,238.33,702.52 C238.33,702.22,238.16,701.55,237.79,700.15 C237.63,699.54,237.29,699.12,236.85,699.12 C236.79,699.12,236.56,699.12,236.35,699.25 C236.6,699.3,236.82,699.51,236.82,699.78 C236.82,700.05,236.6,700.13,236.45,700.13 C236.15,700.13,235.9,699.87,235.9,699.55 C235.9,699.1,236.4,698.9,236.84,698.9 C237.49,698.9,237.85,699.59,237.88,699.66 C238,699.29,238.36,698.9,238.96,698.9 C239.99,698.9,240.55,700.18,240.55,700.43 C240.55,700.53,240.46,700.53,240.43,700.53 C240.35,700.53,240.32,700.49,240.3,700.42 C239.98,699.36,239.3,699.12,238.98,699.12 C238.59,699.12,238.43,699.44,238.43,699.78 C238.43,699.99,238.49,700.21,238.6,700.65 Z " />
<path
   id="path11879"
   fill="black"
   stroke-width="0"
   d="M243.57,701.87 L243.56,701.88 L243.56,701.89 L243.56,701.9 L243.56,701.91 L243.56,701.92 L243.56,701.93 L243.55,701.94 L243.55,701.95 L243.54,701.97 L243.54,701.98 L243.53,701.99 L243.53,702 L243.52,702.01 L243.51,702.02 L243.51,702.03 L243.5,702.04 L243.49,702.05 L243.48,702.06 L243.47,702.07 L243.46,702.08 L243.45,702.08 L243.44,702.09 L243.42,702.1 L243.41,702.11 L243.4,702.11 L243.38,702.12 L243.37,702.12 L243.35,702.12 L243.34,702.13 L243.32,702.13 L243.3,702.13 L243.29,702.13 C243.1,702.13,242.9,701.95,242.9,701.75 C242.9,701.63,242.99,701.48,243.17,701.48 C243.38,701.48,243.57,701.68,243.57,701.87 Z " />
<path
   id="path11881"
   fill="black"
   stroke-width="0"
   d="M242.14,698.32 L242.13,698.29 L242.12,698.26 L242.11,698.24 L242.11,698.22 L242.1,698.2 L242.1,698.19 L242.1,698.17 L242.09,698.15 L242.09,698.13 L242.08,698.11 L242.08,698.09 L242.08,698.08 L242.08,698.07 L242.08,698.06 L242.08,698.05 L242.08,698.04 L242.08,698.03 C242.08,697.7,242.36,697.44,242.74,697.44 C243.44,697.44,243.75,698.4,243.75,698.51 C243.75,698.59,243.65,698.59,243.63,698.59 C243.54,698.59,243.53,698.55,243.5,698.48 C243.34,697.92,243.04,697.63,242.76,697.63 C242.62,697.63,242.59,697.72,242.59,697.88 C242.59,698.04,242.64,698.17,242.7,698.32 C242.77,698.51,242.85,698.7,242.92,698.88 C242.99,699.05,243.24,699.68,243.26,699.77 C243.29,699.84,243.31,699.92,243.31,699.99 C243.31,700.32,243.03,700.58,242.64,700.58 C241.95,700.58,241.63,699.64,241.63,699.52 C241.63,699.42,241.73,699.42,241.75,699.42 C241.85,699.42,241.86,699.46,241.88,699.54 C242.06,700.14,242.37,700.39,242.62,700.39 C242.74,700.39,242.8,700.33,242.8,700.14 C242.8,699.98,242.76,699.88,242.58,699.45 Z " />
<path
   id="path11883"
   fill="black"
   stroke-width="0"
   d="M226.29,688.91 L226.23,688.92 L226.17,688.94 L226.11,688.95 L226.05,688.97 L226,688.99 L225.94,689.01 L225.88,689.03 L225.82,689.05 L225.77,689.08 L225.72,689.11 L225.66,689.13 L225.61,689.16 L225.59,689.18 L225.56,689.2 L225.54,689.22 L225.51,689.23 L225.49,689.25 L225.47,689.27 L225.45,689.29 L225.43,689.31 C224.97,689.77,224.82,690.42,224.82,691.05 C224.82,691.5,224.87,691.9,225.01,692.32 C225.12,692.67,225.29,692.98,225.54,693.23 C225.9,693.59,226.42,693.7,226.91,693.7 C227.33,693.7,227.77,693.56,228.07,693.26 C228.29,693.03,228.44,692.75,228.52,692.44 C228.64,692.01,228.66,691.61,228.66,691.18 C228.66,690.64,228.62,690.1,228.47,689.58 C228.37,689.21,228.23,688.85,227.96,688.57 C227.63,688.24,227.2,688.02,226.73,688.02 C226.54,688.02,226.3,688.05,226.09,688.08 C225.96,688.1,225.78,688.1,225.63,688.1 C225.3,688.1,224.97,688.03,224.74,687.8 C224.53,687.59,224.36,687.22,224.25,686.9 L224.46,686.81 C224.53,686.99,224.65,687.23,224.75,687.32 C224.91,687.47,225.17,687.48,225.38,687.48 C225.59,687.48,225.8,687.45,226.01,687.41 L227.93,686.99 C228.12,686.94,228.31,686.94,228.52,686.94 C228.75,686.94,228.95,687.09,229.1,687.26 C229.36,687.55,229.47,687.89,229.57,688.23 L229.38,688.31 C229.29,688.08,229.19,687.87,229,687.69 C228.89,687.58,228.77,687.47,228.61,687.47 C228.48,687.47,227.69,687.66,227.57,687.7 C227.41,687.76,227.33,687.79,227.26,687.84 C227.69,687.97,228.07,688.21,228.38,688.53 C229.08,689.22,229.37,690.2,229.37,691.18 C229.37,691.64,229.32,692.04,229.19,692.48 C229.1,692.81,228.95,693.11,228.7,693.35 C228.25,693.8,227.63,693.97,227,693.97 C226.26,693.97,225.51,693.84,224.98,693.31 C224.39,692.72,224.15,691.95,224.15,691.13 C224.15,690.4,224.42,689.7,224.94,689.18 C225.27,688.85,225.73,688.7,226.2,688.7 Z " />
</g>
</g></svg>