<?xml version="1.0" encoding="UTF-8" standalone="no"?>
<!-- Created with Inkscape (http://www.inkscape.org/) -->

<svg
   xmlns:ns0="http://www.iki.fi/pav/software/textext/"
   xmlns:dc="http://purl.org/dc/elements/1.1/"
   xmlns:cc="http://creativecommons.org/ns#"
   xmlns:rdf="http://www.w3.org/1999/02/22-rdf-syntax-ns#"
   xmlns:svg="http://www.w3.org/2000/svg"
   xmlns="http://www.w3.org/2000/svg"
   xmlns:sodipodi="http://sodipodi.sourceforge.net/DTD/sodipodi-0.dtd"
   xmlns:inkscape="http://www.inkscape.org/namespaces/inkscape"
   width="744.09448819"
   height="1052.3622047"
   id="svg2"
   version="1.1"
   inkscape:version="0.48.3.1 r9886"
   sodipodi:docname="ink_ext_XXXXXX.svgHIM5AW">
  <sodipodi:namedview
     id="base"
     pagecolor="#ffffff"
     bordercolor="#666666"
     borderopacity="1.0"
     inkscape:pageopacity="0.0"
     inkscape:pageshadow="2"
     inkscape:zoom="0.7"
     inkscape:cx="340.13352"
     inkscape:cy="636.53648"
     inkscape:document-units="px"
     inkscape:current-layer="layer1"
     showgrid="false"
     inkscape:window-width="1920"
     inkscape:window-height="1051"
     inkscape:window-x="0"
     inkscape:window-y="26"
     inkscape:window-maximized="1" />
  <defs
     id="defs4" />
  <metadata
     id="metadata7">
    <rdf:RDF>
      <cc:Work
         rdf:about="">
        <dc:format>image/svg+xml</dc:format>
        <dc:type
           rdf:resource="http://purl.org/dc/dcmitype/StillImage" />
        <dc:title />
      </cc:Work>
    </rdf:RDF>
  </metadata>
  <g
     inkscape:label="Layer 1"
     inkscape:groupmode="layer"
     id="layer1">
    <path
       sodipodi:type="spiral"
       style="fill:none;stroke:#000000;stroke-width:1px;stroke-linecap:butt;stroke-linejoin:miter;stroke-opacity:1"
       id="path3106"
       sodipodi:cx="177.78685"
       sodipodi:cy="197.77313"
       sodipodi:expansion="1"
       sodipodi:revolution="3"
       sodipodi:radius="137.57373"
       sodipodi:argument="-18.326767"
       sodipodi:t0="0"
       d="m 177.78685,197.77313 c 5.9764,3.44403 -1.69393,9.75523 -5.7242,9.93317 -10.92176,0.48221 -16.1274,-12.27388 -14.14214,-21.38156 3.55118,-16.29151 22.30693,-23.13009 37.03893,-18.35111 21.6198,7.01335 30.29232,32.45873 22.56008,52.69629 -10.30585,26.97347 -42.65042,37.51964 -68.35365,26.76905 -32.34489,-13.52851 -44.78005,-52.86057 -30.97803,-84.01102 16.7161,-37.72737 63.081,-52.0595 99.66839,-35.18699 43.11697,19.88367 59.3509,73.30781 39.39596,115.32574 -23.03877,48.51138 -83.53889,66.65028 -130.98311,43.60494 C 72.359947,260.98606 52.313854,193.39866 78.455174,140.53117 107.78178,81.22183 182.46444,59.266937 240.75301,88.508288 305.46438,120.97173 329.32928,202.75549 296.98486,266.46349" />
    <g
       id="g3124"
       transform="matrix(10.000000,0,0,-10.000000,-2000.000000,7500.000000)"
       xml:space="preserve"
       stroke="black"
       stroke-linecap="butt"
       stroke-linejoin="miter"
       stroke-miterlimit="10.433"
       stroke-dasharray="none"
       stroke-dashoffset="0"
       stroke-opacity="1"
       fill="none"
       fill-rule="evenodd"
       fill-opacity="1"
       font-style="normal"
       font-variant="normal"
       font-weight="normal"
       font-stretch="normal"
       font-size-adjust="none"
       letter-spacing="normal"
       word-spacing="normal"
       text-anchor="start"
       ns0:text="\\begin{minipage}{8cm}\n\ntest\n\n$\\sum x_i$\n\n$\\q$\n\n\\end{minipage}"
       ns0:preamble="/home/juri/uni/Masterarbeit/LaTeX/Graphics/preamble.tex">
<path
   d="M225.15,714.93 H226.58 V715.24 H225.15 V717.07 H224.9 C224.9,716.26,224.6,715.19,223.62,715.15 V714.93 H224.47 V712.19 C224.47,710.97,225.39,710.85,225.75,710.85 C226.46,710.85,226.74,711.56,226.74,712.19 V712.76 H226.49 V712.21 C226.49,711.48,226.19,711.1,225.82,711.1 C225.15,711.1,225.15,712,225.15,712.17 Z "
   stroke-width="0"
   fill="black"
   id="path3126" />
<path
   d="M228.41,713.26 L228.42,713.46 C228.48,714.94,229.32,715.19,229.65,715.19 C230.68,715.19,230.78,713.85,230.78,713.46 H228.42 L228.41,713.26 H231.19 C231.41,713.26,231.43,713.26,231.43,713.46 C231.43,714.45,230.9,715.41,229.65,715.41 C228.5,715.41,227.59,714.39,227.59,713.15 C227.59,711.81,228.63,710.85,229.77,710.85 C230.99,710.85,231.43,711.95,231.43,712.14 C231.43,712.24,231.36,712.26,231.31,712.26 C231.22,712.26,231.2,712.2,231.18,712.12 C230.83,711.1,229.93,711.1,229.83,711.1 C229.34,711.1,228.94,711.4,228.71,711.77 C228.41,712.24,228.41,712.9,228.41,713.26 Z "
   stroke-width="0"
   fill="black"
   id="path3128" />
<path
   d="M233.8,712.89 L233.83,712.88 L233.85,712.88 L233.88,712.87 L233.91,712.87 L233.94,712.86 L233.98,712.85 L234.02,712.84 L234.06,712.83 L234.1,712.82 L234.14,712.8 L234.18,712.79 L234.23,712.77 L234.27,712.75 L234.31,712.73 L234.36,712.71 L234.4,712.68 L234.45,712.66 L234.49,712.63 L234.53,712.6 L234.57,712.57 L234.61,712.53 L234.64,712.49 L234.68,712.45 L234.71,712.41 L234.74,712.37 L234.75,712.34 L234.76,712.32 L234.77,712.29 L234.78,712.27 L234.79,712.24 L234.8,712.22 L234.81,712.19 L234.82,712.16 L234.82,712.13 L234.83,712.1 L234.83,712.07 L234.84,712.04 L234.84,712.01 L234.84,711.97 C234.84,711.47,234.49,711.07,233.71,711.07 C232.88,711.07,232.52,711.64,232.33,712.48 C232.3,712.61,232.29,712.65,232.19,712.65 C232.06,712.65,232.06,712.58,232.06,712.4 V711.09 C232.06,710.92,232.06,710.85,232.17,710.85 C232.22,710.85,232.23,710.86,232.42,711.05 C232.44,711.07,232.44,711.09,232.62,711.28 C233.06,710.86,233.51,710.85,233.71,710.85 C234.86,710.85,235.32,711.52,235.32,712.23 C235.32,712.76,235.02,713.06,234.9,713.17 C234.57,713.49,234.18,713.57,233.76,713.65 C233.21,713.76,232.54,713.89,232.54,714.47 C232.54,714.81,232.8,715.22,233.65,715.22 C234.75,715.22,234.8,714.33,234.82,714.02 C234.83,713.93,234.92,713.93,234.94,713.93 C235.07,713.93,235.07,713.98,235.07,714.17 V715.17 C235.07,715.34,235.07,715.41,234.96,715.41 C234.91,715.41,234.89,715.41,234.76,715.29 C234.73,715.25,234.63,715.16,234.59,715.13 C234.21,715.41,233.8,715.41,233.65,715.41 C232.44,715.41,232.06,714.74,232.06,714.19 C232.06,713.84,232.22,713.56,232.49,713.34 C232.81,713.09,233.09,713.03,233.8,712.89 Z "
   stroke-width="0"
   fill="black"
   id="path3130" />
<path
   d="M237.38,714.93 H238.81 V715.24 H237.38 V717.07 H237.14 C237.13,716.26,236.83,715.19,235.85,715.15 V714.93 H236.7 V712.19 C236.7,710.97,237.62,710.85,237.98,710.85 C238.69,710.85,238.97,711.56,238.97,712.19 V712.76 H238.72 V712.21 C238.72,711.48,238.42,711.1,238.05,711.1 C237.38,711.1,237.38,712,237.38,712.17 Z "
   stroke-width="0"
   fill="black"
   id="path3132" />
<path
   d="M227.62,701.17 L224.09,696.81 C224.01,696.71,224,696.69,224,696.65 C224,696.54,224.09,696.54,224.27,696.54 H232.52 L233.37,699.02 H233.12 C232.87,698.27,232.21,697.67,231.36,697.38 C231.2,697.33,230.52,697.09,229.05,697.09 H224.82 L228.28,701.35 C228.35,701.44,228.37,701.47,228.37,701.51 C228.37,701.55,228.36,701.56,228.3,701.65 L225.06,706.08 H229 C230.14,706.08,232.43,706.01,233.12,704.15 H233.37 L232.52,706.48 H224.27 C224,706.48,223.99,706.47,223.99,706.16 Z "
   stroke-width="0"
   fill="black"
   id="path3134" />
<path
   d="M238.93,702.01 L238.94,702.03 L238.95,702.06 L238.95,702.09 L238.96,702.13 L238.97,702.17 L238.99,702.21 L239,702.25 L239.01,702.3 L239.03,702.34 L239.05,702.39 L239.07,702.44 L239.09,702.49 L239.11,702.54 L239.13,702.59 L239.16,702.64 L239.19,702.69 L239.22,702.74 L239.25,702.78 L239.28,702.83 L239.32,702.87 L239.35,702.92 L239.39,702.96 L239.43,703 L239.48,703.03 L239.52,703.06 L239.57,703.09 L239.6,703.1 L239.62,703.12 L239.65,703.13 L239.68,703.14 L239.7,703.15 L239.73,703.15 L239.76,703.16 L239.79,703.17 L239.82,703.17 L239.85,703.17 L239.88,703.18 L239.92,703.18 C239.97,703.18,240.21,703.18,240.41,703.05 C240.14,703,239.94,702.75,239.94,702.51 C239.94,702.35,240.05,702.16,240.32,702.16 C240.53,702.16,240.85,702.34,240.85,702.74 C240.85,703.26,240.26,703.4,239.93,703.4 C239.35,703.4,239,702.87,238.88,702.64 C238.63,703.3,238.1,703.4,237.81,703.4 C236.77,703.4,236.21,702.11,236.21,701.87 C236.21,701.77,236.3,701.77,236.32,701.77 C236.4,701.77,236.43,701.79,236.46,701.88 C236.79,702.93,237.45,703.18,237.79,703.18 C237.98,703.18,238.32,703.09,238.32,702.51 C238.32,702.2,238.16,701.54,237.79,700.15 C237.63,699.53,237.28,699.11,236.84,699.11 C236.78,699.11,236.55,699.11,236.35,699.24 C236.59,699.29,236.81,699.5,236.81,699.78 C236.81,700.05,236.59,700.13,236.45,700.13 C236.15,700.13,235.9,699.87,235.9,699.55 C235.9,699.09,236.4,698.9,236.83,698.9 C237.49,698.9,237.85,699.59,237.88,699.65 C238,699.28,238.35,698.9,238.95,698.9 C239.98,698.9,240.54,700.18,240.54,700.43 C240.54,700.53,240.45,700.53,240.42,700.53 C240.34,700.53,240.32,700.48,240.29,700.42 C239.97,699.35,239.29,699.11,238.97,699.11 C238.58,699.11,238.43,699.43,238.43,699.77 C238.43,699.99,238.48,700.21,238.59,700.64 Z "
   stroke-width="0"
   fill="black"
   id="path3136" />
<path
   d="M243.56,701.86 L243.56,701.87 L243.56,701.88 L243.56,701.89 L243.56,701.9 L243.55,701.91 L243.55,701.92 L243.55,701.93 L243.54,701.94 L243.54,701.96 L243.53,701.97 L243.53,701.98 L243.52,701.99 L243.52,702 L243.51,702.01 L243.5,702.02 L243.49,702.03 L243.48,702.04 L243.48,702.05 L243.47,702.06 L243.45,702.07 L243.44,702.07 L243.43,702.08 L243.42,702.09 L243.41,702.09 L243.39,702.1 L243.38,702.11 L243.36,702.11 L243.35,702.11 L243.33,702.12 L243.32,702.12 L243.3,702.12 L243.28,702.12 C243.09,702.12,242.89,701.94,242.89,701.74 C242.89,701.62,242.98,701.47,243.17,701.47 C243.37,701.47,243.56,701.67,243.56,701.86 Z "
   stroke-width="0"
   fill="black"
   id="path3138" />
<path
   d="M242.14,698.32 L242.13,698.31 L242.13,698.29 L242.12,698.26 L242.11,698.24 L242.11,698.22 L242.1,698.21 L242.1,698.19 L242.09,698.17 L242.09,698.15 L242.08,698.13 L242.08,698.11 L242.08,698.1 L242.08,698.09 L242.08,698.08 L242.08,698.07 L242.08,698.06 L242.08,698.05 L242.08,698.04 L242.08,698.03 C242.08,697.71,242.35,697.44,242.74,697.44 C243.43,697.44,243.74,698.4,243.74,698.5 C243.74,698.59,243.65,698.59,243.63,698.59 C243.53,698.59,243.52,698.55,243.5,698.48 C243.34,697.92,243.03,697.64,242.76,697.64 C242.62,697.64,242.58,697.73,242.58,697.88 C242.58,698.04,242.63,698.17,242.7,698.32 C242.77,698.51,242.84,698.7,242.92,698.88 C242.98,699.05,243.23,699.68,243.26,699.76 C243.28,699.83,243.3,699.92,243.3,699.99 C243.3,700.31,243.02,700.58,242.64,700.58 C241.95,700.58,241.63,699.63,241.63,699.51 C241.63,699.42,241.73,699.42,241.75,699.42 C241.85,699.42,241.85,699.46,241.87,699.53 C242.05,700.13,242.36,700.38,242.62,700.38 C242.73,700.38,242.79,700.33,242.79,700.14 C242.79,699.98,242.75,699.87,242.58,699.44 Z "
   stroke-width="0"
   fill="black"
   id="path3140" />
<path
   d="M226.29,688.9 L226.23,688.91 L226.17,688.93 L226.11,688.95 L226.05,688.96 L225.99,688.98 L225.93,689 L225.88,689.02 L225.82,689.05 L225.77,689.07 L225.71,689.1 L225.66,689.13 L225.61,689.16 L225.58,689.17 L225.56,689.19 L225.54,689.21 L225.51,689.23 L225.49,689.24 L225.47,689.26 L225.44,689.28 L225.42,689.3 C224.96,689.76,224.82,690.41,224.82,691.03 C224.82,691.48,224.87,691.89,225,692.3 C225.11,692.65,225.28,692.96,225.54,693.21 C225.9,693.57,226.42,693.68,226.9,693.68 C227.32,693.68,227.76,693.54,228.06,693.24 C228.29,693.01,228.44,692.73,228.52,692.42 C228.63,692,228.65,691.6,228.65,691.16 C228.65,690.63,228.62,690.09,228.47,689.57 C228.37,689.21,228.23,688.84,227.95,688.56 C227.62,688.23,227.19,688.01,226.73,688.01 C226.54,688.01,226.3,688.04,226.09,688.07 C225.96,688.09,225.78,688.09,225.63,688.09 C225.3,688.09,224.96,688.02,224.74,687.79 C224.53,687.59,224.36,687.22,224.25,686.9 L224.46,686.81 C224.53,686.99,224.65,687.23,224.74,687.32 C224.9,687.47,225.16,687.48,225.38,687.48 C225.59,687.48,225.8,687.45,226.01,687.41 L227.92,686.99 C228.11,686.94,228.31,686.94,228.52,686.94 C228.74,686.94,228.94,687.09,229.09,687.26 C229.35,687.55,229.46,687.89,229.56,688.22 L229.37,688.3 C229.28,688.07,229.18,687.86,228.99,687.69 C228.88,687.58,228.76,687.47,228.61,687.47 C228.48,687.47,227.68,687.66,227.56,687.7 C227.4,687.76,227.32,687.78,227.25,687.84 C227.68,687.96,228.06,688.2,228.38,688.52 C229.07,689.22,229.36,690.19,229.36,691.16 C229.36,691.62,229.31,692.03,229.18,692.46 C229.09,692.79,228.94,693.09,228.7,693.33 C228.25,693.78,227.62,693.94,226.99,693.94 C226.26,693.94,225.5,693.82,224.97,693.29 C224.39,692.7,224.15,691.94,224.15,691.11 C224.15,690.39,224.42,689.69,224.93,689.18 C225.26,688.84,225.73,688.69,226.2,688.69 Z "
   stroke-width="0"
   fill="black"
   id="path3142" />
</g>    <g
       ns0:preamble="/home/juri/uni/Masterarbeit/LaTeX/Graphics/preamble.tex"
       ns0:text="\\begin{minipage}{8cm}\n\ntest\n\n$\\sum x_i$\n\n$\\q$\n\n$y^2=C(x)$\n\n$y=p(x)$\n\n\\end{minipage}"
       text-anchor="start"
       word-spacing="normal"
       letter-spacing="normal"
       font-size-adjust="none"
       font-stretch="normal"
       font-weight="normal"
       font-variant="normal"
       font-style="normal"
       fill-opacity="1"
       fill-rule="evenodd"
       fill="none"
       stroke-opacity="1"
       stroke-dashoffset="0"
       stroke-dasharray="none"
       stroke-miterlimit="10.433"
       stroke-linejoin="miter"
       stroke-linecap="butt"
       stroke="black"
       xml:space="preserve"
       transform="matrix(1.000000,0,0,-1.000000,-200.000000,750.000000)"
       id="content">
<path
   id="path4014"
   fill="black"
   stroke-width="0"
   d="M225.16,714.95 H226.58 V715.26 H225.16 V717.09 H224.91 C224.9,716.27,224.6,715.21,223.62,715.17 V714.95 H224.47 V712.2 C224.47,710.97,225.4,710.85,225.75,710.85 C226.46,710.85,226.74,711.56,226.74,712.2 V712.77 H226.49 V712.22 C226.49,711.48,226.19,711.1,225.82,711.1 C225.16,711.1,225.16,712.01,225.16,712.18 Z " />
<path
   id="path4016"
   fill="black"
   stroke-width="0"
   d="M228.42,713.26 L228.43,713.47 C228.49,714.96,229.32,715.21,229.66,715.21 C230.69,715.21,230.79,713.86,230.79,713.47 H228.43 L228.42,713.26 H231.2 C231.41,713.26,231.45,713.26,231.45,713.47 C231.45,714.46,230.91,715.43,229.66,715.43 C228.51,715.43,227.59,714.4,227.59,713.15 C227.59,711.82,228.63,710.85,229.78,710.85 C231,710.85,231.45,711.96,231.45,712.15 C231.45,712.25,231.37,712.27,231.32,712.27 C231.23,712.27,231.21,712.21,231.18,712.13 C230.84,711.1,229.94,711.1,229.84,711.1 C229.34,711.1,228.94,711.4,228.71,711.77 C228.42,712.25,228.42,712.91,228.42,713.26 Z " />
<path
   id="path4018"
   fill="black"
   stroke-width="0"
   d="M233.81,712.9 L233.83,712.89 L233.85,712.89 L233.88,712.88 L233.91,712.87 L233.95,712.87 L233.98,712.86 L234.02,712.85 L234.06,712.84 L234.1,712.82 L234.14,712.81 L234.19,712.79 L234.23,712.78 L234.28,712.76 L234.32,712.74 L234.36,712.72 L234.41,712.69 L234.45,712.66 L234.49,712.64 L234.53,712.61 L234.57,712.57 L234.61,712.54 L234.65,712.5 L234.68,712.46 L234.71,712.42 L234.74,712.37 L234.75,712.35 L234.77,712.33 L234.78,712.3 L234.79,712.28 L234.8,712.25 L234.81,712.22 L234.82,712.19 L234.82,712.17 L234.83,712.14 L234.83,712.11 L234.84,712.08 L234.84,712.04 L234.84,712.01 L234.84,711.98 C234.84,711.47,234.49,711.07,233.72,711.07 C232.88,711.07,232.52,711.64,232.33,712.49 C232.3,712.62,232.29,712.66,232.19,712.66 C232.06,712.66,232.06,712.59,232.06,712.41 V711.09 C232.06,710.92,232.06,710.85,232.17,710.85 C232.22,710.85,232.23,710.86,232.42,711.05 C232.44,711.07,232.44,711.09,232.62,711.28 C233.06,710.86,233.51,710.85,233.72,710.85 C234.86,710.85,235.32,711.52,235.32,712.24 C235.32,712.77,235.02,713.07,234.9,713.18 C234.57,713.5,234.19,713.58,233.77,713.66 C233.21,713.77,232.54,713.9,232.54,714.48 C232.54,714.83,232.8,715.24,233.66,715.24 C234.75,715.24,234.8,714.34,234.82,714.03 C234.83,713.94,234.92,713.94,234.94,713.94 C235.07,713.94,235.07,713.99,235.07,714.18 V715.19 C235.07,715.36,235.07,715.43,234.96,715.43 C234.91,715.43,234.89,715.43,234.76,715.31 C234.73,715.27,234.63,715.18,234.59,715.15 C234.22,715.43,233.81,715.43,233.66,715.43 C232.44,715.43,232.06,714.76,232.06,714.2 C232.06,713.85,232.22,713.57,232.49,713.35 C232.81,713.09,233.09,713.03,233.81,712.9 Z " />
<path
   id="path4020"
   fill="black"
   stroke-width="0"
   d="M237.39,714.95 H238.81 V715.26 H237.39 V717.09 H237.14 C237.13,716.27,236.83,715.21,235.85,715.17 V714.95 H236.7 V712.2 C236.7,710.97,237.63,710.85,237.99,710.85 C238.69,710.85,238.97,711.56,238.97,712.2 V712.77 H238.72 V712.22 C238.72,711.48,238.43,711.1,238.06,711.1 C237.39,711.1,237.39,712.01,237.39,712.18 Z " />
<path
   id="path4022"
   fill="black"
   stroke-width="0"
   d="M227.63,701.16 L224.09,696.78 C224.01,696.68,224,696.66,224,696.62 C224,696.52,224.09,696.52,224.27,696.52 H232.53 L233.38,699 H233.14 C232.89,698.25,232.22,697.64,231.37,697.35 C231.21,697.3,230.53,697.06,229.06,697.06 H224.83 L228.28,701.34 C228.35,701.43,228.37,701.46,228.37,701.5 C228.37,701.54,228.36,701.55,228.3,701.64 L225.07,706.08 H229.01 C230.15,706.08,232.44,706.01,233.14,704.15 H233.38 L232.53,706.48 H224.27 C224,706.48,223.99,706.47,223.99,706.16 Z " />
<path
   id="path4024"
   fill="black"
   stroke-width="0"
   d="M238.94,702.02 L238.95,702.04 L238.95,702.07 L238.96,702.1 L238.97,702.14 L238.98,702.18 L238.99,702.22 L239.01,702.26 L239.02,702.31 L239.04,702.36 L239.05,702.4 L239.07,702.45 L239.09,702.5 L239.12,702.55 L239.14,702.6 L239.17,702.65 L239.19,702.7 L239.22,702.75 L239.25,702.8 L239.29,702.84 L239.32,702.89 L239.36,702.93 L239.4,702.97 L239.44,703.01 L239.49,703.04 L239.53,703.08 L239.58,703.11 L239.61,703.12 L239.63,703.13 L239.66,703.14 L239.69,703.15 L239.71,703.16 L239.74,703.17 L239.77,703.18 L239.8,703.18 L239.83,703.19 L239.86,703.19 L239.89,703.19 L239.93,703.19 C239.98,703.19,240.21,703.19,240.42,703.06 C240.15,703.01,239.95,702.76,239.95,702.52 C239.95,702.36,240.06,702.18,240.32,702.18 C240.54,702.18,240.86,702.35,240.86,702.75 C240.86,703.27,240.27,703.41,239.94,703.41 C239.36,703.41,239.01,702.88,238.89,702.65 C238.64,703.31,238.1,703.41,237.81,703.41 C236.78,703.41,236.21,702.13,236.21,701.88 C236.21,701.78,236.31,701.78,236.33,701.78 C236.41,701.78,236.44,701.8,236.46,701.89 C236.8,702.94,237.46,703.19,237.79,703.19 C237.98,703.19,238.33,703.1,238.33,702.52 C238.33,702.22,238.16,701.55,237.79,700.15 C237.63,699.54,237.29,699.12,236.85,699.12 C236.79,699.12,236.56,699.12,236.35,699.25 C236.6,699.3,236.82,699.51,236.82,699.78 C236.82,700.05,236.6,700.13,236.45,700.13 C236.15,700.13,235.9,699.87,235.9,699.55 C235.9,699.1,236.4,698.9,236.84,698.9 C237.49,698.9,237.85,699.59,237.88,699.66 C238,699.29,238.36,698.9,238.96,698.9 C239.99,698.9,240.55,700.18,240.55,700.43 C240.55,700.53,240.46,700.53,240.43,700.53 C240.35,700.53,240.32,700.49,240.3,700.42 C239.98,699.36,239.3,699.12,238.98,699.12 C238.59,699.12,238.43,699.44,238.43,699.78 C238.43,699.99,238.49,700.21,238.6,700.65 Z " />
<path
   id="path4026"
   fill="black"
   stroke-width="0"
   d="M243.57,701.87 L243.56,701.88 L243.56,701.89 L243.56,701.9 L243.56,701.91 L243.56,701.92 L243.56,701.93 L243.55,701.94 L243.55,701.95 L243.54,701.97 L243.54,701.98 L243.53,701.99 L243.53,702 L243.52,702.01 L243.51,702.02 L243.51,702.03 L243.5,702.04 L243.49,702.05 L243.48,702.06 L243.47,702.07 L243.46,702.08 L243.45,702.08 L243.44,702.09 L243.42,702.1 L243.41,702.11 L243.4,702.11 L243.38,702.12 L243.37,702.12 L243.35,702.12 L243.34,702.13 L243.32,702.13 L243.3,702.13 L243.29,702.13 C243.1,702.13,242.9,701.95,242.9,701.75 C242.9,701.63,242.99,701.48,243.17,701.48 C243.38,701.48,243.57,701.68,243.57,701.87 Z " />
<path
   id="path4028"
   fill="black"
   stroke-width="0"
   d="M242.14,698.32 L242.13,698.29 L242.12,698.26 L242.11,698.24 L242.11,698.22 L242.1,698.2 L242.1,698.19 L242.1,698.17 L242.09,698.15 L242.09,698.13 L242.08,698.11 L242.08,698.09 L242.08,698.08 L242.08,698.07 L242.08,698.06 L242.08,698.05 L242.08,698.04 L242.08,698.03 C242.08,697.7,242.36,697.44,242.74,697.44 C243.44,697.44,243.75,698.4,243.75,698.51 C243.75,698.59,243.65,698.59,243.63,698.59 C243.54,698.59,243.53,698.55,243.5,698.48 C243.34,697.92,243.04,697.63,242.76,697.63 C242.62,697.63,242.59,697.72,242.59,697.88 C242.59,698.04,242.64,698.17,242.7,698.32 C242.77,698.51,242.85,698.7,242.92,698.88 C242.99,699.05,243.24,699.68,243.26,699.77 C243.29,699.84,243.31,699.92,243.31,699.99 C243.31,700.32,243.03,700.58,242.64,700.58 C241.95,700.58,241.63,699.64,241.63,699.52 C241.63,699.42,241.73,699.42,241.75,699.42 C241.85,699.42,241.86,699.46,241.88,699.54 C242.06,700.14,242.37,700.39,242.62,700.39 C242.74,700.39,242.8,700.33,242.8,700.14 C242.8,699.98,242.76,699.88,242.58,699.45 Z " />
<path
   id="path4030"
   fill="black"
   stroke-width="0"
   d="M226.29,688.91 L226.23,688.92 L226.17,688.94 L226.11,688.95 L226.05,688.97 L226,688.99 L225.94,689.01 L225.88,689.03 L225.82,689.05 L225.77,689.08 L225.72,689.11 L225.66,689.13 L225.61,689.16 L225.59,689.18 L225.56,689.2 L225.54,689.22 L225.51,689.23 L225.49,689.25 L225.47,689.27 L225.45,689.29 L225.43,689.31 C224.97,689.77,224.82,690.42,224.82,691.05 C224.82,691.5,224.87,691.9,225.01,692.32 C225.12,692.67,225.29,692.98,225.54,693.23 C225.9,693.59,226.42,693.7,226.91,693.7 C227.33,693.7,227.77,693.56,228.07,693.26 C228.29,693.03,228.44,692.75,228.52,692.44 C228.64,692.01,228.66,691.61,228.66,691.18 C228.66,690.64,228.62,690.1,228.47,689.58 C228.37,689.21,228.23,688.85,227.96,688.57 C227.63,688.24,227.2,688.02,226.73,688.02 C226.54,688.02,226.3,688.05,226.09,688.08 C225.96,688.1,225.78,688.1,225.63,688.1 C225.3,688.1,224.97,688.03,224.74,687.8 C224.53,687.59,224.36,687.22,224.25,686.9 L224.46,686.81 C224.53,686.99,224.65,687.23,224.75,687.32 C224.91,687.47,225.17,687.48,225.38,687.48 C225.59,687.48,225.8,687.45,226.01,687.41 L227.93,686.99 C228.12,686.94,228.31,686.94,228.52,686.94 C228.75,686.94,228.95,687.09,229.1,687.26 C229.36,687.55,229.47,687.89,229.57,688.23 L229.38,688.31 C229.29,688.08,229.19,687.87,229,687.69 C228.89,687.58,228.77,687.47,228.61,687.47 C228.48,687.47,227.69,687.66,227.57,687.7 C227.41,687.76,227.33,687.79,227.26,687.84 C227.69,687.97,228.07,688.21,228.38,688.53 C229.08,689.22,229.37,690.2,229.37,691.18 C229.37,691.64,229.32,692.04,229.19,692.48 C229.1,692.81,228.95,693.11,228.7,693.35 C228.25,693.8,227.63,693.97,227,693.97 C226.26,693.97,225.51,693.84,224.98,693.31 C224.39,692.72,224.15,691.95,224.15,691.13 C224.15,690.4,224.42,689.7,224.94,689.18 C225.27,688.85,225.73,688.7,226.2,688.7 Z " />
<path
   id="path4032"
   fill="black"
   stroke-width="0"
   d="M228.27,678.89 L228.28,678.9 L228.28,678.91 L228.28,678.91 L228.28,678.92 L228.28,678.93 L228.29,678.94 L228.29,678.95 L228.29,678.96 L228.29,678.97 L228.3,678.98 L228.3,678.99 L228.3,678.99 L228.3,679 L228.3,679.01 L228.31,679.02 L228.31,679.02 L228.31,679.03 L228.31,679.03 L228.31,679.04 L228.31,679.05 L228.31,679.05 L228.31,679.06 L228.31,679.07 L228.31,679.08 L228.31,679.09 L228.31,679.1 L228.31,679.1 L228.31,679.11 L228.31,679.12 L228.31,679.12 C228.31,679.3,228.18,679.39,228.02,679.39 C227.93,679.39,227.77,679.33,227.68,679.18 C227.66,679.13,227.58,678.82,227.54,678.64 C227.47,678.39,227.4,678.12,227.34,677.85 L226.89,676.05 C226.85,675.9,226.42,675.21,225.76,675.21 C225.26,675.21,225.15,675.65,225.15,676.01 C225.15,676.47,225.32,677.09,225.65,677.97 C225.81,678.38,225.85,678.48,225.85,678.68 C225.85,679.13,225.54,679.5,225.04,679.5 C224.09,679.5,223.72,678.06,223.72,677.97 C223.72,677.87,223.82,677.87,223.84,677.87 C223.94,677.87,223.95,677.89,224,678.05 C224.27,678.98,224.67,679.28,225.01,679.28 C225.09,679.28,225.26,679.28,225.26,678.96 C225.26,678.71,225.16,678.46,225.09,678.27 C224.69,677.21,224.51,676.64,224.51,676.17 C224.51,675.29,225.14,674.99,225.72,674.99 C226.11,674.99,226.45,675.16,226.73,675.44 C226.6,674.92,226.48,674.43,226.08,673.9 C225.82,673.56,225.45,673.27,224.99,673.27 C224.85,673.27,224.4,673.3,224.23,673.69 C224.39,673.69,224.52,673.69,224.66,673.81 C224.76,673.9,224.86,674.03,224.86,674.22 C224.86,674.53,224.59,674.57,224.49,674.57 C224.26,674.57,223.93,674.41,223.93,673.92 C223.93,673.42,224.37,673.05,224.99,673.05 C226.01,673.05,227.04,673.96,227.32,675.09 Z " />
<path
   id="path4034"
   fill="black"
   stroke-width="0"
   d="M232.2,679.98 H231.96 C231.94,679.83,231.87,679.42,231.78,679.35 C231.72,679.3,231.19,679.3,231.09,679.3 H229.8 C230.54,679.95,230.78,680.15,231.2,680.48 C231.72,680.89,232.2,681.32,232.2,681.98 C232.2,682.83,231.46,683.34,230.57,683.34 C229.7,683.34,229.11,682.74,229.11,682.09 C229.11,681.74,229.41,681.7,229.48,681.7 C229.65,681.7,229.85,681.82,229.85,682.07 C229.85,682.2,229.8,682.44,229.44,682.44 C229.66,682.94,230.13,683.09,230.46,683.09 C231.16,683.09,231.52,682.55,231.52,681.98 C231.52,681.38,231.09,680.9,230.87,680.64 L229.18,678.98 C229.11,678.92,229.11,678.91,229.11,678.71 H231.99 Z " />
<path
   id="path4036"
   fill="black"
   stroke-width="0"
   d="M242.76,678.35 L242.79,678.36 L242.81,678.36 L242.84,678.36 L242.86,678.36 L242.87,678.36 L242.89,678.36 L242.9,678.36 L242.92,678.36 L242.93,678.37 L242.94,678.37 L242.96,678.37 L242.97,678.38 L242.98,678.38 L242.99,678.38 L243.01,678.39 L243.02,678.4 L243.03,678.4 L243.04,678.41 L243.05,678.42 L243.06,678.43 L243.06,678.44 L243.07,678.44 L243.07,678.45 L243.07,678.46 L243.08,678.46 L243.08,678.47 L243.08,678.48 L243.09,678.48 L243.09,678.49 L243.09,678.5 L243.09,678.5 L243.09,678.51 L243.09,678.52 L243.09,678.53 L243.1,678.54 L243.1,678.55 L243.1,678.55 C243.1,678.75,242.91,678.75,242.77,678.75 H236.8 C236.66,678.75,236.47,678.75,236.47,678.55 C236.47,678.35,236.66,678.35,236.81,678.35 Z " />
<path
   id="path4038"
   fill="black"
   stroke-width="0"
   d="M242.77,676.42 L242.78,676.42 L242.79,676.42 L242.82,676.42 L242.85,676.42 L242.86,676.43 L242.88,676.43 L242.89,676.43 L242.9,676.43 L242.92,676.43 L242.93,676.43 L242.95,676.44 L242.96,676.44 L242.97,676.44 L242.98,676.45 L243,676.45 L243.01,676.46 L243.02,676.46 L243.03,676.47 L243.04,676.48 L243.05,676.49 L243.06,676.5 L243.06,676.5 L243.06,676.51 L243.07,676.51 L243.07,676.52 L243.07,676.52 L243.08,676.53 L243.08,676.54 L243.08,676.54 L243.09,676.55 L243.09,676.56 L243.09,676.56 L243.09,676.57 L243.09,676.58 L243.09,676.59 L243.09,676.6 L243.1,676.6 L243.1,676.61 L243.1,676.62 C243.1,676.82,242.91,676.82,242.76,676.82 H236.81 C236.66,676.82,236.47,676.82,236.47,676.62 C236.47,676.42,236.66,676.42,236.8,676.42 Z " />
<path
   id="path4040"
   fill="black"
   stroke-width="0"
   d="M254,682.02 L254,682.02 L254,682.03 L254,682.03 L254,682.03 L254,682.04 L254,682.04 L254,682.05 L253.99,682.05 L253.99,682.05 L253.99,682.06 L253.99,682.06 L253.99,682.07 L253.99,682.07 L253.98,682.07 L253.98,682.08 L253.98,682.08 L253.97,682.09 L253.97,682.09 L253.97,682.09 L253.96,682.1 L253.96,682.1 L253.95,682.1 L253.95,682.11 L253.94,682.11 L253.94,682.11 L253.94,682.11 L253.93,682.11 L253.93,682.12 L253.93,682.12 L253.92,682.12 L253.92,682.12 L253.92,682.12 L253.91,682.12 L253.91,682.12 L253.91,682.12 L253.9,682.12 L253.9,682.12 L253.89,682.12 L253.89,682.12 C253.86,682.12,253.85,682.11,253.74,682 L253.04,681.23 C252.95,681.37,252.49,682.12,251.39,682.12 C249.17,682.12,246.93,679.92,246.93,677.61 C246.93,675.96,248.1,674.88,249.63,674.88 C250.49,674.88,251.25,675.28,251.78,675.73 C252.7,676.55,252.87,677.46,252.87,677.49 C252.87,677.59,252.77,677.59,252.75,677.59 C252.69,677.59,252.64,677.57,252.62,677.49 C252.54,677.2,252.3,676.49,251.62,675.91 C250.93,675.36,250.3,675.19,249.79,675.19 C248.89,675.19,247.83,675.71,247.83,677.26 C247.83,677.83,248.04,679.44,249.04,680.61 C249.65,681.31,250.58,681.81,251.47,681.81 C252.49,681.81,253.07,681.04,253.07,679.89 C253.07,679.49,253.04,679.48,253.04,679.38 C253.04,679.28,253.15,679.28,253.19,679.28 C253.32,679.28,253.32,679.3,253.37,679.48 Z " />
<path
   id="path4042"
   fill="black"
   stroke-width="0"
   d="M257.55,672.71 L257.55,672.71 L257.55,672.72 L257.55,672.72 L257.55,672.72 L257.55,672.73 L257.55,672.73 L257.55,672.73 L257.55,672.74 L257.55,672.74 L257.55,672.74 L257.54,672.75 L257.54,672.75 L257.54,672.76 L257.53,672.76 L257.53,672.77 L257.52,672.78 L257.52,672.78 L257.51,672.79 L257.51,672.79 L257.51,672.8 L257.5,672.8 L257.5,672.81 L257.5,672.81 L257.49,672.81 L257.49,672.82 L257.48,672.82 L257.48,672.83 L257.47,672.83 L257.47,672.84 L257.46,672.85 L257.46,672.85 L257.45,672.86 L257.45,672.86 L257.44,672.87 L257.44,672.88 L257.43,672.88 L257.42,672.89 L257.42,672.9 L257.41,672.9 L257.4,672.91 L257.39,672.92 L257.39,672.93 C256.14,674.18,255.82,676.06,255.82,677.59 C255.82,679.32,256.2,681.05,257.43,682.3 C257.55,682.42,257.55,682.44,257.55,682.47 C257.55,682.54,257.52,682.57,257.46,682.57 C257.36,682.57,256.46,681.89,255.87,680.63 C255.36,679.53,255.24,678.42,255.24,677.59 C255.24,676.81,255.35,675.61,255.9,674.48 C256.5,673.25,257.36,672.61,257.46,672.61 C257.52,672.61,257.55,672.64,257.55,672.71 Z " />
<path
   id="path4044"
   fill="black"
   stroke-width="0"
   d="M261.46,678.11 L261.47,678.13 L261.48,678.16 L261.48,678.19 L261.49,678.23 L261.5,678.27 L261.52,678.31 L261.53,678.35 L261.54,678.4 L261.56,678.45 L261.58,678.49 L261.6,678.54 L261.62,678.59 L261.64,678.64 L261.66,678.69 L261.69,678.74 L261.72,678.79 L261.75,678.84 L261.78,678.89 L261.81,678.93 L261.85,678.98 L261.88,679.02 L261.92,679.06 L261.96,679.1 L262.01,679.13 L262.06,679.17 L262.1,679.2 L262.13,679.21 L262.16,679.22 L262.18,679.23 L262.21,679.24 L262.24,679.25 L262.26,679.26 L262.29,679.27 L262.32,679.27 L262.35,679.28 L262.38,679.28 L262.42,679.28 L262.45,679.28 C262.5,679.28,262.74,679.28,262.95,679.15 C262.67,679.1,262.47,678.85,262.47,678.61 C262.47,678.46,262.58,678.27,262.85,678.27 C263.07,678.27,263.39,678.45,263.39,678.84 C263.39,679.36,262.8,679.5,262.46,679.5 C261.88,679.5,261.53,678.97,261.41,678.74 C261.16,679.4,260.63,679.5,260.34,679.5 C259.3,679.5,258.73,678.22,258.73,677.97 C258.73,677.87,258.83,677.87,258.85,677.87 C258.93,677.87,258.96,677.89,258.98,677.98 C259.32,679.03,259.98,679.28,260.32,679.28 C260.51,679.28,260.86,679.19,260.86,678.61 C260.86,678.3,260.68,677.64,260.32,676.24 C260.16,675.63,259.81,675.21,259.37,675.21 C259.31,675.21,259.08,675.21,258.87,675.34 C259.12,675.39,259.34,675.6,259.34,675.88 C259.34,676.14,259.12,676.22,258.97,676.22 C258.67,676.22,258.42,675.96,258.42,675.65 C258.42,675.19,258.92,674.99,259.36,674.99 C260.02,674.99,260.38,675.68,260.41,675.74 C260.53,675.38,260.89,674.99,261.48,674.99 C262.51,674.99,263.08,676.27,263.08,676.52 C263.08,676.62,262.99,676.62,262.96,676.62 C262.87,676.62,262.85,676.58,262.83,676.51 C262.5,675.45,261.82,675.21,261.5,675.21 C261.11,675.21,260.95,675.53,260.95,675.86 C260.95,676.08,261.01,676.3,261.12,676.74 Z " />
<path
   id="path4046"
   fill="black"
   stroke-width="0"
   d="M266.71,677.59 L266.71,677.66 L266.71,677.74 L266.7,677.82 L266.7,677.9 L266.69,678.07 L266.68,678.24 L266.66,678.43 L266.64,678.62 L266.62,678.81 L266.58,679.01 L266.54,679.22 L266.5,679.42 L266.44,679.63 L266.38,679.85 L266.31,680.06 L266.23,680.27 L266.19,680.38 L266.15,680.48 L266.1,680.59 L266.05,680.7 C265.45,681.92,264.6,682.57,264.49,682.57 C264.43,682.57,264.39,682.53,264.39,682.47 C264.39,682.44,264.39,682.42,264.58,682.24 C265.56,681.25,266.13,679.67,266.13,677.59 C266.13,675.89,265.76,674.13,264.52,672.88 C264.39,672.76,264.39,672.74,264.39,672.71 C264.39,672.65,264.43,672.61,264.49,672.61 C264.6,672.61,265.49,673.28,266.08,674.55 C266.59,675.65,266.71,676.75,266.71,677.59 Z " />
<path
   id="path4048"
   fill="black"
   stroke-width="0"
   d="M228.27,666.94 L228.28,666.94 L228.28,666.95 L228.28,666.96 L228.28,666.96 L228.28,666.97 L228.29,666.99 L228.29,667 L228.29,667.01 L228.29,667.01 L228.3,667.02 L228.3,667.03 L228.3,667.04 L228.3,667.05 L228.3,667.05 L228.31,667.06 L228.31,667.07 L228.31,667.07 L228.31,667.08 L228.31,667.08 L228.31,667.09 L228.31,667.1 L228.31,667.1 L228.31,667.11 L228.31,667.12 L228.31,667.13 L228.31,667.14 L228.31,667.15 L228.31,667.15 L228.31,667.16 L228.31,667.17 C228.31,667.35,228.18,667.44,228.02,667.44 C227.93,667.44,227.77,667.38,227.68,667.23 C227.66,667.18,227.58,666.87,227.54,666.69 C227.47,666.43,227.4,666.16,227.34,665.89 L226.89,664.1 C226.85,663.95,226.42,663.25,225.76,663.25 C225.26,663.25,225.15,663.69,225.15,664.06 C225.15,664.52,225.32,665.14,225.65,666.01 C225.81,666.42,225.85,666.53,225.85,666.73 C225.85,667.18,225.54,667.55,225.04,667.55 C224.09,667.55,223.72,666.1,223.72,666.01 C223.72,665.91,223.82,665.91,223.84,665.91 C223.94,665.91,223.95,665.93,224,666.09 C224.27,667.03,224.67,667.33,225.01,667.33 C225.09,667.33,225.26,667.33,225.26,667.01 C225.26,666.76,225.16,666.5,225.09,666.31 C224.69,665.26,224.51,664.69,224.51,664.22 C224.51,663.33,225.14,663.03,225.72,663.03 C226.11,663.03,226.45,663.2,226.73,663.48 C226.6,662.96,226.48,662.47,226.08,661.95 C225.82,661.61,225.45,661.32,224.99,661.32 C224.85,661.32,224.4,661.35,224.23,661.74 C224.39,661.74,224.52,661.74,224.66,661.86 C224.76,661.95,224.86,662.08,224.86,662.27 C224.86,662.58,224.59,662.61,224.49,662.61 C224.26,662.61,223.93,662.46,223.93,661.97 C223.93,661.47,224.37,661.1,224.99,661.1 C226.01,661.1,227.04,662.01,227.32,663.13 Z " />
<path
   id="path4050"
   fill="black"
   stroke-width="0"
   d="M238.29,666.4 L238.32,666.4 L238.34,666.4 L238.37,666.4 L238.39,666.4 L238.4,666.4 L238.42,666.4 L238.43,666.41 L238.45,666.41 L238.46,666.41 L238.47,666.41 L238.49,666.42 L238.5,666.42 L238.51,666.43 L238.52,666.43 L238.54,666.44 L238.55,666.44 L238.56,666.45 L238.57,666.46 L238.58,666.46 L238.59,666.47 L238.59,666.48 L238.6,666.49 L238.6,666.5 L238.6,666.5 L238.61,666.51 L238.61,666.51 L238.61,666.52 L238.62,666.53 L238.62,666.53 L238.62,666.54 L238.62,666.55 L238.62,666.56 L238.62,666.56 L238.62,666.57 L238.63,666.58 L238.63,666.59 L238.63,666.6 C238.63,666.8,238.44,666.8,238.3,666.8 H232.33 C232.19,666.8,232,666.8,232,666.6 C232,666.4,232.19,666.4,232.34,666.4 Z " />
<path
   id="path4052"
   fill="black"
   stroke-width="0"
   d="M238.3,664.47 L238.31,664.47 L238.32,664.47 L238.35,664.47 L238.38,664.47 L238.39,664.47 L238.41,664.47 L238.42,664.47 L238.43,664.47 L238.45,664.48 L238.46,664.48 L238.48,664.48 L238.49,664.48 L238.5,664.49 L238.51,664.49 L238.53,664.5 L238.54,664.5 L238.55,664.51 L238.56,664.52 L238.57,664.52 L238.58,664.53 L238.59,664.54 L238.59,664.55 L238.59,664.55 L238.6,664.56 L238.6,664.56 L238.6,664.57 L238.61,664.57 L238.61,664.58 L238.61,664.59 L238.62,664.59 L238.62,664.6 L238.62,664.61 L238.62,664.62 L238.62,664.62 L238.62,664.63 L238.62,664.64 L238.63,664.65 L238.63,664.66 L238.63,664.67 C238.63,664.87,238.44,664.87,238.29,664.87 H232.34 C232.19,664.87,232,664.87,232,664.67 C232,664.47,232.19,664.47,232.33,664.47 Z " />
<path
   id="path4054"
   fill="black"
   stroke-width="0"
   d="M242.41,661.93 L242.4,661.9 L242.39,661.87 L242.38,661.84 L242.38,661.81 L242.37,661.79 L242.36,661.76 L242.36,661.74 L242.35,661.72 L242.34,661.7 L242.33,661.68 L242.33,661.66 L242.32,661.65 L242.31,661.63 L242.3,661.62 L242.28,661.61 L242.27,661.6 L242.26,661.59 L242.24,661.58 L242.23,661.57 L242.21,661.56 L242.19,661.55 L242.17,661.55 L242.15,661.54 L242.13,661.54 L242.1,661.53 L242.07,661.53 L242.06,661.53 L242.04,661.52 L242.03,661.52 L242.01,661.52 L242,661.52 L241.98,661.52 L241.96,661.52 L241.95,661.52 L241.93,661.52 L241.91,661.52 L241.89,661.52 L241.87,661.52 C241.75,661.52,241.64,661.52,241.64,661.33 C241.64,661.25,241.69,661.21,241.77,661.21 C242.04,661.21,242.33,661.24,242.6,661.24 C242.93,661.24,243.27,661.21,243.59,661.21 C243.64,661.21,243.77,661.21,243.77,661.41 C243.77,661.52,243.67,661.52,243.53,661.52 C243.03,661.52,243.03,661.59,243.03,661.68 C243.03,661.8,243.45,663.42,243.52,663.67 C243.65,663.38,243.93,663.03,244.44,663.03 L244.43,663.25 C243.77,663.25,243.64,664.08,243.64,664.14 C243.64,664.16,243.64,664.18,243.67,664.3 L244.16,666.25 C244.23,666.52,244.5,666.8,244.68,666.95 C245.03,667.26,245.32,667.33,245.48,667.33 C245.88,667.33,246.12,666.98,246.12,666.39 C246.12,665.8,245.79,664.66,245.61,664.28 C245.27,663.58,244.8,663.25,244.43,663.25 L244.44,663.03 C245.59,663.03,246.84,664.49,246.84,665.95 C246.84,666.89,246.27,667.55,245.51,667.55 C245.02,667.55,244.54,667.19,244.21,666.8 C244.11,667.34,243.68,667.55,243.31,667.55 C242.85,667.55,242.66,667.16,242.57,666.98 C242.4,666.64,242.27,666.04,242.27,666.01 C242.27,665.91,242.37,665.91,242.39,665.91 C242.49,665.91,242.49,665.92,242.55,666.14 C242.73,666.85,242.92,667.33,243.28,667.33 C243.45,667.33,243.59,667.25,243.59,666.87 C243.59,666.64,243.56,666.53,243.52,666.36 Z " />
<path
   id="path4056"
   fill="black"
   stroke-width="0"
   d="M250.26,660.75 L250.26,660.76 L250.26,660.76 L250.26,660.77 L250.26,660.77 L250.26,660.77 L250.26,660.77 L250.26,660.78 L250.26,660.78 L250.26,660.79 L250.26,660.79 L250.25,660.79 L250.25,660.8 L250.25,660.8 L250.24,660.81 L250.24,660.81 L250.23,660.82 L250.23,660.83 L250.22,660.83 L250.22,660.84 L250.22,660.84 L250.21,660.85 L250.21,660.85 L250.21,660.86 L250.2,660.86 L250.2,660.86 L250.19,660.87 L250.19,660.87 L250.18,660.88 L250.18,660.88 L250.17,660.89 L250.17,660.9 L250.16,660.9 L250.16,660.91 L250.15,660.91 L250.15,660.92 L250.14,660.93 L250.13,660.93 L250.13,660.94 L250.12,660.95 L250.11,660.96 L250.1,660.96 L250.1,660.97 C248.85,662.23,248.53,664.11,248.53,665.63 C248.53,667.37,248.91,669.1,250.14,670.34 C250.26,670.47,250.26,670.48,250.26,670.52 C250.26,670.59,250.23,670.61,250.16,670.61 C250.07,670.61,249.17,669.94,248.58,668.67 C248.07,667.58,247.95,666.47,247.95,665.63 C247.95,664.86,248.06,663.65,248.61,662.53 C249.21,661.3,250.07,660.65,250.16,660.65 C250.23,660.65,250.26,660.68,250.26,660.75 Z " />
<path
   id="path4058"
   fill="black"
   stroke-width="0"
   d="M254.17,666.15 L254.18,666.18 L254.19,666.21 L254.19,666.24 L254.2,666.28 L254.21,666.31 L254.23,666.36 L254.24,666.4 L254.25,666.44 L254.27,666.49 L254.29,666.54 L254.31,666.59 L254.33,666.64 L254.35,666.69 L254.37,666.74 L254.4,666.79 L254.43,666.84 L254.46,666.88 L254.49,666.93 L254.52,666.98 L254.56,667.02 L254.59,667.07 L254.63,667.11 L254.67,667.14 L254.72,667.18 L254.77,667.21 L254.81,667.24 L254.84,667.25 L254.87,667.27 L254.89,667.28 L254.92,667.29 L254.95,667.3 L254.97,667.3 L255,667.31 L255.03,667.32 L255.06,667.32 L255.09,667.32 L255.13,667.33 L255.16,667.33 C255.21,667.33,255.45,667.33,255.66,667.2 C255.38,667.15,255.18,666.9,255.18,666.66 C255.18,666.5,255.29,666.31,255.56,666.31 C255.78,666.31,256.1,666.49,256.1,666.89 C256.1,667.41,255.51,667.55,255.17,667.55 C254.59,667.55,254.24,667.02,254.12,666.79 C253.87,667.45,253.34,667.55,253.05,667.55 C252.01,667.55,251.44,666.26,251.44,666.01 C251.44,665.91,251.54,665.91,251.56,665.91 C251.64,665.91,251.67,665.93,251.69,666.02 C252.03,667.08,252.69,667.33,253.03,667.33 C253.22,667.33,253.57,667.24,253.57,666.66 C253.57,666.35,253.4,665.68,253.03,664.29 C252.87,663.67,252.52,663.25,252.08,663.25 C252.02,663.25,251.79,663.25,251.58,663.38 C251.83,663.43,252.05,663.64,252.05,663.92 C252.05,664.19,251.83,664.27,251.68,664.27 C251.38,664.27,251.13,664.01,251.13,663.69 C251.13,663.23,251.63,663.03,252.07,663.03 C252.73,663.03,253.09,663.73,253.12,663.79 C253.24,663.42,253.6,663.03,254.19,663.03 C255.22,663.03,255.79,664.32,255.79,664.57 C255.79,664.67,255.7,664.67,255.67,664.67 C255.58,664.67,255.56,664.63,255.54,664.56 C255.21,663.49,254.53,663.25,254.21,663.25 C253.82,663.25,253.66,663.57,253.66,663.91 C253.66,664.13,253.72,664.35,253.83,664.79 Z " />
<path
   id="path4060"
   fill="black"
   stroke-width="0"
   d="M259.42,665.63 L259.42,665.71 L259.42,665.78 L259.41,665.86 L259.41,665.94 L259.4,666.11 L259.39,666.29 L259.37,666.47 L259.35,666.66 L259.33,666.86 L259.29,667.06 L259.25,667.26 L259.21,667.47 L259.15,667.68 L259.09,667.89 L259.02,668.1 L258.94,668.32 L258.9,668.42 L258.86,668.53 L258.81,668.64 L258.76,668.74 C258.16,669.97,257.3,670.61,257.2,670.61 C257.14,670.61,257.11,670.58,257.11,670.52 C257.11,670.48,257.11,670.47,257.3,670.29 C258.27,669.3,258.84,667.72,258.84,665.63 C258.84,663.93,258.47,662.18,257.23,660.92 C257.11,660.8,257.11,660.78,257.11,660.75 C257.11,660.69,257.14,660.65,257.2,660.65 C257.3,660.65,258.2,661.33,258.79,662.59 C259.3,663.69,259.42,664.8,259.42,665.63 Z " />
</g>  </g>
</svg>
