<?xml version="1.0" encoding="UTF-8" standalone="no"?>
<!-- Created with Inkscape (http://www.inkscape.org/) -->

<svg
   xmlns:ns0="http://www.iki.fi/pav/software/textext/"
   xmlns:dc="http://purl.org/dc/elements/1.1/"
   xmlns:cc="http://creativecommons.org/ns#"
   xmlns:rdf="http://www.w3.org/1999/02/22-rdf-syntax-ns#"
   xmlns:svg="http://www.w3.org/2000/svg"
   xmlns="http://www.w3.org/2000/svg"
   xmlns:sodipodi="http://sodipodi.sourceforge.net/DTD/sodipodi-0.dtd"
   xmlns:inkscape="http://www.inkscape.org/namespaces/inkscape"
   width="744.09448819"
   height="1052.3622047"
   id="svg2"
   version="1.1"
   inkscape:version="0.48.3.1 r9886"
   sodipodi:docname="ink_ext_XXXXXX.svgV0NUAW">
  <sodipodi:namedview
     id="base"
     pagecolor="#ffffff"
     bordercolor="#666666"
     borderopacity="1.0"
     inkscape:pageopacity="0.0"
     inkscape:pageshadow="2"
     inkscape:zoom="0.7"
     inkscape:cx="340.13352"
     inkscape:cy="636.53648"
     inkscape:document-units="px"
     inkscape:current-layer="layer1"
     showgrid="false"
     inkscape:window-width="1440"
     inkscape:window-height="871"
     inkscape:window-x="0"
     inkscape:window-y="26"
     inkscape:window-maximized="1" />
  <defs
     id="defs4">












</defs>
  <metadata
     id="metadata7">
    <rdf:RDF>
      <cc:Work
         rdf:about="">
        <dc:format>image/svg+xml</dc:format>
        <dc:type
           rdf:resource="http://purl.org/dc/dcmitype/StillImage" />
        <dc:title />
      </cc:Work>
    </rdf:RDF>
  </metadata>
  <g
     id="layer1"
     inkscape:groupmode="layer"
     inkscape:label="Layer 1">
    <g
       fill="none"
       fill-opacity="1"
       fill-rule="evenodd"
       stroke="black"
       stroke-linecap="butt"
       stroke-linejoin="miter"
       stroke-opacity="1"
       stroke-dasharray="none"
       stroke-dashoffset="0"
       text-anchor="start"
       id="content"
       transform="matrix(1.000000,0,0,-1.000000,-200.000000,750.000000)"
       xml:space="preserve"
       stroke-miterlimit="10.433"
       font-style="normal"
       font-variant="normal"
       font-weight="normal"
       font-stretch="normal"
       font-size-adjust="none"
       letter-spacing="normal"
       word-spacing="normal"
       ns0:text="\\begin{minipage}{8cm}\n\ntest\n\n$\\sum x_i$\n\n$\\q$\n\n\\end{minipage}"
       ns0:preamble="/home/juri/uni/Masterarbeit/LaTeX/Graphics/preamble.tex">
<path
   fill="black"
   stroke-width="0"
   d="M225.15,714.93 H226.58 V715.24 H225.15 V717.07 H224.9 C224.9,716.26,224.6,715.19,223.62,715.15 V714.93 H224.47 V712.19 C224.47,710.97,225.39,710.85,225.75,710.85 C226.46,710.85,226.74,711.56,226.74,712.19 V712.76 H226.49 V712.21 C226.49,711.48,226.19,711.1,225.82,711.1 C225.15,711.1,225.15,712,225.15,712.17 Z "
   id="path3075" />
<path
   fill="black"
   stroke-width="0"
   d="M228.41,713.26 L228.42,713.46 C228.48,714.94,229.32,715.19,229.65,715.19 C230.68,715.19,230.78,713.85,230.78,713.46 H228.42 L228.41,713.26 H231.19 C231.41,713.26,231.43,713.26,231.43,713.46 C231.43,714.45,230.9,715.41,229.65,715.41 C228.5,715.41,227.59,714.39,227.59,713.15 C227.59,711.81,228.63,710.85,229.77,710.85 C230.99,710.85,231.43,711.95,231.43,712.14 C231.43,712.24,231.36,712.26,231.31,712.26 C231.22,712.26,231.2,712.2,231.18,712.12 C230.83,711.1,229.93,711.1,229.83,711.1 C229.34,711.1,228.94,711.4,228.71,711.77 C228.41,712.24,228.41,712.9,228.41,713.26 Z "
   id="path3077" />
<path
   fill="black"
   stroke-width="0"
   d="M233.8,712.89 L233.83,712.88 L233.85,712.88 L233.88,712.87 L233.91,712.87 L233.94,712.86 L233.98,712.85 L234.02,712.84 L234.06,712.83 L234.1,712.82 L234.14,712.8 L234.18,712.79 L234.23,712.77 L234.27,712.75 L234.31,712.73 L234.36,712.71 L234.4,712.68 L234.45,712.66 L234.49,712.63 L234.53,712.6 L234.57,712.57 L234.61,712.53 L234.64,712.49 L234.68,712.45 L234.71,712.41 L234.74,712.37 L234.75,712.34 L234.76,712.32 L234.77,712.29 L234.78,712.27 L234.79,712.24 L234.8,712.22 L234.81,712.19 L234.82,712.16 L234.82,712.13 L234.83,712.1 L234.83,712.07 L234.84,712.04 L234.84,712.01 L234.84,711.97 C234.84,711.47,234.49,711.07,233.71,711.07 C232.88,711.07,232.52,711.64,232.33,712.48 C232.3,712.61,232.29,712.65,232.19,712.65 C232.06,712.65,232.06,712.58,232.06,712.4 V711.09 C232.06,710.92,232.06,710.85,232.17,710.85 C232.22,710.85,232.23,710.86,232.42,711.05 C232.44,711.07,232.44,711.09,232.62,711.28 C233.06,710.86,233.51,710.85,233.71,710.85 C234.86,710.85,235.32,711.52,235.32,712.23 C235.32,712.76,235.02,713.06,234.9,713.17 C234.57,713.49,234.18,713.57,233.76,713.65 C233.21,713.76,232.54,713.89,232.54,714.47 C232.54,714.81,232.8,715.22,233.65,715.22 C234.75,715.22,234.8,714.33,234.82,714.02 C234.83,713.93,234.92,713.93,234.94,713.93 C235.07,713.93,235.07,713.98,235.07,714.17 V715.17 C235.07,715.34,235.07,715.41,234.96,715.41 C234.91,715.41,234.89,715.41,234.76,715.29 C234.73,715.25,234.63,715.16,234.59,715.13 C234.21,715.41,233.8,715.41,233.65,715.41 C232.44,715.41,232.06,714.74,232.06,714.19 C232.06,713.84,232.22,713.56,232.49,713.34 C232.81,713.09,233.09,713.03,233.8,712.89 Z "
   id="path3079" />
<path
   fill="black"
   stroke-width="0"
   d="M237.38,714.93 H238.81 V715.24 H237.38 V717.07 H237.14 C237.13,716.26,236.83,715.19,235.85,715.15 V714.93 H236.7 V712.19 C236.7,710.97,237.62,710.85,237.98,710.85 C238.69,710.85,238.97,711.56,238.97,712.19 V712.76 H238.72 V712.21 C238.72,711.48,238.42,711.1,238.05,711.1 C237.38,711.1,237.38,712,237.38,712.17 Z "
   id="path3081" />
<path
   fill="black"
   stroke-width="0"
   d="M227.62,701.17 L224.09,696.81 C224.01,696.71,224,696.69,224,696.65 C224,696.54,224.09,696.54,224.27,696.54 H232.52 L233.37,699.02 H233.12 C232.87,698.27,232.21,697.67,231.36,697.38 C231.2,697.33,230.52,697.09,229.05,697.09 H224.82 L228.28,701.35 C228.35,701.44,228.37,701.47,228.37,701.51 C228.37,701.55,228.36,701.56,228.3,701.65 L225.06,706.08 H229 C230.14,706.08,232.43,706.01,233.12,704.15 H233.37 L232.52,706.48 H224.27 C224,706.48,223.99,706.47,223.99,706.16 Z "
   id="path3083" />
<path
   fill="black"
   stroke-width="0"
   d="M238.93,702.01 L238.94,702.03 L238.95,702.06 L238.95,702.09 L238.96,702.13 L238.97,702.17 L238.99,702.21 L239,702.25 L239.01,702.3 L239.03,702.34 L239.05,702.39 L239.07,702.44 L239.09,702.49 L239.11,702.54 L239.13,702.59 L239.16,702.64 L239.19,702.69 L239.22,702.74 L239.25,702.78 L239.28,702.83 L239.32,702.87 L239.35,702.92 L239.39,702.96 L239.43,703 L239.48,703.03 L239.52,703.06 L239.57,703.09 L239.6,703.1 L239.62,703.12 L239.65,703.13 L239.68,703.14 L239.7,703.15 L239.73,703.15 L239.76,703.16 L239.79,703.17 L239.82,703.17 L239.85,703.17 L239.88,703.18 L239.92,703.18 C239.97,703.18,240.21,703.18,240.41,703.05 C240.14,703,239.94,702.75,239.94,702.51 C239.94,702.35,240.05,702.16,240.32,702.16 C240.53,702.16,240.85,702.34,240.85,702.74 C240.85,703.26,240.26,703.4,239.93,703.4 C239.35,703.4,239,702.87,238.88,702.64 C238.63,703.3,238.1,703.4,237.81,703.4 C236.77,703.4,236.21,702.11,236.21,701.87 C236.21,701.77,236.3,701.77,236.32,701.77 C236.4,701.77,236.43,701.79,236.46,701.88 C236.79,702.93,237.45,703.18,237.79,703.18 C237.98,703.18,238.32,703.09,238.32,702.51 C238.32,702.2,238.16,701.54,237.79,700.15 C237.63,699.53,237.28,699.11,236.84,699.11 C236.78,699.11,236.55,699.11,236.35,699.24 C236.59,699.29,236.81,699.5,236.81,699.78 C236.81,700.05,236.59,700.13,236.45,700.13 C236.15,700.13,235.9,699.87,235.9,699.55 C235.9,699.09,236.4,698.9,236.83,698.9 C237.49,698.9,237.85,699.59,237.88,699.65 C238,699.28,238.35,698.9,238.95,698.9 C239.98,698.9,240.54,700.18,240.54,700.43 C240.54,700.53,240.45,700.53,240.42,700.53 C240.34,700.53,240.32,700.48,240.29,700.42 C239.97,699.35,239.29,699.11,238.97,699.11 C238.58,699.11,238.43,699.43,238.43,699.77 C238.43,699.99,238.48,700.21,238.59,700.64 Z "
   id="path3085" />
<path
   fill="black"
   stroke-width="0"
   d="M243.56,701.86 L243.56,701.87 L243.56,701.88 L243.56,701.89 L243.56,701.9 L243.55,701.91 L243.55,701.92 L243.55,701.93 L243.54,701.94 L243.54,701.96 L243.53,701.97 L243.53,701.98 L243.52,701.99 L243.52,702 L243.51,702.01 L243.5,702.02 L243.49,702.03 L243.48,702.04 L243.48,702.05 L243.47,702.06 L243.45,702.07 L243.44,702.07 L243.43,702.08 L243.42,702.09 L243.41,702.09 L243.39,702.1 L243.38,702.11 L243.36,702.11 L243.35,702.11 L243.33,702.12 L243.32,702.12 L243.3,702.12 L243.28,702.12 C243.09,702.12,242.89,701.94,242.89,701.74 C242.89,701.62,242.98,701.47,243.17,701.47 C243.37,701.47,243.56,701.67,243.56,701.86 Z "
   id="path3087" />
<path
   fill="black"
   stroke-width="0"
   d="M242.14,698.32 L242.13,698.31 L242.13,698.29 L242.12,698.26 L242.11,698.24 L242.11,698.22 L242.1,698.21 L242.1,698.19 L242.09,698.17 L242.09,698.15 L242.08,698.13 L242.08,698.11 L242.08,698.1 L242.08,698.09 L242.08,698.08 L242.08,698.07 L242.08,698.06 L242.08,698.05 L242.08,698.04 L242.08,698.03 C242.08,697.71,242.35,697.44,242.74,697.44 C243.43,697.44,243.74,698.4,243.74,698.5 C243.74,698.59,243.65,698.59,243.63,698.59 C243.53,698.59,243.52,698.55,243.5,698.48 C243.34,697.92,243.03,697.64,242.76,697.64 C242.62,697.64,242.58,697.73,242.58,697.88 C242.58,698.04,242.63,698.17,242.7,698.32 C242.77,698.51,242.84,698.7,242.92,698.88 C242.98,699.05,243.23,699.68,243.26,699.76 C243.28,699.83,243.3,699.92,243.3,699.99 C243.3,700.31,243.02,700.58,242.64,700.58 C241.95,700.58,241.63,699.63,241.63,699.51 C241.63,699.42,241.73,699.42,241.75,699.42 C241.85,699.42,241.85,699.46,241.87,699.53 C242.05,700.13,242.36,700.38,242.62,700.38 C242.73,700.38,242.79,700.33,242.79,700.14 C242.79,699.98,242.75,699.87,242.58,699.44 Z "
   id="path3089" />
<path
   fill="black"
   stroke-width="0"
   d="M226.29,688.9 L226.23,688.91 L226.17,688.93 L226.11,688.95 L226.05,688.96 L225.99,688.98 L225.93,689 L225.88,689.02 L225.82,689.05 L225.77,689.07 L225.71,689.1 L225.66,689.13 L225.61,689.16 L225.58,689.17 L225.56,689.19 L225.54,689.21 L225.51,689.23 L225.49,689.24 L225.47,689.26 L225.44,689.28 L225.42,689.3 C224.96,689.76,224.82,690.41,224.82,691.03 C224.82,691.48,224.87,691.89,225,692.3 C225.11,692.65,225.28,692.96,225.54,693.21 C225.9,693.57,226.42,693.68,226.9,693.68 C227.32,693.68,227.76,693.54,228.06,693.24 C228.29,693.01,228.44,692.73,228.52,692.42 C228.63,692,228.65,691.6,228.65,691.16 C228.65,690.63,228.62,690.09,228.47,689.57 C228.37,689.21,228.23,688.84,227.95,688.56 C227.62,688.23,227.19,688.01,226.73,688.01 C226.54,688.01,226.3,688.04,226.09,688.07 C225.96,688.09,225.78,688.09,225.63,688.09 C225.3,688.09,224.96,688.02,224.74,687.79 C224.53,687.59,224.36,687.22,224.25,686.9 L224.46,686.81 C224.53,686.99,224.65,687.23,224.74,687.32 C224.9,687.47,225.16,687.48,225.38,687.48 C225.59,687.48,225.8,687.45,226.01,687.41 L227.92,686.99 C228.11,686.94,228.31,686.94,228.52,686.94 C228.74,686.94,228.94,687.09,229.09,687.26 C229.35,687.55,229.46,687.89,229.56,688.22 L229.37,688.3 C229.28,688.07,229.18,687.86,228.99,687.69 C228.88,687.58,228.76,687.47,228.61,687.47 C228.48,687.47,227.68,687.66,227.56,687.7 C227.4,687.76,227.32,687.78,227.25,687.84 C227.68,687.96,228.06,688.2,228.38,688.52 C229.07,689.22,229.36,690.19,229.36,691.16 C229.36,691.62,229.31,692.03,229.18,692.46 C229.09,692.79,228.94,693.09,228.7,693.33 C228.25,693.78,227.62,693.94,226.99,693.94 C226.26,693.94,225.5,693.82,224.97,693.29 C224.39,692.7,224.15,691.94,224.15,691.11 C224.15,690.39,224.42,689.69,224.93,689.18 C225.26,688.84,225.73,688.69,226.2,688.69 Z "
   id="path3091" />
</g>    <path
       d="m 177.78685,197.77313 c 5.9764,3.44403 -1.69393,9.75523 -5.7242,9.93317 -10.92176,0.48221 -16.1274,-12.27388 -14.14214,-21.38156 3.55118,-16.29151 22.30693,-23.13009 37.03893,-18.35111 21.6198,7.01335 30.29232,32.45873 22.56008,52.69629 -10.30585,26.97347 -42.65042,37.51964 -68.35365,26.76905 -32.34489,-13.52851 -44.78005,-52.86057 -30.97803,-84.01102 16.7161,-37.72737 63.081,-52.0595 99.66839,-35.18699 43.11697,19.88367 59.3509,73.30781 39.39596,115.32574 -23.03877,48.51138 -83.53889,66.65028 -130.98311,43.60494 C 72.359947,260.98606 52.313854,193.39866 78.455174,140.53117 107.78178,81.22183 182.46444,59.266937 240.75301,88.508288 305.46438,120.97173 329.32928,202.75549 296.98486,266.46349"
       sodipodi:t0="0"
       sodipodi:argument="-18.326767"
       sodipodi:radius="137.57373"
       sodipodi:revolution="3"
       sodipodi:expansion="1"
       sodipodi:cy="197.77313"
       sodipodi:cx="177.78685"
       id="path3106"
       style="fill:none;stroke:#000000;stroke-width:1px;stroke-linecap:butt;stroke-linejoin:miter;stroke-opacity:1"
       sodipodi:type="spiral" />
    <path
       style="font-style:normal;font-variant:normal;font-weight:normal;font-stretch:normal;letter-spacing:normal;word-spacing:normal;text-anchor:start;fill:#000000;stroke:#000000;stroke-width:0;stroke-linecap:butt;stroke-linejoin:miter;stroke-miterlimit:10.43299961;stroke-opacity:1;stroke-dasharray:none;stroke-dashoffset:0"
       inkscape:connector-curvature="0"
       d="m -41.3857,487.0857 -0.6,-0.2 -0.6,-0.1 -0.6,-0.2 -0.6,-0.2 -0.5,-0.1 -0.6,-0.2 -0.6,-0.3 -0.6,-0.2 -0.5,-0.2 -0.5,-0.3 -0.6,-0.3 -0.5,-0.3 -0.2,-0.2 -0.3,-0.1 -0.2,-0.2 -0.3,-0.2 -0.2,-0.2 -0.2,-0.2 -0.2,-0.2 -0.2,-0.2 c -4.6,-4.6 -6.1,-11 -6.1,-17.3 0,-4.5 0.5,-8.6 1.9,-12.8 1.1,-3.5 2.8,-6.5 5.3,-9 3.6,-3.6 8.8,-4.7 13.7,-4.7 4.2,0 8.6,1.4 11.6,4.4 2.2,2.3 3.7,5 4.5,8.1 1.2,4.3 1.4,8.3 1.4,12.7 0,5.4 -0.4,10.7 -1.9,15.9 -1,3.7 -2.4,7.4 -5.1,10.2 -3.3,3.3 -7.6,5.5 -12.3,5.5 -1.9,0 -4.3,-0.3 -6.4,-0.6 -1.3,-0.2 -3.1,-0.2 -4.6,-0.2 -3.3,0 -6.6,0.7 -8.9,3 -2.1,2 -3.8,5.7 -4.9,8.9 l 2.1,0.9 c 0.7,-1.8 1.9,-4.2 2.9,-5.1 1.6,-1.5 4.2,-1.6 6.3,-1.6 2.1,0 4.2,0.3 6.3,0.7 l 19.2,4.2 c 1.9,0.5 3.8,0.5 5.9,0.5 2.3,0 4.3,-1.5 5.8,-3.2 2.6,-2.9 3.7,-6.2 4.7,-9.6 l -1.9,-0.8 c -0.9,2.3 -1.9,4.4 -3.8,6.1 -1.1,1.1 -2.3,2.2 -3.9,2.2 -1.3,0 -9.2,-1.8 -10.4,-2.3 -1.6,-0.6 -2.4,-0.8 -3.1,-1.4 4.3,-1.2 8.1,-3.6 11.2,-6.8 7,-7 9.9,-16.8 9.9,-26.5 0,-4.6 -0.5,-8.7 -1.8,-13.1 -0.9,-3.3 -2.4,-6.2 -4.9,-8.6 -4.5,-4.5 -10.7,-6.2 -17,-6.2 -7.4,0 -14.9,1.3 -20.2,6.6 -5.9,5.8 -8.3,13.5 -8.3,21.8 0,7.2 2.7,14.2 7.9,19.4 3.3,3.4 7.9,4.9 12.6,4.9 z"
       id="path3065" />
    <path
       style="font-style:normal;font-variant:normal;font-weight:normal;font-stretch:normal;letter-spacing:normal;word-spacing:normal;text-anchor:start;fill:#000000;stroke:#000000;stroke-width:0;stroke-linecap:butt;stroke-linejoin:miter;stroke-miterlimit:10.43299961;stroke-opacity:1;stroke-dasharray:none;stroke-dashoffset:0"
       inkscape:connector-curvature="0"
       d="m 19.4143,476.2857 0,-0.1 0,-0.1 0,-0.1 0,-0.1 0,0 0,-0.1 0,-0.1 0,-0.1 0,0 0,-0.1 0,0 0,-0.1 0,-0.1 0,0 -0.1,-0.1 0,0 0,-0.1 0,0 0,-0.1 0,-0.1 -0.1,-0.1 0,0 0,-0.1 -0.1,-0.1 0,0 -0.1,-0.1 0,0 -0.1,0 -0.1,-0.1 -0.1,0 -0.1,0 0,0 -0.1,0 -0.1,0 0,0 -0.1,-0.1 0,0 -0.1,0 0,0 -0.1,0 -0.1,0 -0.1,0 0,0 -0.1,0 -0.1,0 -0.1,0 0,0 -0.1,0 -0.1,0 -0.1,0 c -4.5,4.4 -10.8,4.5 -13.7,4.5 v 2.5 c 1.7,0 6.3,0 10.1,-2 v 35.6 c 0,2.3 0,3.2 -6.9,3.2 h -2.7 v 2.5 c 1.3,-0.1 9.8,-0.3 12.4,-0.3 2.2,0 11,0.2 12.5,0.3 v -2.5 h -2.6 c -7,0 -7,-0.9 -7,-3.2 z"
       id="path3067" />
    <path
       style="font-style:normal;font-variant:normal;font-weight:normal;font-stretch:normal;letter-spacing:normal;word-spacing:normal;text-anchor:start;fill:#000000;stroke:#000000;stroke-width:0;stroke-linecap:butt;stroke-linejoin:miter;stroke-miterlimit:10.43299961;stroke-opacity:1;stroke-dasharray:none;stroke-dashoffset:0"
       inkscape:connector-curvature="0"
       d="m 102.5143,487.0857 -0.6,-0.2 -0.6,-0.1 -0.5,-0.2 -0.6,-0.2 -0.6,-0.1 -0.6,-0.2 -0.6,-0.3 -0.5,-0.2 -0.6,-0.2 -0.5,-0.3 -0.5,-0.3 -0.5,-0.3 -0.3,-0.2 -0.2,-0.1 -0.3,-0.2 -0.2,-0.2 -0.3,-0.2 -0.2,-0.2 -0.2,-0.2 -0.2,-0.2 c -4.6,-4.6 -6.1,-11 -6.1,-17.3 0,-4.5 0.5,-8.6 1.9,-12.8 1.1,-3.5 2.8,-6.5 5.4,-9 3.6,-3.6 8.7,-4.7 13.6,-4.7 4.2,0 8.6,1.4 11.6,4.4 2.3,2.3 3.8,5 4.6,8.1 1.2,4.3 1.3,8.3 1.3,12.7 0,5.4 -0.3,10.7 -1.8,15.9 -1,3.7 -2.4,7.4 -5.2,10.2 -3.3,3.3 -7.6,5.5 -12.3,5.5 -1.9,0 -4.3,-0.3 -6.3,-0.6 -1.4,-0.2 -3.1,-0.2 -4.6,-0.2 -3.3,0 -6.7,0.7 -9,3 -2.1,2 -3.8,5.7 -4.9,8.9 l 2.1,0.9 c 0.7,-1.8 1.9,-4.2 2.9,-5.1 1.6,-1.5 4.2,-1.6 6.4,-1.6 2.1,0 4.2,0.3 6.2,0.7 l 19.2,4.2 c 1.9,0.5 3.9,0.5 6,0.5 2.3,0 4.2,-1.5 5.7,-3.2 2.6,-2.9 3.7,-6.2 4.7,-9.6 l -1.9,-0.8 c -0.9,2.3 -1.9,4.4 -3.8,6.1 -1,1.1 -2.3,2.2 -3.8,2.2 -1.3,0 -9.3,-1.8 -10.5,-2.3 -1.6,-0.6 -2.4,-0.8 -3.1,-1.4 4.3,-1.2 8.1,-3.6 11.3,-6.8 6.9,-7 9.8,-16.8 9.8,-26.5 0,-4.6 -0.5,-8.7 -1.8,-13.1 -0.9,-3.3 -2.4,-6.2 -4.8,-8.6 -4.5,-4.5 -10.8,-6.2 -17.1,-6.2 -7.4,0 -14.9,1.3 -20.2,6.6 -5.9,5.8 -8.3,13.5 -8.3,21.8 0,7.2 2.7,14.2 7.9,19.4 3.3,3.4 8,4.9 12.7,4.9 z"
       id="path3069" />
    <path
       style="font-style:normal;font-variant:normal;font-weight:normal;font-stretch:normal;letter-spacing:normal;word-spacing:normal;text-anchor:start;fill:#000000;stroke:#000000;stroke-width:0;stroke-linecap:butt;stroke-linejoin:miter;stroke-miterlimit:10.43299961;stroke-opacity:1;stroke-dasharray:none;stroke-dashoffset:0"
       inkscape:connector-curvature="0"
       d="m 175.2143,507.8857 h -2.4 c -0.2,1.6 -0.9,5.7 -1.8,6.4 -0.6,0.4 -5.9,0.4 -6.9,0.4 h -12.9 c 7.4,-6.5 9.8,-8.4 14,-11.7 5.2,-4.1 10,-8.5 10,-15.1 0,-8.4 -7.4,-13.6 -16.3,-13.6 -8.7,0 -14.6,6.1 -14.6,12.5 0,3.6 3,3.9 3.7,3.9 1.7,0 3.7,-1.2 3.7,-3.7 0,-1.2 -0.5,-3.7 -4.1,-3.7 2.2,-4.9 6.9,-6.5 10.2,-6.5 7,0 10.6,5.5 10.6,11.1 0,6.1 -4.3,10.9 -6.5,13.4 l -16.9,16.6 c -0.7,0.6 -0.7,0.8 -0.7,2.7 h 28.8 z"
       id="path3071" />
    <path
       style="font-style:normal;font-variant:normal;font-weight:normal;font-stretch:normal;letter-spacing:normal;word-spacing:normal;text-anchor:start;fill:#000000;stroke:#000000;stroke-width:0;stroke-linecap:butt;stroke-linejoin:miter;stroke-miterlimit:10.43299961;stroke-opacity:1;stroke-dasharray:none;stroke-dashoffset:0"
       inkscape:connector-curvature="0"
       d="m 246.4143,487.0857 -0.6,-0.2 -0.6,-0.1 -0.6,-0.2 -0.6,-0.2 -0.6,-0.1 -0.5,-0.2 -0.6,-0.3 -0.6,-0.2 -0.5,-0.2 -0.6,-0.3 -0.5,-0.3 -0.5,-0.3 -0.2,-0.2 -0.3,-0.1 -0.2,-0.2 -0.3,-0.2 -0.2,-0.2 -0.2,-0.2 -0.3,-0.2 -0.2,-0.2 c -4.6,-4.6 -6,-11 -6,-17.3 0,-4.5 0.5,-8.6 1.8,-12.8 1.1,-3.5 2.8,-6.5 5.4,-9 3.6,-3.6 8.8,-4.7 13.7,-4.7 4.2,0 8.5,1.4 11.5,4.4 2.3,2.3 3.8,5 4.6,8.1 1.2,4.3 1.4,8.3 1.4,12.7 0,5.4 -0.4,10.7 -1.9,15.9 -1,3.7 -2.4,7.4 -5.2,10.2 -3.3,3.3 -7.5,5.5 -12.2,5.5 -1.9,0 -4.3,-0.3 -6.4,-0.6 -1.3,-0.2 -3.1,-0.2 -4.6,-0.2 -3.3,0 -6.7,0.7 -9,3 -2,2 -3.7,5.7 -4.8,8.9 l 2.1,0.9 c 0.7,-1.8 1.9,-4.2 2.8,-5.1 1.6,-1.5 4.2,-1.6 6.4,-1.6 2.1,0 4.2,0.3 6.3,0.7 l 19.1,4.2 c 1.9,0.5 3.9,0.5 6,0.5 2.3,0 4.3,-1.5 5.8,-3.2 2.6,-2.9 3.7,-6.2 4.7,-9.6 l -1.9,-0.8 c -0.9,2.3 -1.9,4.4 -3.8,6.1 -1.1,1.1 -2.3,2.2 -3.9,2.2 -1.3,0 -9.3,-1.8 -10.4,-2.3 -1.7,-0.6 -2.4,-0.8 -3.1,-1.4 4.2,-1.2 8,-3.6 11.2,-6.8 7,-7 9.9,-16.8 9.9,-26.5 0,-4.6 -0.5,-8.7 -1.8,-13.1 -0.9,-3.3 -2.4,-6.2 -4.9,-8.6 -4.5,-4.5 -10.8,-6.2 -17,-6.2 -7.4,0 -15,1.3 -20.3,6.6 -5.8,5.8 -8.2,13.5 -8.2,21.8 0,7.2 2.7,14.2 7.8,19.4 3.3,3.4 8,4.9 12.7,4.9 z"
       id="path3073" />
    <path
       style="font-style:normal;font-variant:normal;font-weight:normal;font-stretch:normal;letter-spacing:normal;word-spacing:normal;text-anchor:start;fill:#000000;stroke:#000000;stroke-width:0;stroke-linecap:butt;stroke-linejoin:miter;stroke-miterlimit:10.43299961;stroke-opacity:1;stroke-dasharray:none;stroke-dashoffset:0"
       inkscape:connector-curvature="0"
       d="m 302.9143,497.2857 0.5,0 0.5,0.1 0.5,0 0.5,0.1 0.4,0.1 0.5,0.1 0.4,0.2 0.5,0.1 0.4,0.2 0.4,0.2 0.4,0.3 0.4,0.2 0.3,0.3 0.4,0.3 0.3,0.3 0.3,0.3 0.3,0.4 0.3,0.4 0.3,0.4 0.2,0.4 0.3,0.5 0.2,0.4 0.2,0.5 0.2,0.6 0.1,0.5 0.2,0.6 0.1,0.5 0.1,0.6 0.1,0.7 0,0.6 0,0.7 0.1,0.7 c 0,8.6 -5.1,11.2 -9.1,11.2 -2.8,0 -8.9,-0.8 -11.9,-4.9 3.3,-0.1 4.1,-2.4 4.1,-3.9 0,-2.2 -1.7,-3.8 -3.9,-3.8 -1.9,0 -3.9,1.2 -3.9,4 0,6.6 7.3,10.8 15.7,10.8 9.7,0 16.4,-6.5 16.4,-13.4 0,-5.5 -4.4,-10.9 -12.1,-12.5 7.3,-2.7 10,-7.9 10,-12.2 0,-5.5 -6.4,-9.6 -14.1,-9.6 -7.8,0 -13.7,3.8 -13.7,9.4 0,2.3 1.5,3.7 3.6,3.7 2.2,0 3.6,-1.6 3.6,-3.6 0,-2 -1.4,-3.5 -3.6,-3.6 2.5,-3.1 7.3,-3.9 9.9,-3.9 3.1,0 7.5,1.6 7.5,7.6 0,3 -1,6.2 -2.8,8.3 -2.3,2.7 -4.3,2.8 -7.7,3 -1.8,0.2 -1.9,0.2 -2.3,0.2 -0.1,0 -0.7,0.2 -0.7,1 0,0.9 0.7,0.9 1.9,0.9 z"
       id="path3076" />
    <path
       style="font-style:normal;font-variant:normal;font-weight:normal;font-stretch:normal;letter-spacing:normal;word-spacing:normal;text-anchor:start;fill:#000000;stroke:#000000;stroke-width:0;stroke-linecap:butt;stroke-linejoin:miter;stroke-miterlimit:10.43299961;stroke-opacity:1;stroke-dasharray:none;stroke-dashoffset:0"
       inkscape:connector-curvature="0"
       d="m 390.3143,487.0857 -0.6,-0.2 -0.6,-0.1 -0.6,-0.2 -0.6,-0.2 -0.5,-0.1 -0.6,-0.2 -0.6,-0.3 -0.6,-0.2 -0.5,-0.2 -0.5,-0.3 -0.6,-0.3 -0.5,-0.3 -0.2,-0.2 -0.3,-0.1 -0.2,-0.2 -0.3,-0.2 -0.2,-0.2 -0.2,-0.2 -0.2,-0.2 -0.2,-0.2 c -4.6,-4.6 -6.1,-11 -6.1,-17.3 0,-4.5 0.5,-8.6 1.9,-12.8 1.1,-3.5 2.8,-6.5 5.3,-9 3.6,-3.6 8.8,-4.7 13.7,-4.7 4.2,0 8.6,1.4 11.5,4.4 2.3,2.3 3.8,5 4.6,8.1 1.2,4.3 1.4,8.3 1.4,12.7 0,5.4 -0.4,10.7 -1.9,15.9 -1,3.7 -2.4,7.4 -5.1,10.2 -3.3,3.3 -7.6,5.5 -12.3,5.5 -1.9,0 -4.3,-0.3 -6.4,-0.6 -1.3,-0.2 -3.1,-0.2 -4.6,-0.2 -3.2,0 -6.6,0.7 -8.9,3 -2.1,2 -3.8,5.7 -4.9,8.9 l 2.1,0.9 c 0.7,-1.8 1.9,-4.2 2.9,-5.1 1.6,-1.5 4.2,-1.6 6.3,-1.6 2.1,0 4.2,0.3 6.3,0.7 l 19.2,4.2 c 1.9,0.5 3.8,0.5 5.9,0.5 2.3,0 4.3,-1.5 5.8,-3.2 2.6,-2.9 3.7,-6.2 4.7,-9.6 l -1.9,-0.8 c -0.9,2.3 -1.9,4.4 -3.8,6.1 -1.1,1.1 -2.3,2.2 -3.9,2.2 -1.3,0 -9.2,-1.8 -10.4,-2.3 -1.6,-0.6 -2.4,-0.8 -3.1,-1.4 4.3,-1.2 8,-3.6 11.2,-6.8 7,-7 9.9,-16.8 9.9,-26.5 0,-4.6 -0.5,-8.7 -1.8,-13.1 -0.9,-3.3 -2.4,-6.2 -4.9,-8.6 -4.5,-4.5 -10.7,-6.2 -17,-6.2 -7.4,0 -15,1.3 -20.2,6.6 -5.9,5.8 -8.3,13.5 -8.3,21.8 0,7.2 2.7,14.2 7.9,19.4 3.3,3.4 7.9,4.9 12.6,4.9 z"
       id="path3078" />
    <path
       style="font-style:normal;font-variant:normal;font-weight:normal;font-stretch:normal;letter-spacing:normal;word-spacing:normal;text-anchor:start;fill:#000000;stroke:#000000;stroke-width:0;stroke-linecap:butt;stroke-linejoin:miter;stroke-miterlimit:10.43299961;stroke-opacity:1;stroke-dasharray:none;stroke-dashoffset:0"
       inkscape:connector-curvature="0"
       d="m 464.6143,509.1857 v -2.5 h -7.7 v -31.1 c 0,-1.5 0,-2 -1.6,-2 -0.8,0 -1.1,0 -1.8,1 l -23,32.1 v 2.5 h 20.4 l 0.5,-2.5 h -18.4 l 18.4,-25.6 v 25.6 l -0.5,2.5 v 5.7 c 0,2.4 0,3.2 -5.6,3.2 h -1.9 v 2.5 c 3.5,-0.1 8,-0.3 10.5,-0.3 2.6,0 7,0.2 10.5,0.3 v -2.5 h -1.9 c -5.6,0 -5.6,-0.8 -5.6,-3.2 v -5.7 z"
       id="path3080" />
    <path
       style="font-style:normal;font-variant:normal;font-weight:normal;font-stretch:normal;letter-spacing:normal;word-spacing:normal;text-anchor:start;fill:#000000;stroke:#000000;stroke-width:0;stroke-linecap:butt;stroke-linejoin:miter;stroke-miterlimit:10.43299961;stroke-opacity:1;stroke-dasharray:none;stroke-dashoffset:0"
       inkscape:connector-curvature="0"
       d="m 534.2143,487.0857 -0.6,-0.2 -0.6,-0.1 -0.5,-0.2 -0.6,-0.2 -0.6,-0.1 -0.6,-0.2 -0.6,-0.3 -0.5,-0.2 -0.6,-0.2 -0.5,-0.3 -0.5,-0.3 -0.5,-0.3 -0.3,-0.2 -0.2,-0.1 -0.3,-0.2 -0.2,-0.2 -0.3,-0.2 -0.2,-0.2 -0.2,-0.2 -0.2,-0.2 c -4.6,-4.6 -6.1,-11 -6.1,-17.3 0,-4.5 0.5,-8.6 1.9,-12.8 1.1,-3.5 2.8,-6.5 5.4,-9 3.6,-3.6 8.7,-4.7 13.6,-4.7 4.2,0 8.6,1.4 11.6,4.4 2.3,2.3 3.8,5 4.6,8.1 1.1,4.3 1.4,8.3 1.4,12.7 0,5.4 -0.4,10.7 -1.9,15.9 -1,3.7 -2.4,7.4 -5.2,10.2 -3.3,3.3 -7.6,5.5 -12.3,5.5 -1.9,0 -4.3,-0.3 -6.4,-0.6 -1.2,-0.2 -3,-0.2 -4.5,-0.2 -3.3,0 -6.7,0.7 -9,3 -2.1,2 -3.8,5.7 -4.9,8.9 l 2.1,0.9 c 0.7,-1.8 1.9,-4.2 2.9,-5.1 1.6,-1.5 4.2,-1.6 6.4,-1.6 2.1,0 4.2,0.3 6.3,0.7 l 19.1,4.2 c 1.9,0.5 3.9,0.5 6,0.5 2.3,0 4.2,-1.5 5.7,-3.2 2.6,-2.9 3.7,-6.2 4.7,-9.6 l -1.9,-0.8 c -0.9,2.3 -1.9,4.4 -3.8,6.1 -1.1,1.1 -2.3,2.2 -3.8,2.2 -1.3,0 -9.3,-1.8 -10.5,-2.3 -1.6,-0.6 -2.4,-0.8 -3.1,-1.4 4.3,-1.2 8.1,-3.6 11.3,-6.8 6.9,-7 9.8,-16.8 9.8,-26.5 0,-4.6 -0.5,-8.7 -1.8,-13.1 -0.9,-3.3 -2.4,-6.2 -4.8,-8.6 -4.5,-4.5 -10.8,-6.2 -17.1,-6.2 -7.4,0 -14.9,1.3 -20.2,6.6 -5.9,5.8 -8.3,13.5 -8.3,21.8 0,7.2 2.7,14.2 7.9,19.4 3.3,3.4 8,4.9 12.7,4.9 z"
       id="path3082" />
    <path
       style="font-style:normal;font-variant:normal;font-weight:normal;font-stretch:normal;letter-spacing:normal;word-spacing:normal;text-anchor:start;fill:#000000;stroke:#000000;stroke-width:0;stroke-linecap:butt;stroke-linejoin:miter;stroke-miterlimit:10.43299961;stroke-opacity:1;stroke-dasharray:none;stroke-dashoffset:0"
       inkscape:connector-curvature="0"
       d="m 582.5143,481.6857 0.3,0.1 0.3,0.1 0.3,0 0.3,0.1 0.3,0.1 0.3,0 0.3,0.1 0.3,0 0.2,0.1 0.3,0 0.2,0.1 0.3,0 0.2,0 0.2,0.1 0.2,0 0.3,0 0.2,0 0.2,0 0.1,0.1 0.2,0 0.2,0 0.2,0 0.1,0 0.2,0 0.1,0 0.2,0 0.1,0 0.2,0 0.1,0 0.1,0 0.1,0 0.1,0 c 9.2,0 14.7,-6.3 14.7,-7.3 0,-0.8 -0.5,-1 -0.9,-1 -0.1,0 -0.3,0 -0.5,0.2 -1.7,0.7 -5.4,2 -10.6,2 -1.9,0 -5.6,-0.1 -10.1,-1.8 -0.7,-0.4 -0.9,-0.4 -0.9,-0.4 -1,0 -1,0.8 -1,1.9 v 20.6 c 0,1.2 0,2 1.2,2 0.6,0 0.7,-0.1 1.4,-1 3,-3.8 7.2,-4.4 9.6,-4.4 4.2,0 6.1,3.4 6.5,3.9 1.2,2.3 1.6,5 1.6,9 0,2.1 0,6.2 -2.1,9.3 -1.7,2.5 -4.7,4.2 -8.1,4.2 -4.5,0 -9.2,-2.5 -11,-7.1 2.7,0.2 4,-1.6 4,-3.4 0,-3 -2.6,-3.6 -3.5,-3.6 -0.1,0 -3.5,0 -3.5,3.8 0,6.2 5.8,12.5 14.1,12.5 9,0 16.8,-6.6 16.8,-15.4 0,-7.9 -6,-15.1 -14.7,-15.1 -3,0 -6.7,0.7 -9.7,3.4 z"
       id="path3084" />
    <path
       style="font-style:normal;font-variant:normal;font-weight:normal;font-stretch:normal;letter-spacing:normal;word-spacing:normal;text-anchor:start;fill:#000000;stroke:#000000;stroke-width:0;stroke-linecap:butt;stroke-linejoin:miter;stroke-miterlimit:10.43299961;stroke-opacity:1;stroke-dasharray:none;stroke-dashoffset:0"
       inkscape:connector-curvature="0"
       d="m 678.2143,487.0857 -0.6,-0.2 -0.6,-0.1 -0.6,-0.2 -0.6,-0.2 -0.6,-0.1 -0.6,-0.2 -0.5,-0.3 -0.6,-0.2 -0.6,-0.2 -0.5,-0.3 -0.5,-0.3 -0.5,-0.3 -0.3,-0.2 -0.2,-0.1 -0.3,-0.2 -0.2,-0.2 -0.2,-0.2 -0.3,-0.2 -0.2,-0.2 -0.2,-0.2 c -4.6,-4.6 -6.1,-11 -6.1,-17.3 0,-4.5 0.5,-8.6 1.9,-12.8 1.1,-3.5 2.8,-6.5 5.4,-9 3.6,-3.6 8.8,-4.7 13.6,-4.7 4.2,0 8.6,1.4 11.6,4.4 2.3,2.3 3.8,5 4.6,8.1 1.2,4.3 1.4,8.3 1.4,12.7 0,5.4 -0.4,10.7 -1.9,15.9 -1,3.7 -2.4,7.4 -5.2,10.2 -3.3,3.3 -7.6,5.5 -12.3,5.5 -1.8,0 -4.2,-0.3 -6.3,-0.6 -1.3,-0.2 -3.1,-0.2 -4.6,-0.2 -3.3,0 -6.7,0.7 -9,3 -2.1,2 -3.8,5.7 -4.9,8.9 l 2.1,0.9 c 0.7,-1.8 1.9,-4.2 2.9,-5.1 1.6,-1.5 4.2,-1.6 6.4,-1.6 2.1,0 4.2,0.3 6.3,0.7 l 19.1,4.2 c 1.9,0.5 3.9,0.5 6,0.5 2.3,0 4.3,-1.5 5.8,-3.2 2.6,-2.9 3.6,-6.2 4.6,-9.6 l -1.9,-0.8 c -0.8,2.3 -1.8,4.4 -3.7,6.1 -1.1,1.1 -2.3,2.2 -3.9,2.2 -1.3,0 -9.3,-1.8 -10.5,-2.3 -1.6,-0.6 -2.4,-0.8 -3.1,-1.4 4.3,-1.2 8.1,-3.6 11.3,-6.8 7,-7 9.9,-16.8 9.9,-26.5 0,-4.6 -0.6,-8.7 -1.8,-13.1 -0.9,-3.3 -2.4,-6.2 -4.9,-8.6 -4.5,-4.5 -10.8,-6.2 -17.1,-6.2 -7.3,0 -14.9,1.3 -20.2,6.6 -5.9,5.8 -8.2,13.5 -8.2,21.8 0,7.2 2.6,14.2 7.8,19.4 3.3,3.4 8,4.9 12.7,4.9 z"
       id="path3086" />
    <path
       style="font-style:normal;font-variant:normal;font-weight:normal;font-stretch:normal;letter-spacing:normal;word-spacing:normal;text-anchor:start;fill:#000000;stroke:#000000;stroke-width:0;stroke-linecap:butt;stroke-linejoin:miter;stroke-miterlimit:10.43299961;stroke-opacity:1;stroke-dasharray:none;stroke-dashoffset:0"
       inkscape:connector-curvature="0"
       d="m 726.0143,497.7857 0,-1 0.1,-1.1 0,-1 0.1,-1.1 0,-1 0.1,-1 0.2,-0.9 0.1,-1 0.2,-0.9 0.2,-1 0.3,-0.9 0.3,-0.9 0.1,-0.4 0.2,-0.4 0.2,-0.5 0.2,-0.4 0.2,-0.4 0.2,-0.4 0.2,-0.4 0.3,-0.4 c 2.3,-3.8 6.1,-6.4 10.6,-6.4 2.1,0 4.9,0.6 6.3,2.5 -1.8,0.1 -3.3,1.3 -3.3,3.3 0,1.8 1.2,3.3 3.3,3.3 2.1,0 3.4,-1.4 3.4,-3.4 0,-4.1 -3,-7.7 -9.9,-7.7 -10,0 -20.3,9.2 -20.3,24.2 0,18.1 8.5,23.5 16.2,23.5 8.5,0 15.9,-6.5 15.9,-15.6 0,-8.9 -7,-15.4 -15.2,-15.4 l -0.3,1.9 c 3.2,0 5.3,1.3 7.1,3.9 1.7,2.6 1.7,5.5 1.7,9.6 0,4 0,6.9 -1.9,9.6 -1.6,2.5 -3.9,3.8 -7.3,3.8 h 0 c -3.5,0 -6.2,-2 -7.7,-5.1 -1,-2.1 -1.6,-5.6 -1.6,-9.8 0,-6.7 4.1,-12 9.7,-12 l 0.3,-1.9 c -5.6,0 -8.6,3.7 -10.2,6.8 z"
       id="path3088" />
  </g>
</svg>
