<?xml version="1.0" encoding="UTF-8" standalone="no"?>
<!-- Created with Inkscape (http://www.inkscape.org/) -->

<svg
   xmlns:dc="http://purl.org/dc/elements/1.1/"
   xmlns:cc="http://creativecommons.org/ns#"
   xmlns:rdf="http://www.w3.org/1999/02/22-rdf-syntax-ns#"
   xmlns:svg="http://www.w3.org/2000/svg"
   xmlns="http://www.w3.org/2000/svg"
   xmlns:sodipodi="http://sodipodi.sourceforge.net/DTD/sodipodi-0.dtd"
   xmlns:inkscape="http://www.inkscape.org/namespaces/inkscape"
   id="svg5624"
   version="1.1"
   inkscape:version="0.48.3.1 r9886"
   width="534.6"
   height="534.6"
   xml:space="preserve"
   sodipodi:docname="plottyplot.pdf"><metadata
     id="metadata5630"><rdf:RDF><cc:Work
         rdf:about=""><dc:format>image/svg+xml</dc:format><dc:type
           rdf:resource="http://purl.org/dc/dcmitype/StillImage" /><dc:title></dc:title></cc:Work></rdf:RDF></metadata><defs
     id="defs5628"><clipPath
       clipPathUnits="userSpaceOnUse"
       id="clipPath5636"><path
         d="m 35.28,2.88 0,427.68 427.68,0 0,-427.68"
         clip-rule="evenodd"
         id="path5638" /></clipPath><clipPath
       clipPathUnits="userSpaceOnUse"
       id="clipPath5644"><path
         d="m 33,1 0,432 432,0 0,-432"
         clip-rule="evenodd"
         id="path5646" /></clipPath><clipPath
       clipPathUnits="userSpaceOnUse"
       id="clipPath5652"><path
         d="m 35,3 0,428 428,0 0,-428"
         clip-rule="evenodd"
         id="path5654" /></clipPath><clipPath
       clipPathUnits="userSpaceOnUse"
       id="clipPath5660"><path
         d="m 43,3 0,420 420,0 0,-420"
         clip-rule="evenodd"
         id="path5662" /></clipPath><clipPath
       clipPathUnits="userSpaceOnUse"
       id="clipPath5668"><path
         d="m 43,3 0,420 420,0 0,-420"
         clip-rule="evenodd"
         id="path5670" /></clipPath><clipPath
       clipPathUnits="userSpaceOnUse"
       id="clipPath5676"><path
         d="m 43,3 0,420 420,0 0,-420"
         clip-rule="evenodd"
         id="path5678" /></clipPath><clipPath
       clipPathUnits="userSpaceOnUse"
       id="clipPath5706"><path
         d="m 64,423 0,9 9,0 0,-9"
         clip-rule="evenodd"
         id="path5708" /></clipPath><clipPath
       clipPathUnits="userSpaceOnUse"
       id="clipPath5718"><path
         d="m -2.267,-1.81 0,11 11,0 0,-11"
         clip-rule="evenodd"
         id="path5720" /></clipPath><clipPath
       clipPathUnits="userSpaceOnUse"
       id="clipPath5756"><path
         d="m 145,423 0,9 8,0 0,-9"
         clip-rule="evenodd"
         id="path5758" /></clipPath><clipPath
       clipPathUnits="userSpaceOnUse"
       id="clipPath5768"><path
         d="m -1.657,-1.81 0,11 10,0 0,-11"
         clip-rule="evenodd"
         id="path5770" /></clipPath><clipPath
       clipPathUnits="userSpaceOnUse"
       id="clipPath5806"><path
         d="m 227,423 0,9 5,0 0,-9"
         clip-rule="evenodd"
         id="path5808" /></clipPath><clipPath
       clipPathUnits="userSpaceOnUse"
       id="clipPath5818"><path
         d="m -1.922,-1.81 0,11 7,0 0,-11"
         clip-rule="evenodd"
         id="path5820" /></clipPath><clipPath
       clipPathUnits="userSpaceOnUse"
       id="clipPath5852"><path
         d="m 307,423 0,9 5,0 0,-9"
         clip-rule="evenodd"
         id="path5854" /></clipPath><clipPath
       clipPathUnits="userSpaceOnUse"
       id="clipPath5864"><path
         d="m -2.312,-1.81 0,11 7,0 0,-11"
         clip-rule="evenodd"
         id="path5866" /></clipPath><clipPath
       clipPathUnits="userSpaceOnUse"
       id="clipPath5898"><path
         d="m 388,423 0,9 5,0 0,-9"
         clip-rule="evenodd"
         id="path5900" /></clipPath><clipPath
       clipPathUnits="userSpaceOnUse"
       id="clipPath5910"><path
         d="m -1.702,-1.81 0,11 7,0 0,-11"
         clip-rule="evenodd"
         id="path5912" /></clipPath><clipPath
       clipPathUnits="userSpaceOnUse"
       id="clipPath5956"><path
         d="m 34,334 0,8 9,0 0,-8"
         clip-rule="evenodd"
         id="path5958" /></clipPath><clipPath
       clipPathUnits="userSpaceOnUse"
       id="clipPath5968"><path
         d="m -2.28,-1.535 0,10 11,0 0,-10"
         clip-rule="evenodd"
         id="path5970" /></clipPath><clipPath
       clipPathUnits="userSpaceOnUse"
       id="clipPath6006"><path
         d="m 38,208 0,9 5,0 0,-9"
         clip-rule="evenodd"
         id="path6008" /></clipPath><clipPath
       clipPathUnits="userSpaceOnUse"
       id="clipPath6018"><path
         d="m -2.03,-1.926 0,11 7,0 0,-11"
         clip-rule="evenodd"
         id="path6020" /></clipPath><clipPath
       clipPathUnits="userSpaceOnUse"
       id="clipPath6052"><path
         d="m 38,82 0,9 5,0 0,-9"
         clip-rule="evenodd"
         id="path6054" /></clipPath><clipPath
       clipPathUnits="userSpaceOnUse"
       id="clipPath6064"><path
         d="m -2.03,-2.317 0,11 7,0 0,-11"
         clip-rule="evenodd"
         id="path6066" /></clipPath><clipPath
       clipPathUnits="userSpaceOnUse"
       id="clipPath6262"><path
         d="m 43,3 0,420 420,0 0,-420"
         clip-rule="evenodd"
         id="path6264" /></clipPath></defs><sodipodi:namedview
     pagecolor="#ffffff"
     bordercolor="#666666"
     borderopacity="1"
     objecttolerance="10"
     gridtolerance="10"
     guidetolerance="10"
     inkscape:pageopacity="0"
     inkscape:pageshadow="2"
     inkscape:window-width="1440"
     inkscape:window-height="871"
     id="namedview5626"
     showgrid="false"
     inkscape:zoom="1"
     inkscape:cx="227.58035"
     inkscape:cy="249.41086"
     inkscape:window-x="0"
     inkscape:window-y="26"
     inkscape:window-maximized="1"
     inkscape:current-layer="g5632" /><g
     id="g5632"
     inkscape:groupmode="layer"
     inkscape:label="addition_general"
     transform="matrix(1.25,0,0,1.25,-44.1,-3.6)"><path
   inkscape:connector-curvature="0"
   id="path5680"
   style="fill:none;stroke:#000000;stroke-width:0.36000001;stroke-linecap:square;stroke-linejoin:miter;stroke-miterlimit:3.25;stroke-opacity:1;stroke-dasharray:none"
   d="m 445.93999,15.74499 -0.037,0.132 -0.4,1.366 -0.163,0.532 -0.273,0.968 -0.021,0.073 -0.301,0.989 -0.161,0.579 -0.362,1.234 -0.065,0.217 -0.033,0.119 -0.119,0.411 -0.344,1.156 -0.108,0.344 -0.181,0.633 -0.174,0.59 -0.25,0.807 -0.215,0.759 -0.218,0.731 -0.161,0.54 -0.086,0.293 -0.214,0.722 -0.079,0.269 -0.173,0.573 -0.052,0.173 -0.097,0.322 -0.32,1.067 -0.201,0.641 -0.266,0.922 -0.081,0.268 -0.262,0.84 -0.128,0.451 -0.45,1.501 -0.019,0.06 -0.006,0.018 -0.01,0.035 -0.458,1.503 -0.157,0.493 -0.27,0.919 -0.044,0.147 -0.051,0.171 -0.244,0.793 -0.181,0.59 -0.372,1.221 -0.068,0.219 -0.034,0.116 -0.116,0.388 -0.361,1.165 -0.117,0.361 -0.203,0.68 -0.157,0.512 -0.269,0.838 -0.21,0.713 -0.27,0.873 -0.141,0.444 -0.068,0.234 -0.234,0.766 -0.247,0.783 -0.081,0.247 -0.142,0.47 -0.259,0.832 -0.225,0.728 -0.061,0.199 -0.196,0.62 -0.18,0.571 -0.206,0.64 -0.099,0.335 -0.334,1.077 -0.15,0.468 -0.05,0.15 -0.089,0.288 -0.348,1.105 -0.212,0.637 -0.274,0.907 -0.102,0.317 -0.264,0.806 -0.124,0.417 -0.417,1.324 -0.071,0.218 -0.024,0.071 -0.043,0.138 -0.426,1.329 -0.179,0.563 -0.272,0.86 -0.038,0.117 -0.037,0.113 -0.312,0.94 -0.146,0.482 -0.482,1.509 -0.01,0.03 -0.004,0.009 -0.006,0.019 -0.488,1.504 -0.173,0.507 -0.308,0.989 -0.013,0.04 -0.337,1.001 -0.162,0.529 -0.466,1.438 -0.021,0.063 -0.01,0.033 -0.033,0.102 -0.469,1.426 -0.162,0.469 -0.291,0.923 -0.045,0.14 -0.331,0.968 -0.173,0.558 -0.446,1.359 -0.037,0.113 -0.018,0.057 -0.058,0.177 -0.26,0.781 -0.188,0.566 -0.149,0.449 -0.293,0.89 -0.061,0.188 -0.329,0.952 -0.18,0.57 -0.441,1.331 -0.044,0.129 -0.02,0.064 -0.065,0.198 -0.445,1.322 -0.158,0.446 -0.288,0.891 -0.062,0.186 -0.333,0.953 -0.179,0.564 -0.455,1.356 -0.036,0.11 -0.019,0.055 -0.055,0.166 -0.271,0.794 -0.188,0.555 -0.156,0.46 -0.311,0.927 -0.045,0.132 -0.343,0.971 -0.173,0.542 -0.484,1.43 -0.021,0.058 -0.009,0.029 -0.029,0.087 -0.49,1.424 -0.177,0.49 -0.327,0.995 -0.011,0.03 -0.358,1.005 -0.163,0.504 -0.504,1.477 -0.013,0.036 -0.004,0.013 -0.009,0.027 -0.509,1.468 -0.196,0.535 -0.323,0.976 -0.043,0.122 -0.335,0.932 -0.147,0.451 -0.451,1.313 -0.07,0.196 -0.026,0.07 -0.05,0.146 -0.45,1.289 -0.206,0.595 -0.213,0.619 -0.104,0.293 -0.112,0.32 -0.289,0.798 -0.126,0.385 -0.384,1.113 -0.14,0.392 -0.054,0.141 -0.1,0.293 -0.374,1.068 -0.248,0.669 -0.279,0.834 -0.197,0.558 -0.232,0.638 -0.1,0.306 -0.306,0.883 -0.222,0.618 -0.085,0.223 -0.159,0.466 -0.286,0.812 -0.262,0.752 -0.001,0.002 -0.267,0.746 -0.293,0.826 -0.165,0.456 -0.072,0.218 -0.218,0.63 -0.313,0.869 -0.119,0.313 -0.224,0.656 -0.187,0.531 -0.314,0.843 -0.218,0.655 -0.395,1.115 -0.095,0.26 -0.04,0.124 -0.125,0.361 -0.409,1.136 -0.155,0.409 -0.292,0.856 -0.082,0.236 -0.077,0.22 -0.259,0.718 -0.198,0.558 -0.498,1.412 -0.022,0.06 -0.009,0.029 -0.029,0.083 -0.505,1.413 -0.192,0.505 -0.337,0.996 -0.021,0.059 -0.361,0.975 -0.151,0.463 -0.463,1.323 -0.066,0.179 -0.025,0.065 -0.047,0.138 -0.459,1.295 -0.225,0.597 -0.303,0.906 -0.12,0.34 -0.278,0.784 -0.131,0.376 -0.223,0.639 -0.153,0.445 -0.15,0.42 -0.054,0.15 -0.11,0.314 -0.363,1.039 -0.252,0.677 -0.272,0.83 -0.199,0.571 -0.228,0.629 -0.096,0.306 -0.306,0.904 -0.215,0.606 -0.081,0.215 -0.147,0.442 -0.292,0.853 -0.268,0.735 -0.248,0.778 -0.246,0.718 -0.181,0.534 -0.088,0.264 -0.251,0.751 -0.013,0.041 -0.248,0.726 -0.084,0.248 -0.168,0.499 -0.257,0.774 -0.269,0.757 -0.236,0.768 -0.245,0.738 -0.179,0.524 -0.079,0.266 -0.265,0.837 -0.232,0.695 -0.083,0.232 -0.14,0.454 -0.271,0.85 -0.249,0.726 -0.239,0.816 -0.184,0.582 -0.199,0.632 -0.102,0.332 -0.209,0.683 -0.122,0.409 -0.145,0.462 -0.045,0.144 -0.083,0.273 -0.345,1.14 -0.202,0.617 -0.26,0.951 -0.054,0.183 -0.279,0.896 -0.127,0.491 -0.411,1.46 -0.023,0.079 -0.011,0.045 -0.045,0.17 -0.398,1.418 -0.121,0.397 -0.173,0.692 -0.135,0.512 -0.188,0.73 -0.026,0.096 -0.206,0.784 -0.159,0.622 -0.169,0.624 -0.081,0.375 -0.374,1.571 -0.017,0.067 -0.005,0.017 -0.006,0.028 -0.375,1.6 -0.104,0.402 -0.126,0.633 -0.136,0.629 -0.184,0.768 -0.164,0.913 -0.053,0.257 -0.19,0.86 -0.093,0.578 -0.199,1.074 -0.076,0.379 -0.038,0.264 -0.265,1.599 -0.025,0.142 -0.005,0.025 -0.004,0.034 -0.264,1.697 -0.044,0.299 -0.056,0.398 -0.146,1.087 -0.086,0.545 -0.067,0.697 -0.065,0.57 -0.082,0.763 -0.092,0.936 -0.013,0.144 -0.111,0.95 -0.049,0.921 -0.015,0.203 -0.064,0.906 -0.047,0.794 -0.025,0.467 -0.057,0.769 -0.008,0.705 -0.021,0.641 -0.018,0.684 -0.011,0.655 -0.008,0.728 -0.02,0.647 0.02,0.647 0.008,0.728 0.011,0.655 0.018,0.684 0.021,0.641 0.008,0.705 0.057,0.769 0.025,0.467 0.047,0.794 0.064,0.906 0.015,0.203 0.049,0.921 0.111,0.95 0.013,0.144 0.092,0.936 0.082,0.763 0.065,0.57 0.067,0.697 0.086,0.545 0.146,1.087 0.056,0.398 0.044,0.299 0.264,1.697 0.004,0.034 0.005,0.025 0.025,0.142 0.265,1.599 0.038,0.264 0.076,0.379 0.199,1.074 0.093,0.578 0.19,0.86 0.053,0.257 0.164,0.913 0.184,0.768 0.136,0.629 0.126,0.633 0.104,0.402 0.375,1.6 0.006,0.028 0.005,0.017 0.017,0.067 0.374,1.571 0.092,0.375 0.158,0.624 0.159,0.622 0.206,0.784 0.026,0.096 0.188,0.73 0.135,0.512 0.173,0.692 0.121,0.397 0.398,1.418 0.045,0.17 0.011,0.045 0.023,0.079 0.411,1.46 0.127,0.491 0.279,0.896 0.054,0.183 0.26,0.951 0.202,0.617 0.345,1.14 0.079,0.273 0.049,0.144 0.145,0.455 0.331,1.099 0.102,0.332 0.199,0.632 0.184,0.582 0.239,0.816 0.249,0.726 0.271,0.85 0.14,0.454 0.083,0.232 0.232,0.695 0.265,0.837 0.079,0.266 0.179,0.524 0.245,0.738 0.236,0.768 0.269,0.757 0.257,0.774 0.161,0.499 0.091,0.248 0.248,0.717 0.264,0.801 0.088,0.264 0.181,0.534 0.246,0.718 0.248,0.778 0.268,0.735 0.292,0.853 0.147,0.442 0.081,0.215 0.215,0.606 0.306,0.904 0.096,0.306 0.228,0.629 0.199,0.571 0.272,0.83 0.252,0.677 0.363,1.039 0.106,0.314 0.058,0.15 0.15,0.415 0.376,1.089 0.131,0.376 0.278,0.784 0.12,0.34 0.303,0.906 0.225,0.597 0.459,1.295 0.047,0.138 0.025,0.065 0.066,0.179 0.463,1.323 0.151,0.463 0.361,0.975 0.021,0.059 0.337,0.996 0.192,0.505 0.505,1.413 0.029,0.083 0.01,0.029 0.021,0.06 0.498,1.412 0.198,0.558 0.259,0.718 0.077,0.22 0.082,0.236 0.292,0.856 0.155,0.409 0.409,1.136 0.125,0.361 0.04,0.124 0.095,0.26 0.395,1.115 0.218,0.655 0.314,0.843 0.187,0.531 0.224,0.656 0.119,0.313 0.313,0.869 0.218,0.63 0.077,0.218 0.16,0.456 0.293,0.826 0.267,0.746 0.001,0.002 0.262,0.752 0.286,0.812 0.159,0.466 0.085,0.223 0.222,0.618 0.306,0.883 0.1,0.306 0.232,0.638 0.197,0.558 0.279,0.834 0.248,0.669 0.374,1.068 0.1,0.293 0.054,0.141 0.14,0.392 0.384,1.113 0.134,0.385 0.281,0.798 0.112,0.32 0.104,0.293 0.213,0.619 0.206,0.595 0.45,1.289 0.05,0.146 0.026,0.07 0.07,0.196 0.451,1.313 0.147,0.451 0.335,0.932 0.043,0.122 0.323,0.976 0.196,0.535 0.509,1.468 0.009,0.027 0.004,0.013 0.013,0.036 0.504,1.477 0.174,0.504 0.337,0.975 0.01,0.03 0.011,0.03 0.327,0.995 0.177,0.49 0.49,1.424 0.029,0.087 0.009,0.029 0.021,0.058 0.484,1.43 0.173,0.542 0.343,0.971 0.045,0.132 0.302,0.927 0.165,0.46 0.459,1.348 0.055,0.167 0.019,0.055 0.036,0.11 0.455,1.356 0.179,0.564 0.333,0.953 0.062,0.186 0.288,0.891 0.158,0.446 0.445,1.322 0.065,0.198 0.02,0.064 0.044,0.129 0.441,1.331 0.18,0.57 0.329,0.952 0.061,0.188 0.285,0.89 0.157,0.449 0.448,1.347 0.058,0.177 0.018,0.057 0.037,0.113 0.446,1.359 0.173,0.558 0.331,0.968 0.045,0.14 0.291,0.923 0.162,0.469 0.469,1.426 0.033,0.102 0.01,0.033 0.021,0.063 0.466,1.438 0.162,0.529 0.337,1.001 0.013,0.04 0.308,0.989 0.173,0.507 0.488,1.504 0.006,0.019 0.004,0.009 0.01,0.03 0.482,1.509 0.154,0.482 0.304,0.94 0.037,0.113 0.038,0.117 0.272,0.86 0.179,0.563 0.426,1.329 0.043,0.138 0.024,0.071 0.071,0.218 0.417,1.324 0.124,0.417 0.264,0.806 0.102,0.317 0.274,0.907 0.212,0.637 0.348,1.105 0.089,0.288 0.05,0.15 0.15,0.468 0.334,1.077 0.105,0.335 0.2,0.64 0.18,0.571 0.196,0.62 0.061,0.199 0.225,0.728 0.259,0.832 0.142,0.47 0.081,0.247 0.247,0.783 0.234,0.766 0.068,0.234 0.141,0.444 0.27,0.873 0.21,0.713 0.269,0.838 0.157,0.512 0.203,0.68 0.117,0.361 0.361,1.165 0.116,0.388 0.036,0.116 0.066,0.219 0.372,1.221 0.181,0.59 0.244,0.793 0.051,0.171 0.044,0.147 0.27,0.919 0.157,0.493 0.458,1.503 0.01,0.035 0.006,0.018 0.019,0.06 0.45,1.501 0.128,0.451 0.262,0.84 0.081,0.268 0.266,0.922 0.201,0.641 0.32,1.067 0.094,0.322 0.055,0.173 0.173,0.571 0.293,0.993 0.086,0.293 0.161,0.54 0.218,0.731 0.215,0.759 0.25,0.807 0.174,0.59 0.181,0.633 0.108,0.344 0.344,1.156 0.119,0.411 0.033,0.119 0.065,0.217 0.362,1.234 0.161,0.579 0.301,0.989 0.021,0.073 0.273,0.968 0.163,0.532 0.4,1.366 0.038,0.132" /><path
   inkscape:connector-curvature="0"
   id="path5682"
   style="fill:none;stroke:#000000;stroke-width:0.36000001;stroke-linecap:square;stroke-linejoin:miter;stroke-miterlimit:3.25;stroke-opacity:1;stroke-dasharray:none"
   d="m 86.715988,263.76899 -0.274,-0.084 -0.741,-0.229 -0.122,-0.045 -0.655,-0.238 -0.238,-0.094 -0.485,-0.198 -0.081,-0.036 -0.449,-0.202 -0.168,-0.079 -0.337,-0.168 -0.51,-0.256 -0.486,-0.273 -0.529,-0.299 -0.296,-0.187 -0.438,-0.282 -0.281,-0.186 -0.913,-0.649 -1.007,-0.803 -0.11,-0.089 -0.012,-0.01 -0.012,-0.011 -1.053,-0.954 -0.953,-0.959 -0.057,-0.06 -0.048,-0.057 -0.911,-1.015 -0.002,-0.002 -0.809,-1.013 -0.093,-0.11 -0.11,-0.143 -0.748,-1.029 -0.267,-0.377 -0.246,-0.371 -0.301,-0.468 -0.468,-0.745 -0.306,-0.512 -0.163,-0.305 -0.574,-0.988 -0.059,-0.113 -0.463,-0.929 -0.165,-0.301 -0.3,-0.615 -0.354,-0.761 -0.145,-0.353 -0.417,-0.916 -0.06,-0.138 -0.04,-0.092 -0.352,-0.884 -0.184,-0.479 -0.479,-1.274 -0.073,-0.204 -0.023,-0.073 -0.052,-0.149 -0.432,-1.301 -0.166,-0.58 -0.318,-0.966 -0.04,-0.139 -0.24,-0.925 -0.16,-0.526 -0.344,-1.323 -0.042,-0.181 -0.031,-0.109 -0.109,-0.463 -0.268,-1.191 -0.049,-0.268 -0.094,-0.411 -0.202,-1.005 -0.1,-0.614 -0.183,-0.896 -0.036,-0.201 -0.083,-0.484 -0.072,-0.449 -0.124,-0.819 -0.066,-0.458 -0.087,-0.753 -0.091,-0.574 -0.123,-1.004 -0.053,-0.452 -0.038,-0.36 -0.145,-1.454 -0.015,-0.216 -0.021,-0.18 -0.14,-1.811 -0.003,-0.039 -0.002,-0.034 -0.035,-0.618 -0.069,-1.308 -0.002,-0.07 -0.004,-0.076 -0.058,-1.82 0,-0.134 -0.006,-0.14 -0.019,-1.732 0.004,-0.158 -0.004,-0.158 0.019,-1.732 0.006,-0.14 0,-0.134 0.058,-1.82 0.002,-0.076 0.004,-0.07 0.045,-0.945 0.024,-0.422 0.035,-0.559 0.002,-0.034 0.003,-0.039 0.14,-1.811 0.021,-0.18 0.015,-0.216 0.145,-1.454 0.038,-0.36 0.053,-0.452 0.123,-1.004 0.091,-0.574 0.087,-0.753 0.066,-0.458 0.124,-0.819 0.072,-0.449 0.083,-0.484 0.036,-0.201 0.183,-0.896 0.1,-0.614 0.202,-1.005 0.094,-0.411 0.049,-0.268 0.268,-1.191 0.109,-0.463 0.031,-0.109 0.042,-0.181 0.344,-1.323 0.16,-0.526 0.24,-0.925 0.04,-0.139 0.318,-0.966 0.166,-0.58 0.432,-1.301 0.052,-0.149 0.023,-0.073 0.073,-0.204 0.479,-1.274 0.204,-0.479 0.372,-0.976 0.06,-0.138 0.417,-0.916 0.145,-0.353 0.354,-0.761 0.3,-0.615 0.165,-0.301 0.463,-0.929 0.059,-0.113 0.574,-0.988 0.163,-0.305 0.306,-0.512 0.468,-0.745 0.328,-0.468 0.486,-0.748 0.748,-1.029 0.11,-0.143 0.093,-0.11 0.809,-1.013 0.002,-0.002 0.911,-1.015 0.048,-0.057 0.057,-0.06 0.953,-0.959 1.053,-0.954 0.012,-0.011 0.012,-0.01 0.11,-0.089 1.007,-0.803 0.14,-0.102 0.773,-0.552 0.278,-0.185 0.441,-0.278 0.296,-0.187 0.451,-0.264 0.072,-0.041 0.492,-0.267 0.51,-0.256 0.337,-0.168 0.168,-0.08 0.449,-0.201 0.081,-0.036 0.055,-0.023 0.43,-0.177 0.238,-0.092 0.655,-0.238 0.122,-0.045 0.066,-0.021 0.671,-0.212 0.278,-0.08 0.493,-0.136 0.023,-0.005 0.499,-0.119 0.324,-0.073 0.459,-0.092 0.232,-0.044 0.16,-0.028 0.821,-0.126 0.034,-0.005 0.026,-0.003 0.241,-0.026 0.674,-0.074 0.074,-0.007 0.087,-0.006 0.79,-0.051 0.138,-0.007 0.15,-0.005 0.701,-0.015 0.164,-10e-4 0.165,10e-4 0.7,0.014 0.15,0.005 0.139,0.007 0.784,0.047 0.092,0.006 0.079,0.007 0.429,0.038 0.387,0.041 0.108,0.011 0.012,0.002 0.015,0.002 0.493,0.061 0.377,0.054 0.13,0.02 0.178,0.027 0.565,0.095 0.272,0.05 0.405,0.082 0.61,0.129 0.394,0.088 1.555002,0.394 0.065,0.016 0.016,0.005 0.03,0.008 1.505,0.466 0.495,0.17 1.014,0.351 0.004,0.002 1.012,0.398 1.47,0.614 0.393,0.167 0.167,0.078 0.453,0.207 0.765,0.36 0.812,0.408 0.541,0.269 0.475,0.245 0.554,0.296 0.298,0.163 0.163,0.089 0.576,0.324 0.56,0.318 0.894,0.534 0.99,0.602 0.639,0.4 0.401,0.264 0.83,0.535 1.139,0.77 0.061,0.042 0.011,0.007 0.017,0.012 0.987,0.697 0.185,0.133 0.259,0.185 0.571,0.419 0.341,0.254 0.456,0.342 0.698,0.534 0.535,0.426 0.603,0.467 0.749,0.603 0.372,0.306 0.306,0.262 0.799,0.663 0.928,0.799 0.16,0.143 0.143,0.13 0.93,0.827 1.013,0.93 0.045,0.043 0.042,0.041 0.999,0.948 1.018,0.998 0.007,0.007 0.006,0.007 1.002,1.014 0.958,1.002 0.034,0.037 0.036,0.041 0.938,1.015 0.84,0.937 0.116,0.137 0.136,0.165 0.801,0.927 0.672,0.801 0.246,0.312 0.311,0.406 0.586,0.727 0.457,0.585 0.417,0.571 0.57,0.804 0.281,0.375 0.199,0.281 0.535,0.793 0.09,0.132 0.337,0.516 0.381,0.589 0.077,0.13 0.13,0.227 0.632,1.041 0.372,0.632 0.356,0.67 0.67,1.305 0.02,0.035 0.01,0.02 0.026,0.055 0.605,1.314 0.285,0.661 0.069,0.179 0.238,0.598 0.277,0.752 0.181,0.501 0.074,0.245 0.245,0.858 0.217,0.71 0.063,0.217 0.082,0.361 0.233,1.074 0.122,0.595 0.117,0.833 0.042,0.322 0.103,0.875 0.054,0.997 0.002,0.037 0.032,0.996 -0.032,0.996 -0.002,0.037 -0.054,0.997 -0.103,0.875 -0.042,0.322 -0.117,0.833 -0.122,0.595 -0.233,1.074 -0.082,0.361 -0.063,0.217 -0.217,0.71 -0.245,0.858 -0.074,0.245 -0.181,0.501 -0.277,0.752 -0.238,0.598 -0.069,0.179 -0.285,0.661 -0.605,1.314 -0.026,0.055 -0.01,0.02 -0.02,0.035 -0.67,1.305 -0.356,0.67 -0.372,0.632 -0.632,1.041 -0.13,0.227 -0.077,0.13 -0.381,0.589 -0.337,0.516 -0.09,0.132 -0.535,0.793 -0.199,0.281 -0.281,0.393 -0.24,0.341 -0.33,0.445 -0.423,0.571 -0.022,0.028 -0.429,0.557 -0.586,0.727 -0.311,0.406 -0.246,0.312 -0.672,0.801 -0.801,0.927 -0.136,0.165 -0.116,0.137 -0.84,0.937 -0.938,1.015 -0.036,0.041 -0.034,0.037 -0.958,1.002 -1.002,1.014 -0.006,0.007 -0.007,0.007 -1.018,0.998 -0.999,0.948 -0.042,0.041 -0.045,0.043 -1.013,0.93 -0.93,0.827 -0.143,0.13 -0.16,0.143 -0.928,0.799 -0.799,0.663 -0.306,0.262 -0.372,0.306 -0.749,0.603 -0.603,0.467 -0.535,0.426 -0.698,0.534 -0.456,0.342 -0.341,0.254 -0.571,0.419 -0.259,0.185 -1.172,0.83 -0.017,0.012 -0.011,0.008 -0.061,0.041 -1.139,0.77 -0.83,0.535 -0.401,0.264 -0.639,0.4 -0.612,0.379 -0.378,0.223 -0.894,0.534 -0.56,0.318 -0.576,0.324 -0.163,0.089 -0.306,0.163 -1.021,0.541 -0.541,0.278 -0.394,0.196 -0.418,0.203 -0.765,0.36 -0.453,0.207 -0.167,0.078 -0.393,0.167 -1.03,0.44 -0.44,0.174 -1.012,0.398 -0.004,0.002 -1.014,0.351 -0.495,0.17 -1.505,0.466 -0.03,0.008 -0.016,0.005 -0.065,0.016 -1.555002,0.394 -0.394,0.088 -0.61,0.129 -0.405,0.082 -0.272,0.05 -0.565,0.095 -0.178,0.027 -0.13,0.02 -0.87,0.115 -0.015,0.002 -0.012,0.002 -0.12,0.011 -0.804,0.079 -0.079,0.006 -0.878,0.052 -0.137,0.008 -0.148,0.003 -0.867,0.018 -0.868,-0.018 -0.147,-0.003 -0.136,-0.009 -0.879,-0.055 -0.074,-0.007 -0.674,-0.074 -0.241,-0.026 -0.026,-0.003 -0.034,-0.005 -0.474,-0.068 -0.347,-0.058 -0.16,-0.027 -0.232,-0.045 -0.459,-0.092 -0.324,-0.073 -0.499,-0.119 -0.023,-0.005 -0.493,-0.136" /><path
   inkscape:connector-curvature="0"
   id="path5684"
   style="fill:none;stroke:#000000;stroke-width:0.36000001;stroke-linecap:square;stroke-linejoin:miter;stroke-miterlimit:3.25;stroke-opacity:1;stroke-dasharray:none"
   d="m 252.40299,243.88799 0.777,0.241 0.761,0.251 0.72,0.211 0.549,0.151 1.504,0.399 0.42,0.106 0.106,0.024 0.17,0.04 1.39,0.3 0.47,0.087 0.697,0.139 0.541,0.096 0.792,0.116 0.967,0.155 0.111,0.015 0.952,0.101 0.76,0.091 0.561,0.05 0.709,0.046 0.616,0.049 0.84,0.041 0.574,0.022 0.543,0.01 0.472,0.008 0.48,-0.002 0.536,-0.002 0.552,-0.014 0.463,-0.012 0.43,-0.021 0.585,-0.028 0.658,-0.046 0.357,-0.025 0.303,-0.028 0.712,-0.066 0.879,-0.102 0.136,-0.015 0.105,-0.015 0.762,-0.105 0.148,-0.021 0.851,-0.142 0.399,-0.073 0.78,-0.159 0.519,-0.101 1.287,-0.295 0.224,-0.057 0.135,-0.032 0.484,-0.135 1.101,-0.31 0.31,-0.1 0.594,-0.185 0.632,-0.209 0.607,-0.211 0.197,-0.071 0.681,-0.264 1.124,-0.456 0.225,-0.095 0.092,-0.038 0.2,-0.091 1.188,-0.551 0.55,-0.282 0.798,-0.399 0.966,-0.533 0.266,-0.15 0.074,-0.041 0.122,-0.074 1.135,-0.699 0.699,-0.471 0.519,-0.342 0.719,-0.518 0.457,-0.335 0.335,-0.268 0.8,-0.627 0.936,-0.8 0.157,-0.138 0.137,-0.13 0.912,-0.85 0.897,-0.913 0.108,-0.112 0.113,-0.128 0.847,-0.943 0.696,-0.847 0.217,-0.27 0.27,-0.37 0.594,-0.795 0.405,-0.595 0.41,-0.62 0.621,-1.034 0.143,-0.233 0.08,-0.143 0.256,-0.479 0.367,-0.705 0.394,-0.846 0.243,-0.547 0.547,-1.382 0.03,-0.072 0.01,-0.029 0.02,-0.06 0.458,-1.453 0.147,-0.517 0.213,-0.877 0.05,-0.225 0.172,-0.928 0.13,-0.8 0.063,-0.492 0.079,-0.738 0.04,-0.618 0.035,-0.828 0.006,-0.584 -0.006,-0.584 -0.035,-0.828 -0.04,-0.618 -0.079,-0.738 -0.063,-0.492 -0.13,-0.8 -0.172,-0.928 -0.05,-0.225 -0.213,-0.877 -0.147,-0.517 -0.458,-1.453 -0.02,-0.06 -0.01,-0.029 -0.03,-0.072 -0.547,-1.382 -0.243,-0.547 -0.394,-0.846 -0.367,-0.705 -0.256,-0.479 -0.08,-0.143 -0.143,-0.233 -0.621,-1.034 -0.41,-0.62 -0.405,-0.595 -0.594,-0.795 -0.27,-0.37 -0.217,-0.27 -0.696,-0.847 -0.847,-0.943 -0.113,-0.128 -0.108,-0.112 -0.897,-0.913 -0.912,-0.85 -0.137,-0.13 -0.157,-0.138 -0.936,-0.8 -0.8,-0.627 -0.335,-0.268 -0.457,-0.335 -0.719,-0.518 -0.519,-0.342 -0.699,-0.471 -1.135,-0.699 -0.122,-0.074 -0.074,-0.041 -0.266,-0.15 -0.966,-0.533 -0.408,-0.217 -0.39,-0.199 -0.55,-0.265 -1.188,-0.551 -0.2,-0.091 -0.092,-0.038 -0.225,-0.095 -1.124,-0.456 -0.681,-0.246 -0.804,-0.3 -0.632,-0.209 -0.594,-0.185 -0.31,-0.1 -1.101,-0.31 -0.619,-0.167 -0.224,-0.057 -1.287,-0.295 -0.519,-0.112 -0.78,-0.148 -0.399,-0.073 -0.851,-0.142 -0.148,-0.021 -0.761,-0.106 -0.106,-0.014 -0.138,-0.018 -0.662,-0.077 -0.215,-0.022 -0.266,-0.028 -0.442,-0.042 -0.307,-0.024 -0.362,-0.03 -0.272,-0.02 -0.381,-0.021 -0.429,-0.027 -0.15,-0.007 -0.436,-0.015 -0.47,-0.018 -0.074,-0.002 -0.471,-0.006 -0.536,-0.002 -0.952,0.006 -0.543,0.01 -0.574,0.022 -0.84,0.041 -0.616,0.049 -0.709,0.046 -0.561,0.05 -0.76,0.077 -0.952,0.115 -0.111,0.015 -0.967,0.155 -0.792,0.116 -0.541,0.096 -0.697,0.129 -0.47,0.097 -1.39,0.3 -0.17,0.04 -0.106,0.024 -0.42,0.106 -1.196,0.309 -0.308,0.09 -0.549,0.151 -0.72,0.211 -0.761,0.251 -0.777,0.241 -0.727,0.252 -0.526,0.191 -0.249,0.085 -0.656,0.249 -0.81,0.315 -0.315,0.135 -0.754,0.305 -0.367,0.154 -0.909,0.418 -0.49,0.214 -1.029,0.489 -0.343,0.168 -0.168,0.089 -0.519,0.262 -0.653,0.339 -0.858,0.483 -0.45,0.239 -0.779,0.45 -0.502,0.3 -0.299,0.193 -0.955,0.583 -0.358,0.238 -0.717,0.481 -0.144,0.092 -0.21,0.143 -0.979,0.698 -0.697,0.535 -0.462,0.336 -0.59,0.462 -0.538,0.44 -0.44,0.388 -0.655,0.547 -0.729,0.655 -0.332,0.314 -0.314,0.322 -0.71,0.684 -0.68,0.71 -0.304,0.336 -0.336,0.404 -0.605,0.685 -0.494,0.605 -0.401,0.53 -0.531,0.762 -0.313,0.424 -0.214,0.314 -0.574,0.928 -0.226,0.399 -0.387,0.703 -0.103,0.212 -0.213,0.483 -0.425,0.909 -0.179,0.426 -0.335,0.939 -0.038,0.114 -0.284,0.977 -0.142,0.627 -0.179,0.956 -0.073,0.447 -0.033,0.342 -0.09,1.436 -0.008,0.252 0.008,0.252 0.09,1.436 0.033,0.342 0.073,0.447 0.179,0.956 0.142,0.627 0.284,0.977 0.038,0.114 0.335,0.939 0.179,0.426 0.425,0.909 0.213,0.483 0.103,0.212 0.387,0.703 0.226,0.399 0.574,0.928 0.214,0.314 0.313,0.424 0.531,0.762 0.401,0.53 0.494,0.605 0.605,0.685 0.336,0.404 0.304,0.336 0.68,0.71 0.71,0.684 0.314,0.322 0.332,0.314 0.729,0.655 0.655,0.547 0.44,0.388 0.538,0.44 0.59,0.462 0.462,0.336 0.697,0.535 0.979,0.698 0.21,0.143 0.144,0.092 0.717,0.481 0.358,0.238 0.955,0.583 0.299,0.193 0.502,0.3 0.779,0.45 0.45,0.255 0.56,0.31 0.298,0.157 0.653,0.339 0.519,0.262 0.168,0.089 0.343,0.168 1.029,0.489 0.49,0.214 0.909,0.418 0.367,0.154 0.754,0.305 0.315,0.135 0.81,0.315 0.656,0.249 0.249,0.091 0.526,0.185 0.727,0.252" /><path
   inkscape:connector-curvature="0"
   id="path5686"
   style="fill:none;stroke:#000000;stroke-width:0.14399999;stroke-linecap:square;stroke-linejoin:miter;stroke-miterlimit:3.25;stroke-opacity:1;stroke-dasharray:none"
   d="m 458.46899,426.06899 -418.698002,0" /><path
   inkscape:connector-curvature="0"
   id="path5688"
   style="fill:none;stroke:#000000;stroke-width:0.14399999;stroke-linecap:square;stroke-linejoin:miter;stroke-miterlimit:3.25;stroke-opacity:1;stroke-dasharray:none"
   d="m 39.770988,426.06899 0,-418.6979998" /><path
   inkscape:connector-curvature="0"
   id="path5690"
   style="fill:none;stroke:#000000;stroke-width:0.14399999;stroke-linecap:square;stroke-linejoin:miter;stroke-miterlimit:3.25;stroke-opacity:1;stroke-dasharray:none"
   d="m 39.770988,7.3709902 418.698002,0" /><path
   inkscape:connector-curvature="0"
   id="path5692"
   style="fill:none;stroke:#000000;stroke-width:0.14399999;stroke-linecap:square;stroke-linejoin:miter;stroke-miterlimit:3.25;stroke-opacity:1;stroke-dasharray:none"
   d="m 458.46899,7.3709902 0,418.6979998" /><text
   id="text5722"
   x="60.847992"
   y="434.229"><tspan
     id="tspan5724"
     y="434.229"
     x="60.847992"
     style="font-size:6.48000002px;font-variant:normal;font-weight:normal;writing-mode:lr-tb;fill:#000000;fill-opacity:1;fill-rule:nonzero;stroke:none;font-family:Mathematica1;-inkscape-font-specification:Mathematica1" /></text>

<text
   id="text5772"
   x="141.23798"
   y="434.229"><tspan
     id="tspan5774"
     y="434.229"
     x="141.23798"
     style="font-size:6.48000002px;font-variant:normal;font-weight:normal;writing-mode:lr-tb;fill:#000000;fill-opacity:1;fill-rule:nonzero;stroke:none;font-family:Mathematica1;-inkscape-font-specification:Mathematica1" /></text>

<text
   id="text5972"
   x="30.860989"
   y="344.95401"><tspan
     id="tspan5974"
     y="344.95401"
     x="30.860989"
     style="font-size:6.48000002px;font-variant:normal;font-weight:normal;writing-mode:lr-tb;fill:#000000;fill-opacity:1;fill-rule:nonzero;stroke:none;font-family:Mathematica1;-inkscape-font-specification:Mathematica1" /></text>

</g></svg>